<?xml version="1.0" encoding="utf-8"?>
<!-- Generator: Adobe Illustrator 16.0.0, SVG Export Plug-In . SVG Version: 6.00 Build 0)  -->
<!DOCTYPE svg PUBLIC "-//W3C//DTD SVG 1.1//EN" "http://www.w3.org/Graphics/SVG/1.1/DTD/svg11.dtd">
<svg version="1.1" xmlns="http://www.w3.org/2000/svg" xmlns:xlink="http://www.w3.org/1999/xlink" x="0px" y="0px" width="141px"
	 height="54px" viewBox="0 0 141 54" style="enable-background:new 0 0 141 54;" xml:space="preserve">
<style type="text/css">
<![CDATA[
	.st0{fill-rule:evenodd;clip-rule:evenodd;fill:none;}
	.st1{display:inline;fill-rule:evenodd;clip-rule:evenodd;fill:url(#SVGID_1_);}
	.st2{display:inline;fill-rule:evenodd;clip-rule:evenodd;fill:url(#SVGID_2_);}
	.st3{display:inline;fill:#CCEAF1;}
	.st4{fill:#FFFFFF;}
	.st5{fill-rule:evenodd;clip-rule:evenodd;fill:#231F20;}
	.st6{display:inline;}
	.st7{display:inline;fill:none;}
	.st8{fill:#FFFFFF;stroke:url(#SVGID_19_);stroke-miterlimit:10;}
	.st9{display:inline;fill-rule:evenodd;clip-rule:evenodd;fill:#FFFFFF;}
	.st10{fill:url(#SVGID_32_);}
	.st11{fill:url(#SVGID_33_);}
	.st12{display:none;}
	.st13{fill-rule:evenodd;clip-rule:evenodd;fill:url(#SVGID_10_);}
	.st14{fill-rule:evenodd;clip-rule:evenodd;fill:url(#SVGID_11_);}
	.st15{fill-rule:evenodd;clip-rule:evenodd;fill:url(#SVGID_12_);}
	.st16{fill-rule:evenodd;clip-rule:evenodd;fill:url(#SVGID_13_);}
	.st17{fill-rule:evenodd;clip-rule:evenodd;fill:url(#SVGID_14_);}
	.st18{fill-rule:evenodd;clip-rule:evenodd;fill:url(#SVGID_15_);}
	.st19{fill-rule:evenodd;clip-rule:evenodd;fill:url(#SVGID_16_);}
	.st20{fill-rule:evenodd;clip-rule:evenodd;fill:url(#SVGID_17_);}
	.st21{fill-rule:evenodd;clip-rule:evenodd;fill:url(#SVGID_18_);}
	.st22{fill-rule:evenodd;clip-rule:evenodd;fill:url(#SVGID_20_);}
	.st23{fill-rule:evenodd;clip-rule:evenodd;fill:url(#SVGID_21_);}
	.st24{fill-rule:evenodd;clip-rule:evenodd;fill:url(#SVGID_22_);}
	.st25{fill-rule:evenodd;clip-rule:evenodd;fill:url(#SVGID_23_);}
	.st26{fill-rule:evenodd;clip-rule:evenodd;fill:url(#SVGID_24_);}
	.st27{fill-rule:evenodd;clip-rule:evenodd;fill:url(#SVGID_25_);}
	.st28{fill-rule:evenodd;clip-rule:evenodd;fill:url(#SVGID_26_);}
	.st29{fill-rule:evenodd;clip-rule:evenodd;fill:url(#SVGID_27_);}
	.st30{fill-rule:evenodd;clip-rule:evenodd;fill:url(#SVGID_28_);}
	.st31{fill-rule:evenodd;clip-rule:evenodd;fill:url(#SVGID_29_);}
	.st32{fill-rule:evenodd;clip-rule:evenodd;fill:url(#SVGID_30_);}
	.st33{fill-rule:evenodd;clip-rule:evenodd;fill:url(#SVGID_31_);}
	.st34{fill-rule:evenodd;clip-rule:evenodd;fill:url(#SVGID_3_);}
	.st35{fill-rule:evenodd;clip-rule:evenodd;fill:url(#SVGID_4_);}
	.st36{fill-rule:evenodd;clip-rule:evenodd;fill:url(#SVGID_5_);}
	.st37{fill-rule:evenodd;clip-rule:evenodd;fill:url(#SVGID_6_);}
	.st38{fill-rule:evenodd;clip-rule:evenodd;fill:url(#SVGID_7_);}
	.st39{fill-rule:evenodd;clip-rule:evenodd;fill:url(#SVGID_8_);}
	.st40{fill-rule:evenodd;clip-rule:evenodd;fill:url(#SVGID_9_);}
	.st41{display:none;fill-rule:evenodd;clip-rule:evenodd;fill:none;stroke:#F9ED32;stroke-miterlimit:10;}
]]>
</style>
<g id="Layer_6" class="st12">
	<linearGradient id="SVGID_1_" gradientUnits="userSpaceOnUse" x1="-472" y1="36" x2="205" y2="36">
		<stop  offset="0.0141" style="stop-color:#E92700"/>
		<stop  offset="0.057" style="stop-color:#EA3508"/>
		<stop  offset="0.1977" style="stop-color:#EE5C20"/>
		<stop  offset="0.3267" style="stop-color:#F17931"/>
		<stop  offset="0.4388" style="stop-color:#F28A3B"/>
		<stop  offset="0.5213" style="stop-color:#F3903F"/>
		<stop  offset="0.5837" style="stop-color:#F49245"/>
		<stop  offset="0.6679" style="stop-color:#F69856"/>
		<stop  offset="0.7646" style="stop-color:#F9A273"/>
		<stop  offset="0.8698" style="stop-color:#FEAF9A"/>
		<stop  offset="0.8876" style="stop-color:#FFB2A1"/>
	</linearGradient>
	<rect x="-472" y="-101" class="st1" width="677" height="274"/>
</g>
<g id="Layer_7" class="st12">
	<linearGradient id="SVGID_2_" gradientUnits="userSpaceOnUse" x1="-134.4995" y1="151.334" x2="-134.4995" y2="-83.999">
		<stop  offset="0.0141" style="stop-color:#E92700"/>
		<stop  offset="0.057" style="stop-color:#EA3508"/>
		<stop  offset="0.1977" style="stop-color:#EE5C20"/>
		<stop  offset="0.3267" style="stop-color:#F17931"/>
		<stop  offset="0.4388" style="stop-color:#F28A3B"/>
		<stop  offset="0.5213" style="stop-color:#F3903F"/>
		<stop  offset="0.5837" style="stop-color:#F49245"/>
		<stop  offset="0.6679" style="stop-color:#F69856"/>
		<stop  offset="0.7646" style="stop-color:#F9A273"/>
		<stop  offset="0.8698" style="stop-color:#FEAF9A"/>
		<stop  offset="0.8876" style="stop-color:#FFB2A1"/>
	</linearGradient>
	<polygon class="st2" points="-277.877,151 189,151 189,-84 -458,-84 -458,151.334 	"/>
</g>
<g id="Layer_3" class="st12">
	<path class="st5" d="M-221.921-65.64c-3.612,0-7.224-0.001-10.836,0.001c-0.531,0-0.46,0.02-0.46-0.467
		c0-5.214,0-10.428,0.002-15.642c0-0.604,0.075-0.673,0.701-0.673c7.049-0.001,14.099-0.001,21.147-0.001
		c0.058,0,0.117-0.002,0.175,0c0.377,0.016,0.52,0.136,0.522,0.501c0.009,1.02-0.003,2.039,0.008,3.059
		c0.002,0.231-0.071,0.307-0.296,0.289c-0.202-0.016-0.408-0.003-0.611-0.003c-5.359,0-10.719,0-16.079,0
		c-0.204,0-0.408,0.009-0.612-0.002c-0.191-0.011-0.244,0.071-0.241,0.252c0.008,0.699,0.014,1.398-0.003,2.098
		c-0.006,0.249,0.099,0.29,0.307,0.277c0.204-0.012,0.408-0.003,0.612-0.003c5.185,0,10.37,0,15.555,0
		c0.204,0,0.408,0.009,0.611-0.002c0.202-0.011,0.232,0.09,0.23,0.263c-0.006,1.049-0.006,2.098,0,3.146
		c0.001,0.169-0.022,0.276-0.227,0.267c-0.232-0.011-0.466-0.002-0.699-0.002c-5.156,0-10.312,0-15.467,0
		c-0.204,0-0.408,0.008-0.611-0.002c-0.202-0.011-0.321,0.018-0.31,0.274c0.036,0.835,0.05,1.67,0.073,2.505
		c0.784,0.007,1.567,0.019,2.351,0.019c4.981,0.001,9.962,0,14.943,0.001c0.466,0,0.474-0.096,0.471,0.456
		c-0.006,1.048-0.005,2.097,0.001,3.146c0.001,0.187-0.061,0.257-0.248,0.247c-0.203-0.012-0.408-0.003-0.611-0.003
		C-214.989-65.64-218.455-65.64-221.921-65.64z"/>
	<path class="st5" d="M-279.898-65.64c-3.554,0-7.107,0-10.661-0.001c-0.513,0-0.518-0.004-0.518-0.492
		c-0.001-5.185-0.002-10.37,0-15.555c0-0.706,0.026-0.732,0.73-0.732c3.437-0.002,6.875-0.001,10.312-0.001
		c3.496,0,6.991,0,10.486,0c0.204,0,0.408,0.009,0.611-0.002c0.194-0.011,0.24,0.075,0.239,0.255
		c-0.006,1.107-0.011,2.214,0.003,3.321c0.002,0.253-0.106,0.287-0.31,0.275c-0.204-0.011-0.408-0.002-0.612-0.002
		c-5.272,0-10.544,0-15.817,0c-0.233,0-0.466,0.008-0.699-0.002c-0.204-0.01-0.23,0.094-0.229,0.266
		c0.007,0.699,0.007,1.398,0,2.097c-0.002,0.172,0.027,0.275,0.229,0.264c0.204-0.011,0.408-0.002,0.611-0.002
		c5.127,0,10.254,0,15.38,0c0.175,0,0.35-0.005,0.524,0.001c0.435,0.015,0.556,0.125,0.562,0.55
		c0.009,0.641,0.005,1.282,0.002,1.922c-0.002,0.376-0.011,0.752-0.018,1.128c-0.398,0.023-0.796,0.066-1.194,0.066
		c-5.068,0.005-10.137,0.003-15.205,0.003c-0.233,0-0.468-0.017-0.698,0.009c-0.07,0.008-0.138,0.125-0.186,0.205
		c-0.026,0.042-0.005,0.114-0.005,0.172c0.009,0.783,0.017,1.566,0.026,2.349c0.778,0.021,1.556,0.059,2.334,0.059
		c4.922,0.005,9.845,0.002,14.768,0.003c0.522,0,0.526,0.003,0.527,0.483c0.003,0.961,0.003,1.923,0,2.884
		c-0.001,0.472-0.005,0.477-0.446,0.477c-1.282,0.002-2.563,0.001-3.845,0.001C-275.296-65.64-277.598-65.64-279.898-65.64z"/>
	<path class="st5" d="M-279.625-43.486c-3.466,0-6.933,0-10.399,0c-0.204,0-0.41,0.017-0.611-0.009
		c-0.077-0.01-0.191-0.111-0.201-0.184c-0.028-0.2-0.01-0.406-0.01-0.61c0-5.01,0-10.021,0-15.031c0-0.175-0.009-0.35,0.002-0.524
		c0.017-0.261,0.161-0.411,0.426-0.423c0.146-0.008,0.291-0.001,0.437-0.001c6.961,0,13.923,0,20.885,0
		c0.146,0,0.297-0.023,0.435,0.01c0.075,0.018,0.182,0.131,0.183,0.203c0.011,1.135,0.004,2.272,0.011,3.407
		c0.001,0.203-0.093,0.238-0.266,0.229c-0.204-0.012-0.408-0.003-0.612-0.003c-5.302,0-10.603,0-15.904,0
		c-0.204,0-0.408,0.008-0.611-0.002c-0.168-0.008-0.271,0.02-0.269,0.225c0.008,0.729,0.007,1.457,0,2.185
		c-0.002,0.212,0.116,0.223,0.276,0.217c0.204-0.007,0.408-0.002,0.611-0.002c5.126,0,10.253,0,15.38,0
		c0.204,0,0.408-0.005,0.611,0.002c0.269,0.008,0.424,0.163,0.426,0.421c0.01,1.02,0.008,2.039-0.004,3.059
		c-0.001,0.064-0.127,0.173-0.204,0.181c-0.23,0.024-0.464,0.009-0.698,0.009c-5.185,0-10.37,0-15.555,0
		c-0.204,0-0.409,0.008-0.612-0.002c-0.198-0.011-0.235,0.084-0.233,0.26c0.007,0.757,0.015,1.515-0.003,2.272
		c-0.006,0.264,0.121,0.271,0.315,0.269c0.524-0.006,1.049-0.002,1.573-0.002c4.981,0,9.962,0,14.943,0
		c0.204,0,0.41-0.017,0.611,0.008c0.079,0.01,0.15,0.11,0.218,0.175c0.015,0.014,0.002,0.056,0.002,0.085
		c-0.022,1.185-0.044,2.37-0.066,3.555c-1.104,0.007-2.208,0.019-3.312,0.021C-274.439-43.484-277.032-43.486-279.625-43.486z"/>
	<path class="st5" d="M-221.813-60.443c0.741,0,1.239,0.037,1.73-0.007c1.211-0.11,2.394,0.201,3.599,0.205
		c0.34,0.001,0.691,0.188,1.063,0.155c0.396-0.035,0.734,0.243,1.153,0.188c0.349-0.046,0.705,0.125,1.056,0.189
		c0.765,0.137,1.503,0.432,2.248,0.676c0.076,0.025,0.173,0.14,0.174,0.215c0.01,1.194,0.01,2.388,0.004,3.583
		c0,0.255-0.127,0.269-0.33,0.15c-0.735-0.432-1.567-0.593-2.377-0.794c-0.396-0.098-0.797-0.181-1.179-0.324
		c-0.368-0.137-0.75-0.014-1.149-0.18c-0.497-0.206-1.115-0.097-1.657-0.223c-0.819-0.19-1.668-0.026-2.458-0.195
		c-0.92-0.198-1.823-0.103-2.731-0.129c-0.469-0.013-0.941,0.127-1.414,0.156c-0.494,0.029-0.999-0.05-1.483,0.021
		c-0.56,0.083-1.118,0.239-1.651,0.436c-0.596,0.22-0.746,0.49-0.7,0.997c0.043,0.479,0.367,0.895,0.846,0.991
		c0.464,0.094,0.938,0.147,1.412,0.178c0.908,0.06,1.803,0.244,2.724,0.191c0.9-0.052,1.83-0.14,2.703,0.021
		c1.093,0.202,2.172,0.069,3.254,0.147c0.356,0.026,0.708,0.115,1.063,0.168s0.75-0.13,1.063,0.176
		c0.463-0.1,0.885,0.108,1.326,0.177c0.898,0.14,2.055,0.5,2.821,1.208c0.764,0.705,0.868,0.978,1.166,2.042
		c0.168,0.601,0.177,1.186,0.131,1.768c-0.046,0.593-0.147,1.223-0.408,1.744c-0.243,0.484-0.477,1.063-1.073,1.291
		c-0.505,0.701-1.353,0.815-2.058,1.152c-0.504,0.241-1.103,0.299-1.666,0.403c-1.569,0.287-3.151,0.414-4.748,0.363
		c-0.294-0.01-0.59,0.128-0.89,0.159c-0.288,0.029-0.583,0.024-0.873,0.002c-0.617-0.046-1.232-0.135-1.85-0.165
		c-0.611-0.029-1.244,0.09-1.83-0.033c-0.594-0.125-1.202-0.035-1.762-0.173c-0.828-0.204-1.706-0.112-2.504-0.485
		c-0.26-0.122-0.629,0.089-0.882-0.189c-0.516,0.042-0.97-0.265-1.433-0.306c-0.499-0.044-0.836-0.455-1.338-0.414
		c-0.077,0.006-0.25-0.252-0.253-0.392c-0.021-1.136-0.012-2.271-0.011-3.408c0-0.297,0.25-0.233,0.37-0.189
		c0.303,0.11,0.608,0.239,0.896,0.366c0.731,0.325,1.515,0.417,2.263,0.653c0.778,0.244,1.602,0.386,2.404,0.501
		c0.575,0.083,1.159,0.229,1.757,0.227c0.354-0.001,0.708,0.129,1.063,0.158c0.376,0.029,0.792-0.091,1.129,0.026
		c0.82,0.284,1.647,0.112,2.468,0.147c0.814,0.035,1.646,0.103,2.442-0.02c0.739-0.114,1.472-0.089,2.203-0.163
		c0.56-0.057,1.121-0.237,1.614-0.518c0.583-0.331,0.588-1.386,0.01-1.716c-0.32-0.185-0.702-0.324-1.068-0.359
		c-1.195-0.114-2.391-0.277-3.597-0.186c-0.802,0.061-1.564-0.261-2.376-0.192c-0.78,0.067-1.589,0.116-2.353-0.017
		c-0.625-0.108-1.234-0.138-1.856-0.139c-0.368,0-0.683-0.293-1.062-0.178c-0.387,0.117-0.703-0.151-1.063-0.183
		c-0.357-0.031-0.735-0.048-1.059-0.182c-0.772-0.319-1.617-0.458-2.271-1.087c-0.294-0.281-0.674-0.487-0.823-0.881
		c-0.142-0.377-0.348-0.715-0.416-1.145c-0.217-1.372-0.232-2.206,0.209-3.365c0.143-0.375,0.352-0.769,0.639-1.037
		c0.54-0.504,1.093-0.972,1.837-1.247c0.829-0.305,1.668-0.481,2.514-0.69c0.479-0.119,0.96-0.059,1.415-0.166
		C-224.322-60.605-222.939-60.338-221.813-60.443z"/>
	<path class="st5" d="M-308.381-82.596c0.826,0,1.412,0.042,1.99-0.009c1.124-0.099,2.235,0.104,3.331,0.229
		c1.129,0.129,2.312,0.165,3.385,0.654c0.683-0.027,1.266,0.294,1.888,0.499c0.282,0.093,0.434,0.083,0.425,0.439
		c-0.026,1.106-0.007,2.213-0.011,3.32c-0.001,0.312-0.063,0.352-0.339,0.205c-0.75-0.398-1.578-0.557-2.381-0.79
		c-0.761-0.22-1.555-0.284-2.321-0.506c-0.558-0.162-1.17-0.13-1.756-0.197c-0.414-0.047-0.824-0.137-1.239-0.167
		c-0.405-0.029-0.848,0.095-1.216-0.026c-0.995-0.328-1.999-0.059-2.992-0.155c-0.774,0.293-1.59,0.076-2.371,0.196
		c-0.563,0.086-1.148,0.103-1.696,0.322c-0.484,0.193-0.805,0.521-0.817,0.943c-0.02,0.644,0.298,1.016,0.943,1.167
		c0.525,0.123,1.065,0.106,1.586,0.189c1.722,0.273,3.46,0,5.168,0.194c1.003,0.113,1.995,0.072,2.989,0.142
		c0.415,0.029,0.825,0.116,1.239,0.169c0.385,0.049,0.78-0.088,1.162,0.158c0.165,0.106,0.458-0.004,0.687,0.025
		c0.185,0.023,0.356,0.131,0.541,0.164c1.209,0.222,2.347,0.589,3.209,1.534c0.521,0.57,0.765,1.254,0.834,2.014
		c0.022,0.245-0.109,0.522,0.148,0.729c0.033,0.026,0.018,0.181-0.026,0.224c-0.257,0.248-0.115,0.553-0.118,0.824
		c-0.01,0.936-0.361,1.702-0.98,2.397c-0.754,0.846-1.731,1.247-2.773,1.542c-0.581,0.165-1.169,0.289-1.771,0.385
		c-0.708,0.114-1.421,0.235-2.133,0.303c-0.722,0.069-1.458-0.028-2.182,0.029c-0.587,0.046-1.163,0.221-1.763,0.162
		c-0.645-0.063-1.291-0.14-1.938-0.169c-0.639-0.029-1.298,0.083-1.916-0.035c-0.477-0.09-0.943-0.113-1.418-0.154
		c-0.472-0.04-0.955-0.104-1.407-0.199c-0.747-0.157-1.507-0.259-2.252-0.439c-0.741-0.18-1.475-0.39-2.21-0.586
		c-0.609-0.163-0.687-0.313-0.688-0.959c-0.002-0.99,0.003-1.98-0.003-2.971c-0.001-0.239,0.077-0.31,0.305-0.218
		c1.137,0.454,2.316,0.753,3.507,1.036c0.446,0.106,0.909,0.146,1.354,0.303c0.437,0.154,0.964,0.057,1.398,0.216
		c0.531,0.195,1.104,0.002,1.576,0.2c0.551,0.232,1.086,0.009,1.605,0.134c1.395,0.336,2.807,0.104,4.21,0.165
		c0.969,0.042,1.92-0.299,2.897-0.17c0.483-0.268,1.08-0.095,1.56-0.466c0.415-0.321,0.697-0.634,0.644-1.038
		c-0.064-0.491-0.394-0.797-0.818-0.928c-0.42-0.129-0.883-0.11-1.32-0.194c-1.222-0.235-2.473-0.036-3.679-0.211
		c-0.949-0.138-1.881-0.129-2.816-0.118c-1.12,0.014-2.213-0.322-3.335-0.191c-0.626-0.254-1.309-0.178-1.955-0.339
		c-0.632-0.158-1.271-0.292-1.875-0.538c-0.841-0.343-1.671-0.698-2.135-1.574c-0.208-0.393-0.592-1.374-0.595-1.764
		c-0.002-0.32,0.021-0.643-0.005-0.961c-0.057-0.686,0.143-1.329,0.369-1.947c0.246-0.673,0.761-1.19,1.331-1.609
		c0.804-0.591,1.717-0.851,2.789-1.073c0.794-0.165,1.604-0.218,2.385-0.371C-310.823-82.722-309.479-82.464-308.381-82.596z"/>
	<path class="st5" d="M-307.932-60.443c0.466,0,0.936,0.035,1.397-0.007c1.239-0.112,2.47,0.077,3.68,0.225
		c1.13,0.138,2.315,0.153,3.386,0.656c0.776-0.08,1.414,0.406,2.141,0.533c0.073,0.013,0.181,0.133,0.182,0.204
		c0.011,1.223,0.011,2.446-0.003,3.669c0,0.047-0.216,0.153-0.243,0.13c-0.432-0.376-1.007-0.39-1.501-0.603
		c-0.473-0.203-1.005-0.192-1.49-0.413c-0.277-0.126-0.65-0.132-0.969-0.17c-0.915-0.108-1.81-0.327-2.731-0.413
		c-0.735-0.068-1.493-0.013-2.195-0.171c-0.803-0.181-1.589-0.129-2.381-0.133c-1.083-0.004-2.156,0.269-3.248,0.165
		c-0.495,0.295-1.092,0.088-1.607,0.34c-0.382,0.186-0.741,0.555-0.755,0.918c-0.026,0.655,0.271,1.056,0.918,1.185
		c0.522,0.104,1.062,0.124,1.583,0.202c1.723,0.259,3.462-0.01,5.168,0.189c1.062,0.124,2.113,0.059,3.164,0.145
		c0.384,0.031,0.745,0.212,1.152,0.175c0.388-0.035,0.775,0.089,1.153,0.132c0.857,0.097,1.685,0.268,2.486,0.562
		c1.52,0.56,2.114,1.048,2.679,2.66c0.045,0.129,0.032,0.277,0.051,0.416c0.048,0.352,0.236,0.762,0.115,1.038
		c-0.167,0.382-0.098,0.731-0.106,1.089c-0.017,0.658-0.252,1.271-0.623,1.747c-0.654,0.84-1.475,1.529-2.565,1.786
		c-0.798,0.188-1.55,0.588-2.404,0.524c-0.353,0.26-0.785,0.083-1.144,0.196c-0.36,0.113-0.706,0.155-1.07,0.154
		c-0.408-0.001-0.817-0.018-1.223,0.004c-0.85,0.045-1.699,0.151-2.549,0.158c-0.645,0.005-1.29-0.126-1.937-0.156
		c-0.639-0.029-1.298,0.083-1.917-0.034c-0.505-0.095-1.008-0.085-1.503-0.163c-0.472-0.074-0.958-0.091-1.408-0.193
		c-0.391-0.089-0.867,0.013-1.134-0.175c-0.349-0.247-0.711-0.023-1.05-0.248c-0.295-0.196-0.748-0.14-1.114-0.249
		c-0.49-0.146-0.962-0.348-1.446-0.515c-0.248-0.085-0.355-0.235-0.352-0.506c0.01-1.106,0.004-2.213,0.004-3.32
		c0-0.213,0.136-0.242,0.281-0.173c1.232,0.591,2.6,0.74,3.872,1.199c0.819-0.037,1.569,0.397,2.389,0.35
		c0.516,0.315,1.124,0.042,1.646,0.245c0.537,0.208,1.091-0.007,1.614,0.113c1.513,0.349,3.041,0.092,4.561,0.154
		c0.41,0.017,0.823-0.129,1.238-0.157c0.435-0.029,0.914,0.105,1.3-0.034c0.509-0.184,1.134-0.017,1.541-0.496
		c0.344,0.021,0.347-0.29,0.496-0.474c0.154-0.192,0.147-0.392,0.106-0.565c-0.106-0.452-0.412-0.807-0.865-0.867
		c-0.47-0.062-0.944-0.151-1.405-0.227c-1.174-0.191-2.365,0.019-3.509-0.176c-1.21-0.206-2.406-0.046-3.602-0.146
		c-0.878-0.073-1.749-0.244-2.637-0.169c-0.325-0.236-0.701-0.182-1.063-0.171c-0.342,0.01-0.648-0.146-0.971-0.208
		c-1.144-0.218-2.274-0.552-3.219-1.275c-0.464-0.356-0.755-0.854-0.957-1.434c-0.177-0.51-0.354-1.001-0.285-1.537
		c0.068-0.528-0.211-1.095,0.168-1.588c-0.017-0.776,0.369-1.369,0.869-1.912c0.692-0.753,1.559-1.205,2.527-1.495
		c0.293-0.088,0.569-0.199,0.891-0.18c0.271,0.017,0.526-0.132,0.796-0.187c0.908-0.183,1.828-0.25,2.744-0.313
		C-309.857-60.495-308.893-60.443-307.932-60.443z"/>
	<path class="st5" d="M-179.549-74.017c0,2.651,0,5.302-0.001,7.953c0,0.417-0.006,0.423-0.412,0.423
		c-2.04,0.002-4.079-0.006-6.118,0.009c-0.293,0.002-0.474-0.109-0.669-0.297c-1.144-1.099-2.25-2.243-3.462-3.261
		c-0.931-0.782-1.706-1.72-2.645-2.474c-0.927-0.744-1.668-1.676-2.584-2.412c-0.949-0.763-1.716-1.708-2.647-2.472
		c-0.736-0.604-1.394-1.279-2.083-1.926c-0.065-0.061-0.195-0.069-0.294-0.066c-0.022,0-0.06,0.146-0.06,0.225
		c-0.003,1.603-0.002,3.205-0.002,4.808c0,2.505-0.003,5.011,0.004,7.516c0.001,0.241-0.024,0.361-0.317,0.358
		c-1.311-0.017-2.622-0.01-3.933-0.004c-0.209,0.001-0.331-0.032-0.303-0.28c0.02-0.172,0.004-0.349,0.004-0.524
		c0-5.011,0-10.022,0-15.033c0-0.175-0.01-0.35,0.002-0.524c0.017-0.261,0.159-0.417,0.426-0.422
		c0.379-0.008,0.757-0.002,1.136-0.002c1.69,0,3.379,0.009,5.069-0.006c0.426-0.004,0.752,0.145,1.049,0.431
		c1.476,1.425,2.917,2.89,4.452,4.249c0.95,0.842,1.794,1.796,2.771,2.593c0.897,0.733,1.625,1.635,2.519,2.354
		c0.924,0.744,1.719,1.613,2.577,2.42c0.243,0.229,0.525,0.416,0.79,0.621c0.038,0.029,0.082,0.049,0.123,0.073
		c0.021-0.05,0.058-0.099,0.059-0.149c0.006-0.233,0.003-0.466,0.003-0.699c0-3.816,0-7.633,0.001-11.449
		c0-0.43,0.004-0.436,0.398-0.437c1.224-0.003,2.448-0.003,3.671,0c0.468,0.001,0.473,0.005,0.473,0.45
		c0.002,2.36,0.001,4.72,0.001,7.079C-179.549-74.6-179.549-74.309-179.549-74.017z"/>
	<path class="st5" d="M-250.319-60.268c0.902,0,1.805,0.018,2.707-0.01c0.333-0.011,0.554,0.115,0.727,0.358
		c0.561,0.785,1.112,1.577,1.669,2.364c0.575,0.811,1.151,1.62,1.729,2.428c0.884,1.235,1.764,2.473,2.655,3.702
		c1.071,1.477,2.094,2.988,3.202,4.439c0.735,0.963,1.407,1.976,2.103,2.969c0.06,0.086,0.068,0.209,0.13,0.293
		c0.083,0.112,0.243,0.233-0.049,0.234c-1.717,0.006-3.434,0-5.151,0.006c-0.182,0-0.183-0.112-0.265-0.232
		c-0.646-0.956-1.375-1.855-1.954-2.86c-0.068-0.119-0.271-0.169-0.422-0.228c-0.075-0.029-0.172-0.005-0.26-0.005
		c-4.599,0-9.197,0.003-13.796-0.007c-0.312-0.001-0.457,0.109-0.63,0.368c-0.632,0.939-1.33,1.835-1.962,2.774
		c-0.102,0.15-0.167,0.186-0.307,0.186c-1.572,0-3.144,0.002-4.715-0.002c-0.251,0-0.315-0.099-0.181-0.31
		c0.251-0.394,0.526-0.773,0.798-1.155c0.594-0.831,1.189-1.662,1.79-2.489c1.072-1.477,2.1-2.984,3.2-4.441
		c0.777-1.03,1.451-2.136,2.2-3.188c0.69-0.972,1.426-1.911,2.127-2.875c0.469-0.646,0.938-1.294,1.351-1.975
		c0.16-0.264,0.318-0.352,0.598-0.35C-252.124-60.263-251.222-60.268-250.319-60.268z M-250.373-50.304c0.146,0,0.291,0,0.436,0
		c1.367,0,2.733-0.002,4.1,0.001c0.24,0,0.335-0.029,0.116-0.25c-0.09-0.091-0.109-0.25-0.192-0.353
		c-0.683-0.837-1.215-1.779-1.888-2.628c-0.744-0.938-1.324-2.006-2-3c-0.15-0.221-0.403-0.372-0.609-0.555
		c-0.144,0.202-0.276,0.414-0.435,0.604c-0.149,0.178-0.37,0.306-0.483,0.5c-0.791,1.357-1.769,2.582-2.66,3.869
		c-0.33,0.477-0.691,0.933-1.017,1.412c-0.227,0.332-0.187,0.397,0.184,0.397C-253.338-50.303-251.855-50.304-250.373-50.304z"/>
	<path class="st5" d="M-251.101-65.64c-0.786,0-1.574-0.033-2.357,0.014c-0.407,0.024-0.679-0.133-0.875-0.423
		c-0.781-1.158-1.479-2.376-2.325-3.483c-0.907-1.187-1.69-2.452-2.546-3.67c-0.978-1.391-1.926-2.805-2.885-4.209
		c-0.962-1.41-1.954-2.804-2.928-4.209c-0.109-0.157-0.217-0.316-0.307-0.484c-0.123-0.228-0.076-0.314,0.175-0.315
		c1.659-0.004,3.318,0.01,4.977-0.012c0.318-0.004,0.503,0.156,0.635,0.362c0.861,1.344,1.851,2.602,2.706,3.945
		c0.955,1.5,1.969,2.961,2.924,4.46c0.869,1.363,1.791,2.693,2.678,4.045c0.109,0.167,0.197,0.182,0.329,0.068
		c0.11-0.094,0.228-0.19,0.307-0.309c0.668-1.002,1.323-2.015,1.993-3.016c0.978-1.459,1.966-2.912,2.948-4.368
		c0.999-1.479,2.019-2.943,2.981-4.445c0.325-0.508,0.666-0.762,1.289-0.746c1.454,0.039,2.911,0.011,4.366,0.017
		c0.101,0,0.201,0.062,0.302,0.095c-0.044,0.098-0.074,0.206-0.134,0.293c-0.834,1.226-1.662,2.457-2.513,3.668
		c-0.745,1.061-1.473,2.137-2.229,3.191c-0.975,1.359-1.82,2.816-2.836,4.143c-0.825,1.078-1.459,2.284-2.347,3.319
		c-0.441,0.514-0.787,1.119-1.116,1.717c-0.151,0.274-0.313,0.357-0.594,0.354C-249.354-65.645-250.228-65.64-251.101-65.64z"/>
	<path class="st0" d="M-250.373-50.304c-1.483,0-2.966,0.001-4.449-0.001c-0.371,0-0.41-0.066-0.184-0.397
		c0.326-0.479,0.687-0.936,1.017-1.412c0.891-1.287,1.869-2.512,2.66-3.869c0.113-0.194,0.334-0.323,0.483-0.5
		c0.159-0.189,0.291-0.401,0.435-0.604c0.206,0.183,0.458,0.334,0.609,0.555c0.677,0.994,1.257,2.062,2,3
		c0.673,0.849,1.205,1.792,1.888,2.628c0.083,0.102,0.102,0.261,0.192,0.353c0.22,0.22,0.124,0.25-0.116,0.25
		c-1.367-0.003-2.733-0.001-4.1-0.001C-250.082-50.304-250.227-50.304-250.373-50.304z"/>
	<path class="st9" d="M-153.136-84.042H-457.5V151.25h497c0,0-89.383-42.735-69.349-97.535c0,0,23.887-57.314-35.445-73.403
		C-65.294-19.688-150.246-42.187-153.136-84.042z"/>
</g>
<g id="Layer_1" class="st12">
	<g class="st6">
		<linearGradient id="SVGID_3_" gradientUnits="userSpaceOnUse" x1="-250.5688" y1="16.6094" x2="-222.0684" y2="16.6094">
			<stop  offset="0" style="stop-color:#10A4DE"/>
			<stop  offset="0.0827" style="stop-color:#1E94C6"/>
			<stop  offset="0.1826" style="stop-color:#2B86AF"/>
			<stop  offset="0.2777" style="stop-color:#327DA2"/>
			<stop  offset="0.3623" style="stop-color:#357A9D"/>
			<stop  offset="0.9952" style="stop-color:#CCEAF1"/>
		</linearGradient>
		<path class="st34" d="M-236.294,27.208c-4.563,0-9.127-0.001-13.69,0.001c-0.67,0.001-0.581,0.024-0.581-0.589
			c0-6.587-0.001-13.175,0.002-19.762c0.001-0.763,0.095-0.85,0.887-0.85c8.905-0.003,17.811-0.001,26.716-0.001
			c0.073,0,0.148-0.003,0.221,0c0.478,0.021,0.656,0.172,0.66,0.633c0.011,1.288-0.004,2.576,0.011,3.864
			c0.003,0.292-0.09,0.389-0.374,0.365c-0.255-0.021-0.515-0.004-0.772-0.004c-6.771,0-13.542,0-20.313,0
			c-0.258,0-0.516,0.01-0.772-0.003c-0.242-0.014-0.308,0.089-0.305,0.319c0.01,0.883,0.019,1.766-0.004,2.649
			c-0.007,0.315,0.126,0.366,0.388,0.351c0.257-0.016,0.516-0.004,0.773-0.004c6.55,0,13.101,0,19.651,0
			c0.257,0,0.515,0.011,0.772-0.002c0.254-0.014,0.292,0.114,0.291,0.333c-0.007,1.325-0.007,2.65,0,3.976
			c0,0.213-0.028,0.348-0.286,0.336c-0.294-0.014-0.589-0.004-0.883-0.004c-6.514,0-13.027,0-19.541,0
			c-0.258,0-0.517,0.011-0.771-0.003c-0.256-0.014-0.407,0.022-0.393,0.346c0.046,1.054,0.064,2.111,0.092,3.166
			c0.99,0.008,1.981,0.024,2.97,0.024c6.292,0.001,12.586,0.001,18.878,0.001c0.588,0,0.598-0.121,0.594,0.577
			c-0.007,1.324-0.006,2.65,0.001,3.974c0.002,0.236-0.076,0.324-0.312,0.312c-0.256-0.015-0.515-0.004-0.773-0.004
			C-227.536,27.208-231.916,27.208-236.294,27.208z"/>
		<linearGradient id="SVGID_4_" gradientUnits="userSpaceOnUse" x1="-370.3667" y1="34.8706" x2="-293.8843" y2="34.8706">
			<stop  offset="0" style="stop-color:#10A4DE"/>
			<stop  offset="0.0827" style="stop-color:#1E94C6"/>
			<stop  offset="0.1826" style="stop-color:#2B86AF"/>
			<stop  offset="0.2777" style="stop-color:#327DA2"/>
			<stop  offset="0.3623" style="stop-color:#357A9D"/>
			<stop  offset="0.9952" style="stop-color:#CCEAF1"/>
		</linearGradient>
		<path class="st35" d="M-332.162,63.548c-12.144,0-24.287,0.002-36.431-0.001c-1.752-0.001-1.77-0.015-1.771-1.685
			c-0.004-17.717-0.005-35.436,0.001-53.152c0-2.414,0.089-2.502,2.493-2.504c11.745-0.008,23.492-0.002,35.237-0.002
			c11.944,0,23.888,0,35.833,0c0.698,0,1.396,0.029,2.09-0.01c0.662-0.034,0.82,0.258,0.816,0.873
			c-0.022,3.783-0.04,7.563,0.009,11.346c0.011,0.866-0.36,0.981-1.057,0.94c-0.693-0.039-1.393-0.008-2.089-0.008
			c-18.016,0-36.032,0-54.049,0c-0.796,0-1.594,0.029-2.388-0.008c-0.695-0.033-0.787,0.322-0.78,0.907
			c0.025,2.388,0.025,4.779,0,7.166c-0.007,0.591,0.092,0.941,0.784,0.904c0.695-0.038,1.394-0.009,2.09-0.009
			c17.518,0,35.037,0,52.555,0c0.598,0,1.195-0.017,1.792,0.004c1.488,0.05,1.9,0.427,1.92,1.877
			c0.031,2.19,0.015,4.382,0.004,6.571c-0.005,1.285-0.039,2.57-0.059,3.855c-1.361,0.078-2.722,0.227-4.082,0.228
			c-17.32,0.015-34.64,0.01-51.958,0.01c-0.796,0-1.599-0.056-2.386,0.032c-0.239,0.027-0.473,0.426-0.634,0.699
			c-0.087,0.148-0.018,0.389-0.016,0.587c0.029,2.677,0.058,5.352,0.088,8.028c2.657,0.068,5.316,0.197,7.974,0.2
			c16.821,0.019,33.644,0.009,50.465,0.013c1.783,0,1.796,0.013,1.802,1.651c0.01,3.286,0.01,6.57,0,9.856
			c-0.005,1.611-0.019,1.627-1.526,1.629c-4.379,0.008-8.759,0.002-13.138,0.002C-316.436,63.548-324.299,63.548-332.162,63.548z"/>
		<linearGradient id="SVGID_5_" gradientUnits="userSpaceOnUse" x1="-227.0938" y1="47.0674" x2="-180.0488" y2="47.0674">
			<stop  offset="0" style="stop-color:#10A4DE"/>
			<stop  offset="0.0827" style="stop-color:#1E94C6"/>
			<stop  offset="0.1826" style="stop-color:#2B86AF"/>
			<stop  offset="0.2777" style="stop-color:#327DA2"/>
			<stop  offset="0.3623" style="stop-color:#357A9D"/>
			<stop  offset="0.9952" style="stop-color:#CCEAF1"/>
		</linearGradient>
		<path class="st36" d="M-204.829,29.839c1.477,0,2.471,0.073,3.449-0.015c2.413-0.218,4.771,0.4,7.172,0.408
			c0.677,0.002,1.377,0.374,2.12,0.309c0.788-0.069,1.461,0.484,2.297,0.374c0.696-0.091,1.406,0.251,2.106,0.377
			c1.525,0.273,2.995,0.861,4.478,1.348c0.151,0.048,0.346,0.28,0.347,0.427c0.021,2.38,0.021,4.76,0.011,7.14
			c-0.002,0.509-0.255,0.536-0.658,0.3c-1.465-0.859-3.123-1.182-4.738-1.582c-0.789-0.195-1.588-0.36-2.35-0.645
			c-0.734-0.273-1.495-0.028-2.29-0.358c-0.991-0.409-2.223-0.193-3.304-0.444c-1.632-0.379-3.325-0.053-4.897-0.389
			c-1.836-0.395-3.635-0.205-5.444-0.256c-0.936-0.027-1.875,0.254-2.818,0.309c-0.982,0.059-1.989-0.1-2.955,0.043
			c-1.117,0.165-2.229,0.477-3.29,0.869c-1.188,0.438-1.485,0.977-1.394,1.987c0.085,0.955,0.73,1.784,1.686,1.976
			c0.925,0.186,1.871,0.293,2.814,0.354c1.81,0.121,3.593,0.488,5.429,0.381c1.794-0.102,3.646-0.278,5.387,0.043
			c2.178,0.401,4.33,0.137,6.486,0.293c0.71,0.053,1.412,0.23,2.12,0.337c0.708,0.106,1.494-0.259,2.12,0.351
			c0.922-0.198,1.764,0.217,2.641,0.353c1.79,0.278,4.096,0.998,5.623,2.407c1.522,1.406,1.729,1.948,2.322,4.07
			c0.335,1.197,0.354,2.364,0.263,3.525c-0.092,1.182-0.293,2.436-0.815,3.475c-0.484,0.965-0.949,2.121-2.138,2.572
			c-1.007,1.396-2.696,1.624-4.102,2.297c-1.006,0.48-2.199,0.598-3.32,0.803c-3.126,0.572-6.28,0.824-9.463,0.723
			c-0.587-0.018-1.176,0.258-1.772,0.316c-0.576,0.059-1.163,0.049-1.74,0.006c-1.231-0.091-2.456-0.27-3.688-0.328
			c-1.215-0.059-2.478,0.18-3.645-0.066c-1.186-0.25-2.396-0.068-3.513-0.344c-1.65-0.408-3.399-0.225-4.992-0.967
			c-0.517-0.242-1.253,0.178-1.757-0.377c-1.026,0.082-1.933-0.528-2.854-0.61c-0.995-0.087-1.668-0.905-2.668-0.823
			c-0.152,0.012-0.499-0.504-0.504-0.781c-0.041-2.264-0.024-4.527-0.023-6.791c0-0.592,0.499-0.466,0.738-0.377
			c0.604,0.219,1.212,0.476,1.785,0.729c1.457,0.647,3.02,0.832,4.511,1.3c1.551,0.486,3.192,0.77,4.792,1
			c1.147,0.165,2.311,0.455,3.5,0.452c0.707-0.001,1.41,0.258,2.122,0.315c0.75,0.057,1.577-0.184,2.249,0.051
			c1.637,0.565,3.285,0.224,4.921,0.294c1.623,0.069,3.279,0.206,4.867-0.04c1.473-0.228,2.934-0.178,4.39-0.326
			c1.116-0.112,2.232-0.472,3.217-1.031c1.161-0.66,1.172-2.762,0.021-3.421c-0.64-0.367-1.399-0.646-2.129-0.716
			c-2.382-0.226-4.764-0.553-7.168-0.37c-1.597,0.122-3.117-0.52-4.734-0.381c-1.555,0.134-3.167,0.229-4.689-0.032
			c-1.245-0.217-2.461-0.277-3.699-0.278c-0.733,0-1.362-0.583-2.119-0.354c-0.77,0.233-1.399-0.301-2.119-0.363
			c-0.712-0.062-1.466-0.097-2.111-0.363c-1.539-0.636-3.222-0.913-4.525-2.165c-0.585-0.561-1.344-0.971-1.64-1.756
			c-0.283-0.752-0.693-1.426-0.829-2.281c-0.432-2.735-0.462-4.395,0.417-6.706c0.284-0.749,0.701-1.532,1.273-2.067
			c1.075-1.005,2.178-1.937,3.662-2.483c1.65-0.61,3.324-0.96,5.008-1.375c0.957-0.237,1.915-0.118,2.82-0.33
			C-209.829,29.515-207.074,30.047-204.829,29.839z"/>
		<linearGradient id="SVGID_6_" gradientUnits="userSpaceOnUse" x1="-455.3408" y1="35.1367" x2="-374.7065" y2="35.1367">
			<stop  offset="0" style="stop-color:#10A4DE"/>
			<stop  offset="0.0827" style="stop-color:#1E94C6"/>
			<stop  offset="0.1826" style="stop-color:#2B86AF"/>
			<stop  offset="0.2777" style="stop-color:#327DA2"/>
			<stop  offset="0.3623" style="stop-color:#357A9D"/>
			<stop  offset="0.9952" style="stop-color:#CCEAF1"/>
		</linearGradient>
		<path class="st37" d="M-417.089,5.604c2.823,0,4.825,0.146,6.801-0.029c3.841-0.339,7.639,0.356,11.381,0.783
			c3.858,0.44,7.898,0.563,11.567,2.233c2.333-0.091,4.326,1.003,6.452,1.706c0.963,0.317,1.482,0.284,1.454,1.499
			c-0.09,3.78-0.024,7.563-0.039,11.344c-0.005,1.07-0.219,1.204-1.161,0.703c-2.561-1.361-5.391-1.905-8.137-2.698
			c-2.601-0.751-5.315-0.97-7.933-1.731c-1.905-0.555-3.998-0.445-6.001-0.674c-1.415-0.162-2.815-0.468-4.234-0.57
			c-1.386-0.099-2.899,0.327-4.155-0.087c-3.4-1.121-6.832-0.201-10.225-0.531c-2.644,1.001-5.436,0.26-8.102,0.67
			c-1.926,0.296-3.922,0.349-5.795,1.098c-1.653,0.663-2.749,1.78-2.793,3.224c-0.068,2.199,1.02,3.469,3.222,3.985
			c1.795,0.421,3.64,0.365,5.42,0.646c5.885,0.934,11.824,0.001,17.661,0.662c3.428,0.389,6.817,0.247,10.215,0.485
			c1.418,0.101,2.819,0.396,4.232,0.578c1.316,0.168,2.664-0.3,3.971,0.542c0.563,0.361,1.562-0.017,2.347,0.083
			c0.629,0.082,1.218,0.446,1.847,0.563c4.133,0.757,8.021,2.012,10.968,5.237c1.777,1.949,2.614,4.287,2.849,6.883
			c0.075,0.837-0.371,1.787,0.509,2.49c0.113,0.09,0.062,0.621-0.089,0.766c-0.878,0.849-0.393,1.891-0.403,2.818
			c-0.034,3.197-1.234,5.814-3.351,8.19c-2.577,2.894-5.915,4.263-9.478,5.271c-1.986,0.562-3.996,0.986-6.052,1.316
			c-2.422,0.389-4.856,0.804-7.289,1.037c-2.465,0.234-4.982-0.097-7.456,0.097c-2.007,0.156-3.976,0.757-6.026,0.556
			c-2.205-0.217-4.409-0.48-6.62-0.581c-2.185-0.098-4.436,0.283-6.548-0.118c-1.629-0.312-3.224-0.389-4.845-0.525
			c-1.612-0.139-3.264-0.355-4.807-0.68c-2.552-0.535-5.149-0.884-7.696-1.502c-2.533-0.614-5.039-1.332-7.553-2.004
			c-2.083-0.555-2.347-1.07-2.35-3.277c-0.007-3.383,0.011-6.768-0.011-10.15c-0.004-0.815,0.264-1.059,1.042-0.748
			c3.886,1.555,7.917,2.574,11.984,3.54c1.524,0.361,3.106,0.497,4.626,1.036c1.494,0.527,3.231,0.42,4.777,0.74
			c1.868,0.385,3.682,0.284,5.385,0.686c1.94,0.453,3.71,0.028,5.487,0.458c4.765,1.147,9.593,0.354,14.386,0.563
			c3.231-0.124,6.648-0.391,9.902-0.584c1.649-0.914,3.69-0.323,5.329-1.592c1.419-1.098,2.381-2.168,2.199-3.549
			c-0.221-1.676-1.344-2.723-2.794-3.17c-1.435-0.44-3.018-0.377-4.51-0.663c-4.174-0.803-8.451-0.122-12.573-0.722
			c-3.242-0.471-6.427-0.443-9.624-0.401c-3.827,0.048-7.564-1.102-11.396-0.654c-2.139-0.869-4.472-0.608-6.679-1.159
			c-2.162-0.539-4.344-0.996-6.41-1.839c-2.874-1.173-5.709-2.384-7.295-5.379c-0.708-1.341-2.022-4.695-2.032-6.027
			c-0.009-1.096,0.074-2.196-0.018-3.282c-0.195-2.343,0.489-4.542,1.262-6.653c0.84-2.301,2.602-4.068,4.548-5.5
			c2.746-2.02,5.869-2.909,9.531-3.667c2.713-0.562,5.479-0.745,8.149-1.265C-425.433,5.175-420.84,6.057-417.089,5.604z"/>
		<linearGradient id="SVGID_7_" gradientUnits="userSpaceOnUse" x1="-215.0176" y1="16.6084" x2="-182.7622" y2="16.6084">
			<stop  offset="0" style="stop-color:#10A4DE"/>
			<stop  offset="0.0827" style="stop-color:#1E94C6"/>
			<stop  offset="0.1826" style="stop-color:#2B86AF"/>
			<stop  offset="0.2777" style="stop-color:#327DA2"/>
			<stop  offset="0.3623" style="stop-color:#357A9D"/>
			<stop  offset="0.9952" style="stop-color:#CCEAF1"/>
		</linearGradient>
		<path class="st38" d="M-182.762,16.625c0,3.348,0,6.698-0.003,10.048c0,0.525-0.007,0.534-0.52,0.534
			c-2.576,0.003-5.154-0.008-7.73,0.012c-0.37,0.002-0.598-0.138-0.846-0.375c-1.443-1.388-2.842-2.834-4.373-4.12
			c-1.176-0.987-2.156-2.174-3.342-3.125c-1.17-0.939-2.107-2.117-3.265-3.045c-1.198-0.964-2.168-2.157-3.344-3.123
			c-0.931-0.762-1.76-1.616-2.631-2.435c-0.083-0.076-0.247-0.087-0.371-0.083c-0.029,0-0.075,0.184-0.075,0.283
			c-0.005,2.026-0.004,4.05-0.004,6.074c0,3.166-0.002,6.332,0.005,9.497c0.001,0.305-0.031,0.456-0.401,0.452
			c-1.656-0.021-3.312-0.014-4.968-0.005c-0.265,0.001-0.418-0.041-0.383-0.353c0.024-0.219,0.004-0.441,0.004-0.663
			c0-6.33,0-12.66,0-18.991c0-0.22-0.012-0.442,0.004-0.663c0.021-0.329,0.201-0.525,0.539-0.532
			c0.478-0.011,0.957-0.003,1.435-0.003c2.136,0,4.27,0.011,6.405-0.008c0.538-0.005,0.949,0.183,1.324,0.545
			c1.865,1.799,3.687,3.652,5.625,5.369c1.201,1.062,2.267,2.268,3.501,3.276c1.134,0.925,2.055,2.065,3.182,2.974
			c1.167,0.94,2.171,2.039,3.257,3.058c0.307,0.288,0.663,0.525,0.997,0.785c0.048,0.036,0.104,0.061,0.155,0.091
			c0.026-0.062,0.073-0.125,0.075-0.189c0.008-0.293,0.004-0.588,0.004-0.883c0-4.821,0-9.643,0.001-14.464
			c0-0.543,0.005-0.55,0.503-0.551c1.546-0.004,3.092-0.004,4.638,0c0.592,0,0.598,0.007,0.598,0.568
			c0.003,2.981,0.003,5.962,0.003,8.943C-182.762,15.888-182.762,16.255-182.762,16.625z"/>
		<linearGradient id="SVGID_8_" gradientUnits="userSpaceOnUse" x1="-291.2148" y1="46.9033" x2="-231.6675" y2="46.9033">
			<stop  offset="0" style="stop-color:#10A4DE"/>
			<stop  offset="0.0827" style="stop-color:#1E94C6"/>
			<stop  offset="0.1826" style="stop-color:#2B86AF"/>
			<stop  offset="0.2777" style="stop-color:#327DA2"/>
			<stop  offset="0.3623" style="stop-color:#357A9D"/>
			<stop  offset="0.9952" style="stop-color:#CCEAF1"/>
		</linearGradient>
		<path class="st39" d="M-261.64,30.187c1.798,0,3.597,0.038,5.393-0.019c0.665-0.021,1.104,0.23,1.45,0.714
			c1.118,1.564,2.215,3.143,3.327,4.711c1.144,1.615,2.292,3.229,3.444,4.839c1.761,2.462,3.515,4.927,5.291,7.378
			c2.135,2.943,4.173,5.955,6.381,8.848c1.466,1.92,2.805,3.938,4.191,5.918c0.12,0.172,0.135,0.416,0.259,0.584
			c0.164,0.224,0.483,0.463-0.1,0.468c-3.422,0.013-6.845,0.001-10.268,0.013c-0.362,0-0.364-0.225-0.525-0.462
			c-1.288-1.906-2.74-3.698-3.894-5.7c-0.136-0.236-0.542-0.338-0.841-0.454c-0.15-0.06-0.344-0.011-0.519-0.011
			c-9.164,0-18.329,0.006-27.494-0.014c-0.621-0.001-0.91,0.218-1.255,0.734c-1.26,1.871-2.652,3.656-3.912,5.529
			c-0.202,0.299-0.331,0.369-0.612,0.369c-3.132,0-6.265,0.004-9.397-0.004c-0.5-0.001-0.627-0.197-0.359-0.617
			c0.5-0.787,1.049-1.543,1.591-2.303c1.185-1.656,2.372-3.311,3.566-4.959c2.137-2.943,4.186-5.947,6.378-8.852
			c1.548-2.053,2.893-4.257,4.384-6.354c1.376-1.936,2.843-3.809,4.239-5.73c0.934-1.288,1.87-2.579,2.693-3.935
			c0.318-0.525,0.635-0.703,1.192-0.697C-265.236,30.197-263.438,30.187-261.64,30.187z M-261.745,50.045c0.29,0,0.578,0,0.869,0
			c2.724,0,5.447-0.003,8.171,0.004c0.478,0,0.668-0.058,0.23-0.497c-0.18-0.183-0.218-0.5-0.384-0.704
			c-1.36-1.668-2.422-3.544-3.763-5.237c-1.483-1.871-2.639-3.998-3.987-5.978c-0.3-0.44-0.803-0.742-1.213-1.108
			c-0.287,0.404-0.55,0.826-0.867,1.204c-0.296,0.354-0.738,0.61-0.963,0.997c-1.574,2.705-3.524,5.146-5.3,7.71
			c-0.658,0.95-1.377,1.859-2.027,2.814c-0.45,0.661-0.372,0.792,0.366,0.794C-267.657,50.048-264.702,50.045-261.745,50.045z"/>
		<linearGradient id="SVGID_9_" gradientUnits="userSpaceOnUse" x1="-291.2095" y1="16.6084" x2="-254.9814" y2="16.6084">
			<stop  offset="0" style="stop-color:#10A4DE"/>
			<stop  offset="0.0827" style="stop-color:#1E94C6"/>
			<stop  offset="0.1826" style="stop-color:#2B86AF"/>
			<stop  offset="0.2777" style="stop-color:#327DA2"/>
			<stop  offset="0.3623" style="stop-color:#357A9D"/>
			<stop  offset="0.9952" style="stop-color:#CCEAF1"/>
		</linearGradient>
		<path class="st40" d="M-273.159,27.208c-0.993,0-1.989-0.042-2.978,0.016c-0.514,0.031-0.857-0.167-1.105-0.534
			c-0.986-1.462-1.869-3.002-2.937-4.4c-1.146-1.499-2.136-3.098-3.217-4.637c-1.235-1.758-2.434-3.544-3.645-5.317
			c-1.215-1.782-2.468-3.542-3.7-5.317c-0.137-0.198-0.273-0.4-0.388-0.613c-0.154-0.287-0.096-0.396,0.222-0.396
			c2.096-0.006,4.192,0.012,6.288-0.016c0.402-0.005,0.637,0.197,0.803,0.457c1.088,1.699,2.338,3.287,3.419,4.985
			c1.207,1.896,2.487,3.741,3.694,5.634c1.097,1.724,2.262,3.404,3.383,5.113c0.138,0.21,0.25,0.229,0.416,0.085
			c0.139-0.119,0.288-0.24,0.387-0.391c0.845-1.267,1.671-2.546,2.518-3.811c1.235-1.842,2.483-3.678,3.725-5.517
			c1.261-1.869,2.55-3.718,3.766-5.617c0.411-0.642,0.84-0.962,1.629-0.943c1.837,0.05,3.677,0.014,5.515,0.022
			c0.127,0,0.254,0.078,0.381,0.119c-0.056,0.123-0.093,0.261-0.169,0.372c-1.054,1.548-2.1,3.103-3.175,4.634
			c-0.941,1.339-1.86,2.699-2.816,4.031c-1.231,1.718-2.298,3.558-3.583,5.234c-1.043,1.362-1.843,2.886-2.965,4.193
			c-0.558,0.65-0.995,1.415-1.41,2.17c-0.191,0.347-0.396,0.45-0.751,0.448C-270.952,27.203-272.056,27.208-273.159,27.208z"/>
	</g>
</g>
<g id="Layer_2" class="st12">
	<g class="st6">
		<linearGradient id="SVGID_10_" gradientUnits="userSpaceOnUse" x1="-328.7148" y1="43.6636" x2="-296.062" y2="43.6636">
			<stop  offset="0" style="stop-color:#10A4DE"/>
			<stop  offset="0.0827" style="stop-color:#1E94C6"/>
			<stop  offset="0.1826" style="stop-color:#2B86AF"/>
			<stop  offset="0.2777" style="stop-color:#327DA2"/>
			<stop  offset="0.3623" style="stop-color:#357A9D"/>
			<stop  offset="0.9952" style="stop-color:#CCEAF1"/>
		</linearGradient>
		<path class="st13" d="M-312.34,55.904c-5.055,0-10.111,0-15.168,0c-0.297,0-0.598,0.025-0.891-0.013
			c-0.111-0.014-0.279-0.162-0.293-0.268c-0.041-0.292-0.014-0.592-0.014-0.89c0-7.308,0-14.616,0-21.922
			c0-0.255-0.014-0.511,0.002-0.765c0.025-0.381,0.234-0.598,0.621-0.617c0.213-0.011,0.426-0.002,0.639-0.002
			c10.154,0,20.309,0,30.463,0c0.211,0,0.432-0.035,0.633,0.013c0.109,0.026,0.266,0.192,0.266,0.296
			c0.018,1.656,0.008,3.313,0.018,4.97c0.002,0.296-0.137,0.348-0.387,0.333c-0.297-0.017-0.596-0.004-0.893-0.004
			c-7.732,0-15.465,0-23.197,0c-0.299,0-0.596,0.012-0.893-0.003c-0.246-0.013-0.395,0.028-0.393,0.328
			c0.012,1.062,0.012,2.125,0.002,3.186c-0.004,0.309,0.17,0.325,0.402,0.316c0.297-0.011,0.594-0.002,0.891-0.002
			c7.479,0,14.955,0,22.434,0c0.297,0,0.594-0.008,0.891,0.002c0.393,0.012,0.619,0.238,0.623,0.614
			c0.014,1.488,0.01,2.974-0.008,4.461c-0.002,0.093-0.186,0.252-0.297,0.264c-0.336,0.035-0.678,0.013-1.018,0.013
			c-7.562,0-15.125,0-22.688,0c-0.299,0-0.596,0.012-0.893-0.004c-0.289-0.015-0.342,0.124-0.34,0.38
			c0.012,1.105,0.021,2.21-0.004,3.314c-0.01,0.385,0.176,0.396,0.459,0.393c0.766-0.01,1.529-0.004,2.295-0.004
			c7.266,0,14.529,0,21.795,0c0.297,0,0.598-0.024,0.891,0.012c0.115,0.015,0.219,0.161,0.318,0.256
			c0.021,0.02,0.004,0.082,0.004,0.124c-0.033,1.729-0.064,3.458-0.098,5.186c-1.609,0.01-3.221,0.028-4.83,0.03
			C-304.778,55.908-308.559,55.904-312.34,55.904z"/>
		<linearGradient id="SVGID_11_" gradientUnits="userSpaceOnUse" x1="-244.3135" y1="43.7808" x2="-209.8838" y2="43.7808">
			<stop  offset="0" style="stop-color:#10A4DE"/>
			<stop  offset="0.0827" style="stop-color:#1E94C6"/>
			<stop  offset="0.1826" style="stop-color:#2B86AF"/>
			<stop  offset="0.2777" style="stop-color:#327DA2"/>
			<stop  offset="0.3623" style="stop-color:#357A9D"/>
			<stop  offset="0.9952" style="stop-color:#CCEAF1"/>
		</linearGradient>
		<path class="st14" d="M-228.018,31.172c1.08,0,1.807,0.054,2.523-0.011c1.766-0.16,3.492,0.293,5.25,0.298
			c0.494,0.001,1.008,0.273,1.551,0.226c0.576-0.051,1.07,0.354,1.682,0.274c0.51-0.066,1.029,0.183,1.541,0.275
			c1.117,0.201,2.191,0.631,3.279,0.987c0.109,0.036,0.25,0.206,0.252,0.314c0.016,1.742,0.016,3.484,0.008,5.226
			c-0.002,0.373-0.188,0.393-0.48,0.219c-1.072-0.629-2.287-0.865-3.469-1.157c-0.578-0.144-1.162-0.265-1.719-0.473
			c-0.537-0.2-1.096-0.021-1.678-0.261c-0.725-0.3-1.625-0.142-2.418-0.325c-1.193-0.279-2.432-0.039-3.582-0.285
			c-1.344-0.288-2.66-0.15-3.984-0.188c-0.686-0.02-1.373,0.186-2.062,0.227c-0.719,0.043-1.455-0.074-2.164,0.031
			c-0.816,0.121-1.629,0.35-2.406,0.636c-0.869,0.322-1.088,0.716-1.021,1.455c0.062,0.699,0.535,1.306,1.234,1.447
			c0.678,0.136,1.369,0.213,2.061,0.259c1.324,0.087,2.629,0.356,3.973,0.278c1.312-0.075,2.668-0.203,3.943,0.031
			c1.594,0.294,3.168,0.101,4.744,0.215c0.521,0.037,1.035,0.167,1.553,0.246c0.52,0.078,1.094-0.189,1.553,0.257
			c0.674-0.146,1.289,0.158,1.932,0.258c1.311,0.204,2.998,0.73,4.115,1.762c1.113,1.028,1.266,1.426,1.701,2.979
			c0.244,0.876,0.256,1.729,0.189,2.579c-0.064,0.864-0.213,1.783-0.594,2.544c-0.355,0.706-0.695,1.551-1.564,1.883
			c-0.738,1.021-1.975,1.188-3.004,1.68c-0.734,0.352-1.607,0.437-2.43,0.587c-2.289,0.419-4.596,0.604-6.926,0.53
			c-0.43-0.014-0.859,0.188-1.297,0.231c-0.42,0.043-0.85,0.036-1.271,0.004c-0.902-0.067-1.799-0.197-2.701-0.24
			c-0.889-0.042-1.814,0.131-2.668-0.049c-0.867-0.182-1.754-0.05-2.57-0.251c-1.207-0.298-2.486-0.164-3.652-0.709
			c-0.379-0.176-0.918,0.13-1.287-0.274c-0.75,0.06-1.414-0.387-2.088-0.446c-0.729-0.064-1.221-0.664-1.953-0.604
			c-0.111,0.009-0.365-0.369-0.369-0.571c-0.029-1.656-0.018-3.313-0.018-4.97c0-0.433,0.365-0.34,0.541-0.276
			c0.441,0.161,0.887,0.349,1.307,0.534c1.066,0.474,2.209,0.609,3.301,0.951c1.135,0.357,2.336,0.564,3.506,0.733
			c0.84,0.122,1.691,0.333,2.562,0.331c0.518-0.001,1.031,0.189,1.553,0.23c0.549,0.042,1.154-0.133,1.646,0.037
			c1.197,0.415,2.402,0.164,3.6,0.216c1.188,0.051,2.4,0.149,3.562-0.03c1.078-0.166,2.146-0.13,3.213-0.238
			c0.816-0.083,1.635-0.346,2.355-0.755c0.848-0.483,0.857-2.021,0.014-2.504c-0.467-0.269-1.023-0.471-1.559-0.522
			c-1.742-0.167-3.486-0.405-5.246-0.271c-1.17,0.09-2.281-0.381-3.465-0.279c-1.139,0.099-2.318,0.168-3.432-0.025
			c-0.91-0.158-1.801-0.202-2.707-0.202c-0.537-0.001-0.996-0.428-1.551-0.259c-0.562,0.171-1.023-0.22-1.551-0.267
			c-0.52-0.045-1.072-0.069-1.545-0.264c-1.127-0.465-2.357-0.668-3.312-1.585c-0.428-0.411-0.984-0.71-1.199-1.285
			c-0.207-0.55-0.508-1.042-0.607-1.67c-0.316-2-0.338-3.216,0.305-4.908c0.209-0.547,0.514-1.121,0.934-1.512
			c0.787-0.735,1.594-1.417,2.68-1.818c1.207-0.446,2.432-0.703,3.664-1.007c0.701-0.172,1.402-0.086,2.066-0.241
			C-231.678,30.935-229.661,31.325-228.018,31.172z"/>
		<linearGradient id="SVGID_12_" gradientUnits="userSpaceOnUse" x1="-370.272" y1="43.7539" x2="-335.8735" y2="43.7539">
			<stop  offset="0" style="stop-color:#10A4DE"/>
			<stop  offset="0.0827" style="stop-color:#1E94C6"/>
			<stop  offset="0.1826" style="stop-color:#2B86AF"/>
			<stop  offset="0.2777" style="stop-color:#327DA2"/>
			<stop  offset="0.3623" style="stop-color:#357A9D"/>
			<stop  offset="0.9952" style="stop-color:#CCEAF1"/>
		</linearGradient>
		<path class="st15" d="M-353.627,31.172c0.68,0,1.363,0.051,2.037-0.01c1.809-0.164,3.604,0.112,5.369,0.328
			c1.646,0.201,3.375,0.224,4.938,0.957c1.133-0.117,2.061,0.592,3.121,0.776c0.107,0.019,0.264,0.194,0.266,0.298
			c0.016,1.785,0.016,3.568-0.004,5.353c-0.002,0.068-0.314,0.224-0.354,0.19c-0.631-0.549-1.469-0.569-2.191-0.879
			c-0.689-0.298-1.465-0.281-2.172-0.604c-0.404-0.184-0.949-0.192-1.414-0.248c-1.334-0.158-2.639-0.477-3.984-0.603
			c-1.07-0.1-2.176-0.019-3.201-0.25c-1.172-0.264-2.318-0.189-3.473-0.194c-1.58-0.006-3.146,0.392-4.736,0.24
			c-0.723,0.431-1.594,0.13-2.344,0.496c-0.559,0.272-1.082,0.809-1.102,1.34c-0.039,0.955,0.395,1.539,1.338,1.728
			c0.764,0.153,1.549,0.181,2.309,0.295c2.516,0.377,5.051-0.014,7.539,0.276c1.551,0.181,3.082,0.086,4.615,0.21
			c0.561,0.046,1.088,0.31,1.682,0.257c0.564-0.051,1.131,0.13,1.682,0.193c1.25,0.142,2.457,0.39,3.627,0.821
			c2.217,0.815,3.082,1.528,3.906,3.879c0.066,0.188,0.047,0.405,0.074,0.607c0.07,0.512,0.346,1.112,0.168,1.515
			c-0.242,0.556-0.143,1.065-0.154,1.588c-0.023,0.961-0.369,1.855-0.908,2.548c-0.955,1.225-2.152,2.23-3.742,2.605
			c-1.164,0.274-2.262,0.857-3.506,0.765c-0.516,0.379-1.145,0.121-1.668,0.286c-0.525,0.165-1.029,0.226-1.561,0.225
			c-0.596-0.002-1.191-0.027-1.785,0.005c-1.24,0.066-2.479,0.221-3.717,0.231c-0.941,0.007-1.883-0.185-2.826-0.228
			c-0.934-0.042-1.893,0.121-2.795-0.049c-0.738-0.14-1.471-0.125-2.191-0.238c-0.689-0.108-1.398-0.132-2.055-0.281
			c-0.57-0.129-1.265,0.019-1.653-0.257c-0.509-0.359-1.036-0.033-1.531-0.36c-0.431-0.287-1.09-0.205-1.625-0.364
			c-0.714-0.211-1.403-0.506-2.108-0.751c-0.361-0.125-0.518-0.343-0.514-0.738c0.014-1.614,0.006-3.228,0.006-4.843
			c0-0.31,0.198-0.353,0.409-0.251c1.798,0.863,3.792,1.08,5.647,1.75c1.193-0.054,2.287,0.579,3.484,0.51
			c0.752,0.46,1.639,0.062,2.4,0.357c0.783,0.304,1.592-0.01,2.355,0.165c2.207,0.508,4.436,0.134,6.65,0.226
			c0.598,0.025,1.201-0.188,1.807-0.229c0.635-0.042,1.332,0.154,1.896-0.049c0.742-0.269,1.654-0.026,2.246-0.724
			c0.502,0.032,0.508-0.421,0.725-0.691c0.225-0.279,0.215-0.57,0.154-0.823c-0.156-0.661-0.602-1.177-1.262-1.265
			c-0.686-0.09-1.377-0.221-2.049-0.331c-1.713-0.278-3.451,0.028-5.119-0.256c-1.766-0.3-3.51-0.067-5.254-0.212
			c-1.281-0.106-2.553-0.355-3.846-0.247c-0.475-0.345-1.021-0.266-1.551-0.25c-0.498,0.015-0.945-0.213-1.416-0.302
			c-1.668-0.319-3.317-0.805-4.695-1.861c-0.676-0.519-1.102-1.244-1.395-2.09c-0.258-0.744-0.516-1.46-0.416-2.242
			c0.1-0.771-0.308-1.597,0.246-2.317c-0.025-1.133,0.539-1.997,1.268-2.789c1.01-1.098,2.273-1.757,3.686-2.179
			c0.428-0.128,0.83-0.291,1.299-0.262c0.396,0.024,0.768-0.193,1.162-0.273c1.324-0.266,2.666-0.363,4-0.458
			C-356.436,31.096-355.03,31.172-353.627,31.172z"/>
		<linearGradient id="SVGID_13_" gradientUnits="userSpaceOnUse" x1="-291.2407" y1="43.6606" x2="-247.6602" y2="43.6606">
			<stop  offset="0" style="stop-color:#10A4DE"/>
			<stop  offset="0.0827" style="stop-color:#1E94C6"/>
			<stop  offset="0.1826" style="stop-color:#2B86AF"/>
			<stop  offset="0.2777" style="stop-color:#327DA2"/>
			<stop  offset="0.3623" style="stop-color:#357A9D"/>
			<stop  offset="0.9952" style="stop-color:#CCEAF1"/>
		</linearGradient>
		<path class="st16" d="M-269.596,31.427c1.316,0,2.633,0.026,3.947-0.014c0.486-0.015,0.809,0.167,1.061,0.522
			c0.82,1.145,1.621,2.3,2.436,3.448c0.838,1.183,1.678,2.362,2.52,3.541c1.289,1.802,2.572,3.607,3.873,5.4
			c1.562,2.155,3.055,4.359,4.67,6.476c1.074,1.405,2.053,2.882,3.068,4.331c0.088,0.125,0.098,0.305,0.189,0.428
			c0.119,0.164,0.354,0.339-0.072,0.341c-2.506,0.01-5.01,0.001-7.514,0.01c-0.268,0-0.268-0.163-0.387-0.338
			c-0.941-1.394-2.004-2.706-2.85-4.171c-0.1-0.173-0.396-0.247-0.615-0.333c-0.109-0.043-0.252-0.007-0.379-0.007
			c-6.707,0-13.416,0.005-20.121-0.01c-0.455,0-0.668,0.16-0.92,0.537c-0.924,1.371-1.939,2.676-2.863,4.047
			c-0.148,0.219-0.242,0.271-0.447,0.271c-2.293,0-4.586,0.002-6.877-0.003c-0.365-0.001-0.459-0.145-0.264-0.452
			c0.367-0.576,0.768-1.129,1.164-1.685c0.867-1.213,1.736-2.424,2.611-3.631c1.562-2.153,3.062-4.352,4.666-6.477
			c1.135-1.502,2.117-3.116,3.209-4.65c1.008-1.417,2.08-2.787,3.104-4.195c0.684-0.941,1.367-1.886,1.971-2.879
			c0.232-0.383,0.465-0.513,0.871-0.509C-272.229,31.434-270.913,31.427-269.596,31.427z M-269.674,45.96c0.213,0,0.424,0,0.637,0
			c1.992,0,3.986-0.002,5.98,0.002c0.35,0,0.488-0.043,0.168-0.364c-0.131-0.133-0.158-0.365-0.281-0.515
			c-0.994-1.221-1.771-2.595-2.754-3.833c-1.084-1.369-1.93-2.925-2.918-4.375c-0.219-0.323-0.586-0.543-0.887-0.81
			c-0.211,0.295-0.402,0.604-0.635,0.88c-0.217,0.259-0.539,0.446-0.705,0.73c-1.152,1.979-2.58,3.767-3.879,5.643
			c-0.48,0.696-1.008,1.361-1.482,2.06c-0.33,0.483-0.273,0.58,0.266,0.581C-274,45.962-271.836,45.96-269.674,45.96z"/>
	</g>
	<g class="st6">
		<linearGradient id="SVGID_14_" gradientUnits="userSpaceOnUse" x1="-254.7329" y1="12.2983" x2="-286.4258" y2="12.2983">
			<stop  offset="0" style="stop-color:#10A4DE"/>
			<stop  offset="0.0827" style="stop-color:#1E94C6"/>
			<stop  offset="0.1826" style="stop-color:#2B86AF"/>
			<stop  offset="0.2777" style="stop-color:#327DA2"/>
			<stop  offset="0.3623" style="stop-color:#357A9D"/>
			<stop  offset="0.9952" style="stop-color:#CCEAF1"/>
		</linearGradient>
		<path class="st17" d="M-270.551,24.084c-5.076,0-10.149-0.002-15.226,0.002c-0.745,0-0.645,0.028-0.645-0.656
			c0-7.325-0.002-14.65,0.001-21.976c0.001-0.849,0.105-0.945,0.985-0.945c9.903-0.002,19.808-0.001,29.71-0.001
			c0.083,0,0.164-0.003,0.246,0c0.53,0.022,0.73,0.191,0.734,0.705c0.012,1.432-0.005,2.864,0.012,4.296
			c0.004,0.325-0.102,0.432-0.416,0.406c-0.283-0.023-0.573-0.005-0.859-0.005c-7.528,0-15.059,0-22.588,0
			c-0.288,0-0.573,0.013-0.86-0.003c-0.268-0.015-0.342,0.1-0.339,0.355c0.013,0.982,0.021,1.965-0.003,2.946
			c-0.01,0.351,0.139,0.408,0.432,0.39c0.284-0.017,0.571-0.004,0.857-0.004c7.286,0,14.569,0,21.854,0
			c0.285,0,0.571,0.013,0.857-0.003c0.284-0.016,0.326,0.126,0.324,0.37c-0.008,1.473-0.008,2.947,0,4.419
			c0.002,0.239-0.031,0.388-0.318,0.375c-0.326-0.015-0.654-0.003-0.982-0.003c-7.242,0-14.487,0-21.729,0
			c-0.287,0-0.574,0.011-0.859-0.004c-0.283-0.015-0.451,0.025-0.436,0.384c0.052,1.173,0.072,2.348,0.103,3.521
			c1.102,0.01,2.203,0.026,3.304,0.027c6.997,0.002,13.995,0.001,20.993,0.002c0.655,0,0.666-0.135,0.66,0.641
			c-0.008,1.473-0.007,2.947,0.002,4.419c0.002,0.262-0.086,0.361-0.347,0.346c-0.286-0.017-0.573-0.004-0.86-0.004
			C-260.813,24.084-265.683,24.084-270.551,24.084z"/>
		<linearGradient id="SVGID_15_" gradientUnits="userSpaceOnUse" x1="-336.2671" y1="12.2935" x2="-367.7119" y2="12.2935">
			<stop  offset="0" style="stop-color:#10A4DE"/>
			<stop  offset="0.0827" style="stop-color:#1E94C6"/>
			<stop  offset="0.1826" style="stop-color:#2B86AF"/>
			<stop  offset="0.2777" style="stop-color:#327DA2"/>
			<stop  offset="0.3623" style="stop-color:#357A9D"/>
			<stop  offset="0.9952" style="stop-color:#CCEAF1"/>
		</linearGradient>
		<path class="st18" d="M-352.004,24.084c-4.993,0-9.986,0-14.979-0.001c-0.721,0-0.727-0.006-0.728-0.693
			c-0.002-7.284-0.002-14.568,0.001-21.852c0-0.992,0.037-1.028,1.025-1.029c4.828-0.003,9.657-0.001,14.486-0.001
			c4.91,0,9.821,0,14.731,0c0.287,0,0.574,0.012,0.86-0.004c0.271-0.016,0.337,0.105,0.335,0.358
			c-0.01,1.556-0.016,3.11,0.004,4.665c0.004,0.356-0.148,0.403-0.436,0.387c-0.285-0.016-0.571-0.004-0.859-0.004
			c-7.406,0-14.812,0-22.219,0c-0.327,0-0.656,0.012-0.982-0.003c-0.286-0.014-0.323,0.132-0.321,0.373
			c0.011,0.982,0.011,1.964,0,2.946c-0.002,0.243,0.038,0.387,0.322,0.372c0.286-0.016,0.573-0.004,0.859-0.004
			c7.202,0,14.405,0,21.607,0c0.246,0,0.492-0.007,0.736,0.002c0.611,0.021,0.781,0.175,0.791,0.772
			c0.012,0.9,0.005,1.8,0.002,2.701c-0.002,0.528-0.018,1.057-0.025,1.585c-0.559,0.033-1.119,0.093-1.678,0.093
			c-7.121,0.006-14.242,0.004-21.362,0.004c-0.327,0-0.658-0.023-0.98,0.013c-0.099,0.011-0.196,0.175-0.261,0.288
			c-0.036,0.06-0.008,0.16-0.007,0.242c0.012,1.1,0.023,2.2,0.036,3.299c1.094,0.029,2.186,0.083,3.278,0.083
			c6.917,0.008,13.833,0.004,20.748,0.005c0.733,0,0.739,0.005,0.741,0.679c0.004,1.351,0.004,2.702,0,4.052
			c-0.002,0.663-0.008,0.668-0.627,0.67c-1.801,0.003-3.602,0.001-5.402,0.001C-345.538,24.084-348.772,24.084-352.004,24.084z"/>
		<linearGradient id="SVGID_16_" gradientUnits="userSpaceOnUse" x1="-374.5947" y1="12.4028" x2="-407.7451" y2="12.4028">
			<stop  offset="0" style="stop-color:#10A4DE"/>
			<stop  offset="0.0827" style="stop-color:#1E94C6"/>
			<stop  offset="0.1826" style="stop-color:#2B86AF"/>
			<stop  offset="0.2777" style="stop-color:#327DA2"/>
			<stop  offset="0.3623" style="stop-color:#357A9D"/>
			<stop  offset="0.9952" style="stop-color:#CCEAF1"/>
		</linearGradient>
		<path class="st19" d="M-392.019,0.262c1.16,0,1.984,0.059,2.796-0.013c1.579-0.139,3.14,0.146,4.678,0.323
			c1.587,0.181,3.248,0.231,4.756,0.918c0.959-0.039,1.779,0.412,2.653,0.701c0.396,0.13,0.609,0.117,0.597,0.617
			c-0.036,1.554-0.009,3.109-0.015,4.664c-0.002,0.439-0.09,0.494-0.478,0.288c-1.053-0.559-2.216-0.783-3.345-1.109
			c-1.069-0.309-2.185-0.399-3.262-0.711c-0.783-0.228-1.644-0.184-2.466-0.277c-0.583-0.066-1.159-0.192-1.741-0.233
			c-0.569-0.041-1.192,0.133-1.709-0.036c-1.398-0.461-2.809-0.083-4.203-0.218c-1.087,0.411-2.235,0.106-3.331,0.274
			c-0.793,0.122-1.612,0.144-2.382,0.453c-0.68,0.271-1.131,0.731-1.149,1.324c-0.028,0.904,0.419,1.427,1.325,1.639
			c0.738,0.172,1.497,0.149,2.228,0.265c2.419,0.384,4.862,0,7.261,0.272c1.41,0.159,2.802,0.101,4.2,0.2
			c0.583,0.042,1.159,0.163,1.74,0.237c0.541,0.068,1.095-0.124,1.633,0.222c0.231,0.149,0.641-0.006,0.964,0.036
			c0.259,0.032,0.501,0.183,0.76,0.23c1.699,0.311,3.298,0.828,4.509,2.154c0.731,0.8,1.075,1.762,1.171,2.829
			c0.031,0.344-0.152,0.734,0.209,1.023c0.047,0.038,0.024,0.255-0.036,0.315c-0.361,0.349-0.162,0.776-0.166,1.158
			c-0.014,1.314-0.508,2.391-1.378,3.367c-1.059,1.189-2.431,1.753-3.896,2.167c-0.817,0.231-1.643,0.405-2.49,0.541
			c-0.995,0.16-1.996,0.33-2.996,0.426c-1.013,0.097-2.048-0.04-3.066,0.04c-0.824,0.064-1.634,0.311-2.476,0.228
			c-0.907-0.088-1.813-0.196-2.722-0.238c-0.899-0.041-1.825,0.116-2.693-0.049c-0.669-0.128-1.324-0.16-1.991-0.216
			c-0.663-0.057-1.342-0.146-1.978-0.279c-1.048-0.221-2.116-0.364-3.164-0.618c-1.04-0.252-2.071-0.547-3.104-0.824
			c-0.857-0.228-0.965-0.44-0.967-1.348c-0.003-1.391,0.005-2.782-0.004-4.173c-0.003-0.335,0.107-0.436,0.428-0.308
			c1.597,0.639,3.255,1.059,4.926,1.456c0.627,0.149,1.277,0.205,1.904,0.426c0.613,0.217,1.354,0.08,1.962,0.304
			c0.749,0.275,1.552,0.003,2.215,0.282c0.774,0.326,1.525,0.012,2.256,0.189c1.958,0.473,3.944,0.146,5.914,0.231
			c1.363,0.059,2.7-0.419,4.071-0.24c0.679-0.375,1.518-0.133,2.192-0.655c0.583-0.451,0.979-0.891,0.905-1.459
			c-0.092-0.689-0.554-1.12-1.149-1.302c-0.59-0.181-1.241-0.155-1.855-0.274c-1.716-0.33-3.474-0.05-5.168-0.296
			c-1.333-0.194-2.644-0.183-3.958-0.166c-1.573,0.021-3.109-0.452-4.685-0.268c-0.879-0.357-1.838-0.25-2.746-0.477
			c-0.889-0.221-1.786-0.409-2.636-0.755c-1.182-0.483-2.348-0.98-2.999-2.212c-0.292-0.551-0.832-1.93-0.835-2.478
			c-0.004-0.449,0.03-0.902-0.007-1.349c-0.081-0.963,0.201-1.868,0.519-2.735c0.344-0.946,1.068-1.673,1.87-2.261
			c1.127-0.83,2.412-1.195,3.917-1.507c1.117-0.232,2.254-0.306,3.351-0.521C-395.45,0.085-393.562,0.448-392.019,0.262z"/>
		<linearGradient id="SVGID_17_" gradientUnits="userSpaceOnUse" x1="-211.0254" y1="12.2979" x2="-246.8926" y2="12.2979">
			<stop  offset="0" style="stop-color:#10A4DE"/>
			<stop  offset="0.0827" style="stop-color:#1E94C6"/>
			<stop  offset="0.1826" style="stop-color:#2B86AF"/>
			<stop  offset="0.2777" style="stop-color:#327DA2"/>
			<stop  offset="0.3623" style="stop-color:#357A9D"/>
			<stop  offset="0.9952" style="stop-color:#CCEAF1"/>
		</linearGradient>
		<path class="st20" d="M-211.026,12.315c0,3.724,0.002,7.449-0.002,11.173c0,0.585-0.008,0.593-0.579,0.595
			c-2.863,0.003-5.729-0.009-8.596,0.013c-0.409,0.003-0.664-0.154-0.938-0.417c-1.606-1.543-3.16-3.151-4.863-4.581
			c-1.309-1.098-2.397-2.417-3.717-3.476c-1.303-1.045-2.344-2.355-3.631-3.389c-1.332-1.071-2.411-2.398-3.719-3.471
			c-1.033-0.848-1.957-1.797-2.926-2.707c-0.09-0.086-0.273-0.097-0.412-0.093c-0.032,0.001-0.084,0.205-0.084,0.315
			c-0.004,2.252-0.002,4.503-0.002,6.755c0,3.519-0.006,7.04,0.005,10.56c0,0.339-0.034,0.507-0.446,0.501
			c-1.842-0.022-3.684-0.014-5.525-0.005c-0.293,0.002-0.464-0.045-0.426-0.393c0.027-0.242,0.005-0.491,0.005-0.736
			c0-7.041,0-14.08,0-21.12c0-0.246-0.013-0.493,0.005-0.736c0.023-0.366,0.223-0.585,0.6-0.593
			c0.531-0.011,1.062-0.002,1.595-0.002c2.374,0,4.749,0.012,7.122-0.009c0.599-0.006,1.056,0.203,1.474,0.605
			c2.073,2.002,4.099,4.06,6.253,5.97c1.336,1.182,2.521,2.522,3.895,3.643c1.26,1.03,2.283,2.297,3.539,3.308
			c1.297,1.045,2.415,2.267,3.619,3.4c0.342,0.321,0.738,0.585,1.111,0.872c0.053,0.041,0.115,0.069,0.174,0.103
			c0.027-0.07,0.08-0.139,0.082-0.21c0.008-0.326,0.004-0.654,0.004-0.981c0-5.362-0.002-10.724,0-16.085
			c0-0.603,0.008-0.612,0.561-0.614c1.721-0.004,3.439-0.004,5.158,0c0.656,0.001,0.664,0.008,0.664,0.632
			c0.004,3.315,0.002,6.63,0.002,9.945C-211.026,11.496-211.026,11.906-211.026,12.315z"/>
		<linearGradient id="SVGID_18_" gradientUnits="userSpaceOnUse" x1="-291.3315" y1="12.2983" x2="-331.6191" y2="12.2983">
			<stop  offset="0" style="stop-color:#10A4DE"/>
			<stop  offset="0.0827" style="stop-color:#1E94C6"/>
			<stop  offset="0.1826" style="stop-color:#2B86AF"/>
			<stop  offset="0.2777" style="stop-color:#327DA2"/>
			<stop  offset="0.3623" style="stop-color:#357A9D"/>
			<stop  offset="0.9952" style="stop-color:#CCEAF1"/>
		</linearGradient>
		<path class="st21" d="M-311.546,24.084c-1.104,0-2.21-0.046-3.312,0.019c-0.571,0.034-0.953-0.188-1.229-0.595
			c-1.097-1.627-2.078-3.339-3.266-4.894c-1.273-1.667-2.375-3.445-3.576-5.156c-1.373-1.955-2.707-3.94-4.053-5.913
			c-1.352-1.981-2.745-3.94-4.113-5.913c-0.154-0.221-0.305-0.443-0.434-0.68c-0.171-0.319-0.105-0.442,0.248-0.442
			c2.332-0.006,4.662,0.014,6.992-0.017c0.447-0.005,0.707,0.219,0.893,0.508c1.209,1.888,2.6,3.655,3.801,5.542
			c1.343,2.108,2.767,4.161,4.107,6.267c1.222,1.915,2.518,3.784,3.764,5.684c0.154,0.234,0.277,0.255,0.463,0.096
			c0.153-0.133,0.318-0.268,0.43-0.434c0.939-1.409,1.859-2.832,2.802-4.237c1.372-2.05,2.761-4.091,4.141-6.136
			c1.403-2.077,2.837-4.135,4.188-6.245c0.457-0.713,0.935-1.071,1.812-1.048c2.043,0.055,4.088,0.015,6.133,0.023
			c0.143,0.001,0.283,0.087,0.426,0.134c-0.062,0.138-0.105,0.289-0.188,0.413c-1.173,1.721-2.335,3.452-3.531,5.152
			c-1.046,1.491-2.067,3.002-3.13,4.484c-1.37,1.91-2.559,3.956-3.984,5.819c-1.16,1.516-2.051,3.209-3.299,4.663
			c-0.619,0.723-1.105,1.573-1.566,2.413c-0.213,0.385-0.441,0.501-0.836,0.498C-309.091,24.078-310.32,24.084-311.546,24.084z"/>
	</g>
</g>
<g id="Layer_4">
	<linearGradient id="SVGID_19_" gradientUnits="userSpaceOnUse" x1="-248.5967" y1="4.8384" x2="-248.5967" y2="4.8384">
		<stop  offset="0.0141" style="stop-color:#E92700"/>
		<stop  offset="0.057" style="stop-color:#EA3508"/>
		<stop  offset="0.1977" style="stop-color:#EE5C20"/>
		<stop  offset="0.3267" style="stop-color:#F17931"/>
		<stop  offset="0.4388" style="stop-color:#F28A3B"/>
		<stop  offset="0.5213" style="stop-color:#F3903F"/>
		<stop  offset="0.5837" style="stop-color:#F49245"/>
		<stop  offset="0.6679" style="stop-color:#F69856"/>
		<stop  offset="0.7646" style="stop-color:#F9A273"/>
		<stop  offset="0.8698" style="stop-color:#FEAF9A"/>
		<stop  offset="0.8876" style="stop-color:#FFB2A1"/>
	</linearGradient>
	<path class="st8" d="M-248.597,4.838"/>
	<g>
		<linearGradient id="SVGID_20_" gradientUnits="userSpaceOnUse" x1="117.3008" y1="39.5967" x2="137.0137" y2="39.5967">
			<stop  offset="0.0141" style="stop-color:#E92700"/>
			<stop  offset="0.057" style="stop-color:#EA3508"/>
			<stop  offset="0.1977" style="stop-color:#EE5C20"/>
			<stop  offset="0.3267" style="stop-color:#F17931"/>
			<stop  offset="0.4388" style="stop-color:#F28A3B"/>
			<stop  offset="0.5213" style="stop-color:#F3903F"/>
			<stop  offset="0.5837" style="stop-color:#F49245"/>
			<stop  offset="0.6679" style="stop-color:#F69856"/>
			<stop  offset="0.7646" style="stop-color:#F9A273"/>
			<stop  offset="0.8698" style="stop-color:#FEAF9A"/>
			<stop  offset="0.8876" style="stop-color:#FFB2A1"/>
		</linearGradient>
		<path class="st22" d="M127.155,47.409c-3.119,0-6.236,0-9.355-0.002c-0.49,0-0.494-0.002-0.494-0.445
			c-0.004-4.91-0.004-9.816-0.004-14.725c0-0.082,0.008-0.164,0-0.244c-0.016-0.191,0.094-0.217,0.25-0.209
			c0.162,0.01,0.326,0.004,0.486,0.004c6.02,0,12.041,0,18.061,0c0.162,0,0.326,0,0.488-0.002c0.26-0.002,0.367,0.156,0.406,0.387
			c0.006,0.025,0,0.053,0.002,0.08c0.051,0.836,0.051,0.836-0.76,0.836c-5.613,0-11.225,0-16.84,0c-0.191,0-0.379,0.008-0.568-0.004
			c-0.178-0.01-0.225,0.066-0.223,0.238c0.002,1.787,0.006,3.578-0.006,5.367c0,0.23,0.094,0.271,0.287,0.258
			c0.189-0.012,0.379-0.002,0.57-0.002c5.449,0,10.898,0,16.348,0c0.221,0,0.436,0.008,0.652-0.004
			c0.189-0.008,0.234,0.084,0.215,0.248c-0.01,0.051-0.004,0.107-0.004,0.16c0.012,0.734,0.012,0.734-0.693,0.734
			c-5.508,0.002-11.01,0-16.516,0c-0.189,0-0.379,0.01-0.57-0.002c-0.186-0.01-0.289,0.016-0.289,0.256
			c0.012,1.844,0.008,3.688,0.006,5.531c-0.002,0.166,0.037,0.248,0.219,0.238c0.188-0.008,0.379-0.002,0.568-0.002
			c5.533,0,11.064,0,16.596,0c0.162,0,0.324-0.004,0.488,0c0.4,0.016,0.504,0.119,0.518,0.52c0.006,0.189-0.008,0.379,0.004,0.568
			c0.01,0.184-0.08,0.217-0.244,0.217c-1.166-0.006-2.332-0.002-3.496-0.002C131.22,47.409,129.187,47.409,127.155,47.409z"/>
		<linearGradient id="SVGID_21_" gradientUnits="userSpaceOnUse" x1="90.1289" y1="39.6777" x2="111.1387" y2="39.6777">
			<stop  offset="0.0141" style="stop-color:#E92700"/>
			<stop  offset="0.057" style="stop-color:#EA3508"/>
			<stop  offset="0.1977" style="stop-color:#EE5C20"/>
			<stop  offset="0.3267" style="stop-color:#F17931"/>
			<stop  offset="0.4388" style="stop-color:#F28A3B"/>
			<stop  offset="0.5213" style="stop-color:#F3903F"/>
			<stop  offset="0.5837" style="stop-color:#F49245"/>
			<stop  offset="0.6679" style="stop-color:#F69856"/>
			<stop  offset="0.7646" style="stop-color:#F9A273"/>
			<stop  offset="0.8698" style="stop-color:#FEAF9A"/>
			<stop  offset="0.8876" style="stop-color:#FFB2A1"/>
		</linearGradient>
		<path class="st23" d="M99.835,31.624c1.088,0,1.93-0.023,2.768,0.006c0.764,0.023,1.549,0.008,2.287,0.18
			c0.912,0.213,1.883,0.199,2.744,0.629c0.6-0.131,1.082,0.299,1.656,0.338c0.453,0.031,0.549,0.186,0.52,0.658
			c-0.016,0.264,0.176,0.645-0.15,0.766c-0.176,0.064-0.451-0.186-0.691-0.246c-0.764-0.191-1.51-0.436-2.297-0.555
			c-0.357-0.055-0.738-0.07-1.064-0.176c-0.369-0.121-0.742-0.043-1.074-0.154c-0.469-0.156-0.951-0.055-1.398-0.16
			c-1.197-0.281-2.4-0.084-3.598-0.143c-0.461-0.023-0.92-0.012-1.385-0.002c-0.467,0.014-0.928-0.012-1.402,0.137
			c-0.408,0.127-0.875,0.1-1.312,0.154c-0.781,0.096-1.492,0.314-2.166,0.686c-0.762,0.424-1.246,1.031-1.186,1.949
			c0.021,0.338-0.027,0.666,0.092,1.02c0.232,0.684,0.742,1.018,1.34,1.252c0.398,0.154,0.826,0.248,1.248,0.328
			c0.434,0.082,0.873,0.111,1.312,0.168c0.385,0.053,0.768,0.129,1.154,0.156c0.377,0.027,0.795-0.094,1.131,0.027
			c0.633,0.229,1.262,0.111,1.893,0.137c1.088,0.045,2.17,0.266,3.268,0.168c0.529,0.236,1.102,0.084,1.639,0.176
			c1.186,0.205,2.41,0.201,3.559,0.637c0.74,0.283,1.432,0.609,1.887,1.33c0.174,0.273,0.293,0.568,0.328,0.838
			c0.084,0.652,0.396,1.312,0.029,1.98c-0.096,0.174-0.033,0.395-0.096,0.607c-0.264,0.932-0.906,1.486-1.707,1.916
			c-0.332,0.176-0.678,0.326-1.016,0.488c-0.322,0.158-0.68,0.16-1.018,0.299c-0.316,0.133-0.699,0.074-1.064,0.16
			c-0.656,0.16-1.363,0.205-2.043,0.174c-0.699-0.029-1.355,0.215-2.047,0.188c-0.676-0.025-1.355,0.014-2.033-0.012
			c-0.465-0.018-0.93-0.123-1.398-0.15c-0.459-0.027-0.943,0.084-1.375-0.031c-0.393-0.105-0.771-0.105-1.158-0.145
			c-0.359-0.037-0.721-0.109-1.066-0.18c-0.869-0.174-1.742-0.322-2.602-0.576c-0.604-0.176-1.201-0.389-1.814-0.533
			c-0.281-0.064-0.412-0.199-0.396-0.482c0.014-0.316,0.031-0.637,0.047-0.955c0.277,0.098,0.549,0.205,0.828,0.291
			c0.867,0.268,1.729,0.551,2.602,0.785c0.422,0.115,0.873,0.127,1.307,0.195c0.275,0.043,0.551,0.111,0.824,0.158
			c0.279,0.049,0.598-0.123,0.832,0.164c0.012,0.012,0.051,0,0.08,0.002c0.707,0.053,1.418,0.111,2.127,0.162
			c0.82,0.057,1.637,0.133,2.457,0.156c1.145,0.037,2.285-0.137,3.426-0.195c1-0.055,2.02-0.248,2.992-0.6
			c0.568-0.205,1.029-0.566,1.484-0.918c0.268-0.209,0.455-0.639,0.496-0.99c0.072-0.623,0.154-1.307-0.16-1.871
			c-0.234-0.412-0.566-0.82-1.105-0.963c-0.365-0.094-0.686-0.289-1.082-0.35c-0.359-0.055-0.738-0.045-1.07-0.148
			c-0.416-0.129-0.826-0.119-1.24-0.146c-0.387-0.029-0.77-0.129-1.154-0.154c-0.432-0.025-0.889,0.08-1.297-0.021
			c-1.008-0.248-2.031-0.021-3.025-0.17c-0.77-0.113-1.543-0.039-2.291-0.164c-0.795-0.135-1.611-0.105-2.387-0.309
			c-0.9-0.238-1.826-0.336-2.689-0.781c-1.047-0.543-1.414-1.408-1.508-2.467c-0.057-0.68,0.012-1.34,0.305-1.986
			c0.221-0.492,0.496-0.934,0.908-1.244c0.646-0.488,1.414-0.797,2.189-0.975c0.699-0.158,1.428-0.254,2.133-0.383
			C97.472,31.51,98.776,31.735,99.835,31.624z"/>
		<linearGradient id="SVGID_22_" gradientUnits="userSpaceOnUse" x1="32.9854" y1="39.5952" x2="57.2832" y2="39.5952">
			<stop  offset="0.0141" style="stop-color:#E92700"/>
			<stop  offset="0.057" style="stop-color:#EA3508"/>
			<stop  offset="0.1977" style="stop-color:#EE5C20"/>
			<stop  offset="0.3267" style="stop-color:#F17931"/>
			<stop  offset="0.4388" style="stop-color:#F28A3B"/>
			<stop  offset="0.5213" style="stop-color:#F3903F"/>
			<stop  offset="0.5837" style="stop-color:#F49245"/>
			<stop  offset="0.6679" style="stop-color:#F69856"/>
			<stop  offset="0.7646" style="stop-color:#F9A273"/>
			<stop  offset="0.8698" style="stop-color:#FEAF9A"/>
			<stop  offset="0.8876" style="stop-color:#FFB2A1"/>
		</linearGradient>
		<path class="st24" d="M45.294,47.733c-0.805,0-1.406-0.039-1.998,0.012c-0.83,0.068-1.646-0.088-2.449-0.199
			c-1.223-0.174-2.43-0.469-3.588-0.943c-0.889-0.363-1.652-0.916-2.377-1.51c-0.43-0.352-0.789-0.848-1.025-1.354
			c-0.217-0.467-0.367-0.988-0.543-1.482c-0.461-1.301-0.316-2.629-0.271-3.939c0.029-0.951,0.344-1.883,0.814-2.742
			c0.412-0.754,0.959-1.404,1.625-1.92c1.027-0.801,2.209-1.303,3.5-1.551c0.475-0.092,0.922-0.279,1.412-0.332
			c0.492-0.057,1.008-0.064,1.471-0.176c0.986-0.238,1.967-0.092,2.951-0.127c1-0.037,2.008-0.072,3.006,0.012
			c0.822,0.066,1.658,0.172,2.463,0.332c0.758,0.15,1.545,0.312,2.248,0.641c0.705,0.33,1.418,0.646,2.068,1.111
			c0.727,0.52,1.266,1.166,1.688,1.908c0.281,0.496,0.49,1.051,0.633,1.605c0.26,1.016,0.439,2.061,0.328,3.113
			c-0.105,1.012-0.285,2.012-0.691,2.965c-0.375,0.879-0.885,1.664-1.629,2.24c-0.633,0.492-1.311,0.918-2.086,1.24
			c-0.777,0.32-1.59,0.469-2.371,0.746c-0.502,0.18-1.1,0.072-1.629,0.199C47.595,47.883,46.335,47.637,45.294,47.733z
			 M44.999,46.596c0.52,0,1.031,0.002,1.547-0.004c0.523-0.004,1.043-0.059,1.562-0.127c0.518-0.062,1.033-0.166,1.557-0.203
			c0.197-0.014,0.385-0.119,0.582-0.152c0.203-0.031,0.4-0.086,0.592-0.137c0.469-0.123,0.893-0.365,1.344-0.492
			c0.727-0.205,1.25-0.688,1.822-1.102c0.619-0.449,0.957-1.145,1.297-1.812c0.283-0.549,0.4-1.162,0.469-1.752
			c0.094-0.803,0.096-1.633-0.01-2.434c-0.047-0.354-0.107-0.744-0.236-1.111c-0.385-1.086-0.934-2.018-1.896-2.709
			c-0.691-0.49-1.424-0.863-2.213-1.146c-0.508-0.186-1.018-0.355-1.57-0.334c-0.23-0.361-0.633-0.066-0.955-0.258
			c-0.285-0.166-0.738-0.021-1.109-0.068c-0.33-0.043-0.635-0.188-0.99-0.162c-1.439,0.1-2.887-0.146-4.328,0.156
			c-0.453,0.096-0.928,0.08-1.398,0.148c-0.918,0.131-1.781,0.391-2.656,0.668c-1.51,0.482-2.6,1.439-3.375,2.791
			c-0.455,0.793-0.779,3.029-0.705,3.688c0.025,0.248,0.156,0.473,0.162,0.746c0.01,0.643,0.211,1.244,0.469,1.836
			c0.801,1.834,2.377,2.688,4.131,3.312c0.336,0.117,0.742,0.072,1.039,0.236c0.34,0.186,0.76-0.08,1.035,0.258
			c0.709,0.053,1.418,0.125,2.129,0.156C43.86,46.616,44.431,46.596,44.999,46.596z"/>
		<linearGradient id="SVGID_23_" gradientUnits="userSpaceOnUse" x1="5.3428" y1="39.6025" x2="26.834" y2="39.6025">
			<stop  offset="0.0141" style="stop-color:#E92700"/>
			<stop  offset="0.057" style="stop-color:#EA3508"/>
			<stop  offset="0.1977" style="stop-color:#EE5C20"/>
			<stop  offset="0.3267" style="stop-color:#F17931"/>
			<stop  offset="0.4388" style="stop-color:#F28A3B"/>
			<stop  offset="0.5213" style="stop-color:#F3903F"/>
			<stop  offset="0.5837" style="stop-color:#F49245"/>
			<stop  offset="0.6679" style="stop-color:#F69856"/>
			<stop  offset="0.7646" style="stop-color:#F9A273"/>
			<stop  offset="0.8698" style="stop-color:#FEAF9A"/>
			<stop  offset="0.8876" style="stop-color:#FFB2A1"/>
		</linearGradient>
		<path class="st25" d="M16.081,38.946c2.82,0,5.637,0,8.457,0c0.164,0,0.328,0.006,0.488-0.002
			c0.354-0.012,0.482-0.127,0.502-0.453c0.006-0.162,0-0.326,0-0.488c0-1.953,0.004-3.902-0.008-5.855
			c0-0.264,0.021-0.416,0.346-0.367c0.312,0.047,0.629,0.049,0.947,0.072c0.006,0.295,0.014,0.592,0.014,0.887
			c0,4.609,0,9.217,0,13.826c0,0.217,0.018,0.438-0.004,0.652c-0.01,0.068-0.109,0.137-0.18,0.186
			c-0.035,0.025-0.104,0.006-0.158,0.006c-0.297-0.004-0.592-0.01-0.891-0.014c-0.02-0.316-0.062-0.631-0.062-0.947
			c-0.006-1.816-0.004-3.633-0.004-5.449c0-0.162,0.01-0.326-0.002-0.488c-0.018-0.281-0.152-0.406-0.449-0.424
			c-0.133-0.008-0.271-0.002-0.406-0.002c-5.721,0-11.439,0-17.16,0c-0.135,0-0.271,0.016-0.404-0.002
			c-0.277-0.037-0.297,0.105-0.297,0.33c0.008,2.033,0.008,4.066,0.002,6.098c0,0.293,0.072,0.699-0.082,0.84
			c-0.166,0.152-0.561,0.049-0.855,0.059c-0.08,0.002-0.164-0.008-0.242,0c-0.193,0.02-0.312-0.023-0.285-0.256
			c0.018-0.162,0.004-0.326,0.004-0.488c0-4.662,0-9.326,0-13.988c0-0.162-0.002-0.326,0-0.488c0.008-0.252,0.152-0.373,0.391-0.4
			c0.08-0.01,0.164-0.004,0.244,0c0.264,0.012,0.631-0.068,0.768,0.072c0.137,0.143,0.062,0.504,0.062,0.771
			c0,1.979,0,3.957,0,5.938c0,0.371,0.008,0.375,0.4,0.375C10.169,38.946,13.126,38.946,16.081,38.946z"/>
		<linearGradient id="SVGID_24_" gradientUnits="userSpaceOnUse" x1="62.7852" y1="39.7603" x2="84.2725" y2="39.7603">
			<stop  offset="0.0141" style="stop-color:#E92700"/>
			<stop  offset="0.057" style="stop-color:#EA3508"/>
			<stop  offset="0.1977" style="stop-color:#EE5C20"/>
			<stop  offset="0.3267" style="stop-color:#F17931"/>
			<stop  offset="0.4388" style="stop-color:#F28A3B"/>
			<stop  offset="0.5213" style="stop-color:#F3903F"/>
			<stop  offset="0.5837" style="stop-color:#F49245"/>
			<stop  offset="0.6679" style="stop-color:#F69856"/>
			<stop  offset="0.7646" style="stop-color:#F9A273"/>
			<stop  offset="0.8698" style="stop-color:#FEAF9A"/>
			<stop  offset="0.8876" style="stop-color:#FFB2A1"/>
		</linearGradient>
		<path class="st26" d="M84.271,36.983c0,1.49,0.002,2.98-0.002,4.471c-0.002,0.311-0.002,0.607-0.139,0.92
			c-0.104,0.238-0.09,0.541-0.166,0.822c-0.164,0.586-0.48,1.074-0.844,1.521c-0.965,1.191-1.744,1.693-3.363,2.234
			c-0.648,0.219-1.299,0.459-2.006,0.463c-0.334,0-0.629,0.219-0.992,0.168c-0.33-0.047-0.682-0.064-0.99,0.145
			c-0.057,0.039-0.16,0.006-0.24,0.006c-0.109,0-0.217,0-0.328,0c-0.867,0-1.732,0.023-2.6-0.006
			c-0.818-0.025-1.645-0.043-2.451-0.168c-1.402-0.217-2.797-0.463-4.088-1.121c-1.455-0.744-2.439-1.873-2.939-3.416
			c-0.191-0.586-0.309-1.209-0.318-1.814c-0.031-3.01-0.014-6.018-0.012-9.027c0-0.387,0.006-0.393,0.385-0.393
			c1.104-0.01,1.086-0.109,1.082,1.096c-0.01,2.791-0.039,5.584,0.012,8.375c0.023,1.33,0.545,2.523,1.57,3.402
			c0.732,0.627,1.623,1.012,2.555,1.283c0.271,0.078,0.529,0.174,0.828,0.18c0.27,0.004,0.551,0.104,0.822,0.166
			c0.709,0.162,1.441,0.021,2.125,0.174c0.693,0.154,1.387,0.189,2.049,0.102c0.768-0.1,1.543-0.041,2.289-0.154
			c0.953-0.143,1.918-0.293,2.824-0.635c1.266-0.477,2.342-1.221,2.973-2.455c0.287-0.559,0.432-1.174,0.521-1.82
			c0.227-1.551,0.111-3.102,0.137-4.652c0.025-1.57,0.016-3.143-0.004-4.715c-0.004-0.299,0.074-0.383,0.359-0.354
			c0.295,0.031,0.592,0.018,0.889,0.023c0.021,0.316,0.057,0.635,0.059,0.951C84.276,34.165,84.271,35.573,84.271,36.983z"/>
	</g>
	<g>
		<linearGradient id="SVGID_25_" gradientUnits="userSpaceOnUse" x1="38.7451" y1="16.9629" x2="59.8096" y2="16.9629">
			<stop  offset="0.0141" style="stop-color:#E92700"/>
			<stop  offset="0.057" style="stop-color:#EA3508"/>
			<stop  offset="0.1977" style="stop-color:#EE5C20"/>
			<stop  offset="0.3267" style="stop-color:#F17931"/>
			<stop  offset="0.4388" style="stop-color:#F28A3B"/>
			<stop  offset="0.5213" style="stop-color:#F3903F"/>
			<stop  offset="0.5837" style="stop-color:#F49245"/>
			<stop  offset="0.6679" style="stop-color:#F69856"/>
			<stop  offset="0.7646" style="stop-color:#F9A273"/>
			<stop  offset="0.8698" style="stop-color:#FEAF9A"/>
			<stop  offset="0.8876" style="stop-color:#FFB2A1"/>
		</linearGradient>
		<path class="st27" d="M53.858,16.803c1.852,0,3.705-0.002,5.559,0c0.375,0,0.377,0.004,0.381,0.4c0,0.396,0.031,0.793-0.008,1.186
			c-0.078,0.811-0.213,1.619-0.498,2.386c-0.16,0.437-0.82,1.323-1.377,1.729c-0.705,0.515-1.455,0.889-2.26,1.177
			c-0.326,0.115-0.676,0.162-1.016,0.235c-0.227,0.052-0.451,0.104-0.68,0.147c-0.205,0.04-0.445-0.092-0.609,0.144
			c-0.018,0.024-0.094,0.005-0.143,0.007c-0.895,0.049-1.787,0.119-2.68,0.143c-0.914,0.025-1.836,0.074-2.74-0.021
			c-0.5-0.055-1.008-0.045-1.494-0.135c-1.021-0.19-2.051-0.314-3.039-0.705c-0.762-0.3-1.467-0.641-2.139-1.111
			c-0.848-0.593-1.432-1.351-1.812-2.286c-0.301-0.758-0.588-1.521-0.557-2.363c0.02-0.567,0-1.136,0.004-1.704
			c0-1.027,0.604-2.484,1.213-3.354c0.916-1.307,2.234-1.922,3.672-2.398c0.664-0.221,1.355-0.314,2.035-0.458
			c0.578-0.123,1.166-0.027,1.717-0.152c1.02-0.232,2.039-0.08,3.053-0.119c0.35-0.014,0.701,0.107,1.053,0.133
			c0.344,0.024,0.723-0.084,1.029,0.029c0.336,0.125,0.652,0.121,0.982,0.12c0.338-0.002,0.629,0.169,0.977,0.175
			c0.479,0.009,0.957,0.161,1.432,0.278c0.535,0.132,1.068,0.286,1.594,0.443c0.309,0.092,0.613,0.196,0.902,0.327
			c0.094,0.04,0.143,0.18,0.199,0.282c0.02,0.037,0.002,0.096,0.004,0.146c0.043,1.021,0.051,1.004-0.902,0.583
			c-0.609-0.268-1.25-0.443-1.896-0.617c-0.75-0.2-1.514-0.276-2.262-0.438c-1.924-0.417-3.873-0.218-5.807-0.298
			c-0.641-0.026-1.25,0.105-1.865,0.182c-0.955,0.12-1.914,0.334-2.789,0.762c-1.393,0.682-2.203,1.618-2.814,3.09
			c-0.09,0.218-0.045,0.444-0.158,0.678c-0.113,0.238-0.133,0.587-0.168,0.886c-0.053,0.463-0.07,0.945-0.002,1.404
			c0.107,0.728,0.275,1.458,0.594,2.121c0.289,0.603,0.725,1.126,1.244,1.559c0.816,0.676,1.754,1.078,2.773,1.357
			c0.68,0.187,1.389,0.182,2.047,0.425c0.021,0.007,0.049,0,0.072,0c1.439,0.029,2.869,0.236,4.312,0.151
			c0.354-0.021,0.676-0.206,1.051-0.16c0.326,0.038,0.646-0.018,0.979-0.118c0.354-0.104,0.746-0.059,1.123-0.155
			c1.363-0.339,2.455-0.654,3.334-1.619c0.406-0.444,0.725-1.081,0.844-1.727c0.02-0.11,0.131-0.205,0.135-0.312
			c0.014-0.391,0.004-0.787-0.002-1.182c-0.334-0.021-0.67-0.062-1.006-0.062c-3.039-0.005-6.08-0.004-9.115-0.002
			c-0.432,0-0.398,0.041-0.393-0.393c0.002-0.244,0.01-0.49,0.014-0.736c0.264-0.018,0.527-0.055,0.791-0.055
			C50.448,16.799,52.155,16.803,53.858,16.803z"/>
		<linearGradient id="SVGID_26_" gradientUnits="userSpaceOnUse" x1="5.3916" y1="16.9546" x2="25.2705" y2="16.9546">
			<stop  offset="0.0141" style="stop-color:#E92700"/>
			<stop  offset="0.057" style="stop-color:#EA3508"/>
			<stop  offset="0.1977" style="stop-color:#EE5C20"/>
			<stop  offset="0.3267" style="stop-color:#F17931"/>
			<stop  offset="0.4388" style="stop-color:#F28A3B"/>
			<stop  offset="0.5213" style="stop-color:#F3903F"/>
			<stop  offset="0.5837" style="stop-color:#F49245"/>
			<stop  offset="0.6679" style="stop-color:#F69856"/>
			<stop  offset="0.7646" style="stop-color:#F9A273"/>
			<stop  offset="0.8698" style="stop-color:#FEAF9A"/>
			<stop  offset="0.8876" style="stop-color:#FFB2A1"/>
		</linearGradient>
		<path class="st28" d="M5.399,17.014c0-2.124,0-4.246,0-6.369c0-0.148-0.002-0.296,0.002-0.445
			c0.004-0.229,0.137-0.342,0.354-0.364c0.121-0.01,0.248-0.001,0.369-0.001c2.986,0,5.975-0.007,8.959,0.007
			c0.449,0.001,0.896,0.11,1.348,0.135c0.443,0.025,0.904-0.067,1.328,0.022c0.666,0.141,1.348,0.162,2.004,0.342
			c0.621,0.17,1.285,0.259,1.84,0.553c0.877,0.464,1.758,0.935,2.361,1.827c0.422,0.624,0.799,1.236,1.027,1.95
			c0.135,0.427,0.244,0.856,0.264,1.297c0.025,0.59-0.012,1.184,0.014,1.777c0.025,0.745-0.205,1.43-0.467,2.105
			c-0.361,0.929-0.969,1.698-1.732,2.31c-0.682,0.542-1.479,0.921-2.328,1.162c-0.717,0.207-1.451,0.328-2.182,0.472
			c-0.578,0.113-1.16,0.022-1.715,0.138c-1.215,0.252-2.43,0.092-3.646,0.125c-1.256,0.033-2.516,0.009-3.775,0.009
			c-1.234,0-2.471-0.009-3.703,0.006c-0.252,0.003-0.33-0.044-0.328-0.32C5.405,21.504,5.399,19.26,5.399,17.014z M6.733,16.965
			c0,1.879,0.004,3.754-0.004,5.631c-0.002,0.223,0.055,0.29,0.283,0.288c1.383-0.01,2.766-0.005,4.148-0.005
			c1.137,0,2.271,0.021,3.408-0.005c1.117-0.028,2.232,0.091,3.352-0.122c0.457-0.086,0.93-0.148,1.393-0.234
			c0.471-0.087,0.949-0.205,1.393-0.389c1.205-0.499,2.168-1.285,2.783-2.475c0.418-0.812,0.484-1.701,0.564-2.574
			c0.059-0.647-0.115-1.305-0.268-1.951c-0.225-0.954-0.977-2.103-1.787-2.625c-0.662-0.426-1.32-0.863-2.148-0.891
			c-0.289-0.229-0.664-0.19-0.992-0.286c-0.312-0.091-0.646-0.11-0.973-0.158c-0.352-0.052-0.701-0.141-1.049-0.141
			c-3.264-0.013-6.523-0.003-9.781-0.013c-0.256,0-0.334,0.044-0.33,0.32C6.739,13.212,6.733,15.089,6.733,16.965z"/>
		<linearGradient id="SVGID_27_" gradientUnits="userSpaceOnUse" x1="93.3223" y1="16.9385" x2="116.1201" y2="16.9385">
			<stop  offset="0.0141" style="stop-color:#E92700"/>
			<stop  offset="0.057" style="stop-color:#EA3508"/>
			<stop  offset="0.1977" style="stop-color:#EE5C20"/>
			<stop  offset="0.3267" style="stop-color:#F17931"/>
			<stop  offset="0.4388" style="stop-color:#F28A3B"/>
			<stop  offset="0.5213" style="stop-color:#F3903F"/>
			<stop  offset="0.5837" style="stop-color:#F49245"/>
			<stop  offset="0.6679" style="stop-color:#F69856"/>
			<stop  offset="0.7646" style="stop-color:#F9A273"/>
			<stop  offset="0.8698" style="stop-color:#FEAF9A"/>
			<stop  offset="0.8876" style="stop-color:#FFB2A1"/>
		</linearGradient>
		<path class="st29" d="M104.774,9.836c0.551-0.124,0.963,0.125,1.363,0.721c0.869,1.289,1.881,2.482,2.803,3.736
			c0.986,1.346,1.947,2.712,2.979,4.029c0.867,1.11,1.668,2.276,2.51,3.406c0.535,0.714,1.094,1.411,1.588,2.155
			c0.027,0.039,0.07,0.07,0.104,0.105c-0.061,0.023-0.119,0.07-0.184,0.072c-0.221,0.01-0.443,0.005-0.666,0.005
			c-0.752,0-0.77,0.01-1.215-0.716c-0.42-0.684-0.951-1.281-1.398-1.94c-0.223-0.329-0.523-0.599-0.689-0.971
			c-0.066-0.144-0.211-0.267-0.42-0.231c-0.145,0.021-0.295,0.003-0.443,0.003c-4.25,0-8.498,0.021-12.748-0.021
			c-0.641-0.008-1.037,0.256-1.34,0.696c-0.316,0.46-0.637,0.92-0.961,1.376c-0.314,0.443-0.66,0.861-0.99,1.295
			c-0.055,0.072-0.1,0.156-0.137,0.238c-0.09,0.199-0.23,0.286-0.455,0.275c-0.346-0.02-0.691,0-1.037-0.008
			c-0.152-0.002-0.133-0.057-0.053-0.164c0.721-0.959,1.443-1.918,2.148-2.888c0.604-0.833,1.176-1.688,1.785-2.518
			c0.508-0.687,1.062-1.335,1.564-2.024c0.469-0.642,0.977-1.254,1.395-1.938c0.303-0.501,0.715-0.939,1.072-1.411
			c0.771-1.012,1.555-2.017,2.287-3.058c0.115-0.164,0.172-0.236,0.352-0.229C104.21,9.841,104.433,9.836,104.774,9.836z
			 M104.626,19.174c0.938,0,1.873,0,2.812,0c1.084,0,2.17-0.008,3.256,0.005c0.371,0.003,0.158-0.144,0.098-0.265
			c-0.035-0.061-0.045-0.136-0.084-0.188c-0.748-0.999-1.494-1.997-2.25-2.991c-0.639-0.847-1.326-1.662-1.924-2.537
			c-0.553-0.81-1.197-1.553-1.691-2.404c-0.023-0.042-0.203-0.06-0.238-0.022c-0.189,0.209-0.355,0.44-0.531,0.665
			c-0.523,0.671-1.098,1.31-1.557,2.022c-0.611,0.952-1.348,1.805-1.99,2.729c-0.332,0.48-0.721,0.914-1.02,1.422
			c-0.283,0.485-0.686,0.904-1.033,1.353c-0.039,0.052-0.078,0.104-0.117,0.156c0.068,0.019,0.133,0.053,0.199,0.053
			C100.579,19.175,102.603,19.174,104.626,19.174z"/>
		<linearGradient id="SVGID_28_" gradientUnits="userSpaceOnUse" x1="72.249" y1="16.9521" x2="93.3184" y2="16.9521">
			<stop  offset="0.0141" style="stop-color:#E92700"/>
			<stop  offset="0.057" style="stop-color:#EA3508"/>
			<stop  offset="0.1977" style="stop-color:#EE5C20"/>
			<stop  offset="0.3267" style="stop-color:#F17931"/>
			<stop  offset="0.4388" style="stop-color:#F28A3B"/>
			<stop  offset="0.5213" style="stop-color:#F3903F"/>
			<stop  offset="0.5837" style="stop-color:#F49245"/>
			<stop  offset="0.6679" style="stop-color:#F69856"/>
			<stop  offset="0.7646" style="stop-color:#F9A273"/>
			<stop  offset="0.8698" style="stop-color:#FEAF9A"/>
			<stop  offset="0.8876" style="stop-color:#FFB2A1"/>
		</linearGradient>
		<path class="st30" d="M82.847,9.836c3.359,0,6.721-0.001,10.08,0c0.361,0,0.369,0.004,0.367,0.339
			c0,0.268,0.082,0.631-0.057,0.776c-0.133,0.139-0.502,0.068-0.768,0.068c-2.914,0.004-5.83,0.001-8.746,0.002
			c-0.352,0-0.357,0.006-0.357,0.353c0,4.001,0,8.003,0,12.006c0,0.691,0,0.691-0.691,0.687c-0.1-0.001-0.199-0.007-0.299,0.002
			c-0.164,0.014-0.209-0.067-0.199-0.22c0.008-0.172,0.004-0.345,0.004-0.518c0-3.879,0-7.758,0-11.636
			c0-0.674-0.002-0.674-0.703-0.674c-2.768,0-5.535,0-8.301,0c-0.1,0-0.199,0-0.299,0c-0.613-0.006-0.633-0.026-0.629-0.611
			c0.002-0.511,0.061-0.574,0.592-0.574C76.177,9.834,79.513,9.836,82.847,9.836z"/>
		<linearGradient id="SVGID_29_" gradientUnits="userSpaceOnUse" x1="120.7012" y1="16.9541" x2="137.9277" y2="16.9541">
			<stop  offset="0.0141" style="stop-color:#E92700"/>
			<stop  offset="0.057" style="stop-color:#EA3508"/>
			<stop  offset="0.1977" style="stop-color:#EE5C20"/>
			<stop  offset="0.3267" style="stop-color:#F17931"/>
			<stop  offset="0.4388" style="stop-color:#F28A3B"/>
			<stop  offset="0.5213" style="stop-color:#F3903F"/>
			<stop  offset="0.5837" style="stop-color:#F49245"/>
			<stop  offset="0.6679" style="stop-color:#F69856"/>
			<stop  offset="0.7646" style="stop-color:#F9A273"/>
			<stop  offset="0.8698" style="stop-color:#FEAF9A"/>
			<stop  offset="0.8876" style="stop-color:#FFB2A1"/>
		</linearGradient>
		<path class="st31" d="M129.272,24.066c-2.594,0-5.184,0-7.775,0c-0.146,0-0.297-0.011-0.445,0.002
			c-0.229,0.019-0.402,0.003-0.336-0.306c0.021-0.094,0.006-0.196,0.006-0.295c0-4.295,0-8.589,0-12.882c0-0.124-0.01-0.248,0-0.37
			c0.023-0.321,0.145-0.384,0.711-0.379c0.5,0.003,0.6,0.064,0.619,0.398c0.012,0.173,0.002,0.347,0.002,0.519
			c0,3.799,0,7.601,0,11.402c0,0.172,0.01,0.346-0.002,0.518c-0.01,0.158,0.049,0.219,0.209,0.209
			c0.17-0.01,0.346-0.002,0.518-0.002c4.789,0,9.576,0,14.363,0c0.146,0,0.297,0.014,0.445-0.003
			c0.242-0.026,0.377,0.019,0.332,0.31c-0.041,0.287-0.045,0.577-0.064,0.864c-0.271,0.005-0.539,0.013-0.809,0.015
			C134.454,24.066,131.864,24.066,129.272,24.066z"/>
		<linearGradient id="SVGID_30_" gradientUnits="userSpaceOnUse" x1="31.1787" y1="16.9414" x2="32.54" y2="16.9414">
			<stop  offset="0.0141" style="stop-color:#E92700"/>
			<stop  offset="0.057" style="stop-color:#EA3508"/>
			<stop  offset="0.1977" style="stop-color:#EE5C20"/>
			<stop  offset="0.3267" style="stop-color:#F17931"/>
			<stop  offset="0.4388" style="stop-color:#F28A3B"/>
			<stop  offset="0.5213" style="stop-color:#F3903F"/>
			<stop  offset="0.5837" style="stop-color:#F49245"/>
			<stop  offset="0.6679" style="stop-color:#F69856"/>
			<stop  offset="0.7646" style="stop-color:#F9A273"/>
			<stop  offset="0.8698" style="stop-color:#FEAF9A"/>
			<stop  offset="0.8876" style="stop-color:#FFB2A1"/>
		</linearGradient>
		<path class="st32" d="M32.524,16.949c0,2.245,0.002,4.489,0,6.733c0,0.377-0.006,0.379-0.398,0.383
			c-0.174,0.003-0.348,0.007-0.52-0.002c-0.299-0.016-0.404-0.133-0.416-0.451c-0.006-0.173,0-0.346,0-0.52
			c0-4.143,0-8.286,0-12.429c0-0.174-0.033-0.355,0.01-0.515c0.031-0.118,0.156-0.221,0.26-0.306
			c0.045-0.037,0.143-0.009,0.217-0.006c0.268,0.008,0.629-0.081,0.775,0.057c0.141,0.133,0.07,0.502,0.07,0.767
			C32.526,12.757,32.524,14.853,32.524,16.949z"/>
		<linearGradient id="SVGID_31_" gradientUnits="userSpaceOnUse" x1="66.0234" y1="16.9414" x2="67.2188" y2="16.9414">
			<stop  offset="0.0141" style="stop-color:#E92700"/>
			<stop  offset="0.057" style="stop-color:#EA3508"/>
			<stop  offset="0.1977" style="stop-color:#EE5C20"/>
			<stop  offset="0.3267" style="stop-color:#F17931"/>
			<stop  offset="0.4388" style="stop-color:#F28A3B"/>
			<stop  offset="0.5213" style="stop-color:#F3903F"/>
			<stop  offset="0.5837" style="stop-color:#F49245"/>
			<stop  offset="0.6679" style="stop-color:#F69856"/>
			<stop  offset="0.7646" style="stop-color:#F9A273"/>
			<stop  offset="0.8698" style="stop-color:#FEAF9A"/>
			<stop  offset="0.8876" style="stop-color:#FFB2A1"/>
		</linearGradient>
		<path class="st33" d="M66.024,16.954c0-2.223-0.002-4.445,0-6.667c0-0.446,0.004-0.451,0.404-0.45c0.244,0,0.57-0.076,0.707,0.05
			c0.129,0.118,0.07,0.453,0.07,0.693c0.004,4.245,0.004,8.49,0.004,12.737c0,0.171-0.016,0.347,0.002,0.517
			c0.023,0.217-0.09,0.241-0.26,0.233c-0.295-0.017-0.586-0.021-0.879-0.027c-0.018-0.289-0.047-0.58-0.047-0.868
			C66.022,21.099,66.024,19.025,66.024,16.954z"/>
	</g>
	<rect x="-93" y="-72" class="st0" width="84.666" height="16"/>
	
		<text transform="matrix(1 0 0 1 -93 -63.1997)" style="display:none;fill:#FFFFFF; font-family:'GillSans-BoldItalic'; font-size:13; letter-spacing:2;">work</text>
	<rect x="-14.667" y="-72" class="st0" width="108.667" height="16"/>
	
		<text transform="matrix(1 0 0 1 -14.667 -63.1997)" style="display:none;fill:#FFFFFF; font-family:'GillSans-BoldItalic'; font-size:13; letter-spacing:2;">work with us</text>
	<rect x="128.333" y="-72" class="st0" width="84.667" height="16"/>
	
		<text transform="matrix(1 0 0 1 128.333 -63.1997)" style="display:none;fill:#FFFFFF; font-family:'GillSans-BoldItalic'; font-size:13; letter-spacing:2;">about</text>
	<rect x="-266.334" y="-41.333" class="st41" width="293.333" height="153.333"/>
</g>
<g id="Layer_5" class="st12">
	<rect x="-148" y="-91" class="st7" width="95" height="79"/>
	<circle class="st3" cx="-438.333" cy="-67.333" r="14.667"/>
	<g class="st6">
		<g>
			<linearGradient id="SVGID_32_" gradientUnits="userSpaceOnUse" x1="-444.5" y1="-73.5303" x2="-436.0947" y2="-73.5303">
				<stop  offset="0" style="stop-color:#10A4DE"/>
				<stop  offset="0.0827" style="stop-color:#1E94C6"/>
				<stop  offset="0.1826" style="stop-color:#2B86AF"/>
				<stop  offset="0.2777" style="stop-color:#327DA2"/>
				<stop  offset="0.3623" style="stop-color:#357A9D"/>
				<stop  offset="0.9952" style="stop-color:#CCEAF1"/>
			</linearGradient>
			<polygon class="st10" points="-444.5,-70.188 -444.5,-76.874 -436.095,-76.874 			"/>
			<linearGradient id="SVGID_33_" gradientUnits="userSpaceOnUse" x1="-444.7446" y1="-64.8691" x2="-431.0356" y2="-64.8691">
				<stop  offset="0" style="stop-color:#10A4DE"/>
				<stop  offset="0.0827" style="stop-color:#1E94C6"/>
				<stop  offset="0.1826" style="stop-color:#2B86AF"/>
				<stop  offset="0.2777" style="stop-color:#327DA2"/>
				<stop  offset="0.3623" style="stop-color:#357A9D"/>
				<stop  offset="0.9952" style="stop-color:#CCEAF1"/>
			</linearGradient>
			<path class="st11" d="M-438.666-60.77c0.094,0.45,0.302,0.875,0.302,1.364c0,0.184-0.015,0.363-0.046,0.535
				c-0.004,0.022-0.008,0.046-0.011,0.068c-0.283,1.475-1.578,2.587-3.133,2.587c-1.761,0-3.19-1.425-3.19-3.19
				c0-0.783,0.279-1.498,0.749-2.052c0.016-0.015,0.031-0.034,0.046-0.049c2.545-3.924,12.673-11.833,12.915-12.016
				C-431.25-73.278-439.234-65.901-438.666-60.77z"/>
		</g>
		<g>
			<polygon class="st4" points="-443.83,-68.982 -443.83,-75.668 -435.425,-75.668 			"/>
			<path class="st4" d="M-437.996-59.564c0.094,0.45,0.302,0.875,0.302,1.364c0,0.184-0.016,0.363-0.046,0.535
				c-0.004,0.022-0.008,0.046-0.011,0.068c-0.283,1.475-1.579,2.586-3.133,2.586c-1.761,0-3.19-1.425-3.19-3.19
				c0-0.783,0.279-1.498,0.749-2.052c0.016-0.015,0.031-0.034,0.046-0.05c2.544-3.923,12.673-11.832,12.914-12.016
				C-430.58-72.073-438.564-64.696-437.996-59.564z"/>
		</g>
	</g>
</g>
</svg>
