<?xml version="1.0" encoding="utf-8"?>
<!-- Generator: Adobe Illustrator 16.0.0, SVG Export Plug-In . SVG Version: 6.00 Build 0)  -->
<!DOCTYPE svg PUBLIC "-//W3C//DTD SVG 1.1//EN" "http://www.w3.org/Graphics/SVG/1.1/DTD/svg11.dtd">
<svg version="1.1" xmlns="http://www.w3.org/2000/svg" xmlns:xlink="http://www.w3.org/1999/xlink" x="0px" y="0px"
	 width="100%" height="100%" viewBox="0 0 634.468 659.967" style="enable-background:new 0 0 634.468 659.967;"
	 xml:space="preserve">
<style type="text/css">
<![CDATA[
	.st0{display:inline;fill-rule:evenodd;clip-rule:evenodd;fill:url(#SVGID_1_);}
	.st1{display:inline;fill-rule:evenodd;clip-rule:evenodd;fill:url(#SVGID_2_);}
	.st2{font-family:'GillSans-BoldItalic';}
	.st3{display:inline;fill:#FFFFFF;stroke:url(#SVGID_19_);stroke-miterlimit:10;}
	.st4{display:inline;fill:#CCEAF1;}
	.st5{fill:#FFFFFF;}
	.st6{display:inline;}
	.st7{display:none;fill-rule:evenodd;clip-rule:evenodd;fill:#231F20;}
	.st8{display:inline;fill:none;}
	.st9{letter-spacing:2;}
	.st10{fill-rule:evenodd;clip-rule:evenodd;fill:#FFFFFF;}
	.st11{display:inline;fill-rule:evenodd;clip-rule:evenodd;fill:none;}
	.st12{font-size:13;}
	.st13{fill:url(#SVGID_32_);}
	.st14{fill:url(#SVGID_33_);}
	.st15{display:none;}
	.st16{fill-rule:evenodd;clip-rule:evenodd;fill:url(#SVGID_10_);}
	.st17{fill-rule:evenodd;clip-rule:evenodd;fill:url(#SVGID_11_);}
	.st18{fill-rule:evenodd;clip-rule:evenodd;fill:url(#SVGID_12_);}
	.st19{fill-rule:evenodd;clip-rule:evenodd;fill:url(#SVGID_13_);}
	.st20{fill-rule:evenodd;clip-rule:evenodd;fill:url(#SVGID_14_);}
	.st21{fill-rule:evenodd;clip-rule:evenodd;fill:url(#SVGID_15_);}
	.st22{fill-rule:evenodd;clip-rule:evenodd;fill:url(#SVGID_16_);}
	.st23{fill-rule:evenodd;clip-rule:evenodd;fill:url(#SVGID_17_);}
	.st24{fill-rule:evenodd;clip-rule:evenodd;fill:url(#SVGID_18_);}
	.st25{fill-rule:evenodd;clip-rule:evenodd;fill:url(#SVGID_20_);}
	.st26{fill-rule:evenodd;clip-rule:evenodd;fill:url(#SVGID_21_);}
	.st27{fill-rule:evenodd;clip-rule:evenodd;fill:url(#SVGID_22_);}
	.st28{fill-rule:evenodd;clip-rule:evenodd;fill:url(#SVGID_23_);}
	.st29{fill-rule:evenodd;clip-rule:evenodd;fill:url(#SVGID_24_);}
	.st30{fill-rule:evenodd;clip-rule:evenodd;fill:url(#SVGID_25_);}
	.st31{fill-rule:evenodd;clip-rule:evenodd;fill:url(#SVGID_26_);}
	.st32{fill-rule:evenodd;clip-rule:evenodd;fill:url(#SVGID_27_);}
	.st33{fill-rule:evenodd;clip-rule:evenodd;fill:url(#SVGID_28_);}
	.st34{fill-rule:evenodd;clip-rule:evenodd;fill:url(#SVGID_29_);}
	.st35{fill-rule:evenodd;clip-rule:evenodd;fill:url(#SVGID_30_);}
	.st36{fill-rule:evenodd;clip-rule:evenodd;fill:url(#SVGID_31_);}
	.st37{fill-rule:evenodd;clip-rule:evenodd;fill:url(#SVGID_3_);}
	.st38{fill-rule:evenodd;clip-rule:evenodd;fill:url(#SVGID_4_);}
	.st39{fill-rule:evenodd;clip-rule:evenodd;fill:url(#SVGID_5_);}
	.st40{fill-rule:evenodd;clip-rule:evenodd;fill:url(#SVGID_6_);}
	.st41{fill-rule:evenodd;clip-rule:evenodd;fill:url(#SVGID_7_);}
	.st42{fill-rule:evenodd;clip-rule:evenodd;fill:url(#SVGID_8_);}
	.st43{fill-rule:evenodd;clip-rule:evenodd;fill:url(#SVGID_9_);}
	.st44{display:none;fill-rule:evenodd;clip-rule:evenodd;fill:none;}
	.st45{fill-rule:evenodd;clip-rule:evenodd;fill:none;stroke:#F9ED32;stroke-miterlimit:10;}
]]>
</style>
<g id="Layer_6" class="st15">
	<linearGradient id="SVGID_1_" gradientUnits="userSpaceOnUse" x1="-19.5" y1="337.1021" x2="1001.8813" y2="337.1021">
		<stop  offset="0.0141" style="stop-color:#E92700"/>
		<stop  offset="0.057" style="stop-color:#EA3508"/>
		<stop  offset="0.1977" style="stop-color:#EE5C20"/>
		<stop  offset="0.3267" style="stop-color:#F17931"/>
		<stop  offset="0.4388" style="stop-color:#F28A3B"/>
		<stop  offset="0.5213" style="stop-color:#F3903F"/>
		<stop  offset="0.5837" style="stop-color:#F49245"/>
		<stop  offset="0.6679" style="stop-color:#F69856"/>
		<stop  offset="0.7646" style="stop-color:#F9A273"/>
		<stop  offset="0.8698" style="stop-color:#FEAF9A"/>
		<stop  offset="0.8876" style="stop-color:#FFB2A1"/>
	</linearGradient>
	<rect x="-19.5" y="-46.385" class="st0" width="1021.381" height="766.974"/>
</g>
<g id="Layer_7" class="st15">
	<linearGradient id="SVGID_2_" gradientUnits="userSpaceOnUse" x1="489.6826" y1="659.9429" x2="489.6826" y2="1.2041">
		<stop  offset="0.0141" style="stop-color:#E92700"/>
		<stop  offset="0.057" style="stop-color:#EA3508"/>
		<stop  offset="0.1977" style="stop-color:#EE5C20"/>
		<stop  offset="0.3267" style="stop-color:#F17931"/>
		<stop  offset="0.4388" style="stop-color:#F28A3B"/>
		<stop  offset="0.5213" style="stop-color:#F3903F"/>
		<stop  offset="0.5837" style="stop-color:#F49245"/>
		<stop  offset="0.6679" style="stop-color:#F69856"/>
		<stop  offset="0.7646" style="stop-color:#F9A273"/>
		<stop  offset="0.8698" style="stop-color:#FEAF9A"/>
		<stop  offset="0.8876" style="stop-color:#FFB2A1"/>
	</linearGradient>
	<polygon class="st1" points="273.37,659.007 977.743,659.007 977.743,1.204 1.622,1.204 1.622,659.943 	"/>
</g>
<g id="Layer_3">
	<path class="st7" d="M445.96,174.752c-3.612,0-7.224-0.001-10.836,0.001c-0.531,0-0.46,0.02-0.46-0.467
		c0-5.214,0-10.428,0.002-15.642c0-0.604,0.075-0.673,0.701-0.673c7.049-0.001,14.099-0.001,21.147-0.001
		c0.058,0,0.117-0.002,0.175,0c0.377,0.016,0.52,0.136,0.522,0.501c0.009,1.02-0.003,2.039,0.008,3.059
		c0.002,0.231-0.071,0.307-0.296,0.289c-0.202-0.016-0.408-0.003-0.611-0.003c-5.359,0-10.719,0-16.079,0
		c-0.204,0-0.408,0.009-0.612-0.002c-0.191-0.011-0.244,0.071-0.241,0.252c0.008,0.699,0.014,1.398-0.003,2.098
		c-0.006,0.249,0.099,0.29,0.307,0.277c0.204-0.012,0.408-0.003,0.612-0.003c5.185,0,10.37,0,15.555,0
		c0.204,0,0.408,0.009,0.611-0.002c0.202-0.011,0.232,0.09,0.23,0.263c-0.006,1.049-0.006,2.098,0,3.146
		c0.001,0.169-0.022,0.276-0.227,0.267c-0.232-0.011-0.466-0.002-0.699-0.002c-5.156,0-10.312,0-15.467,0
		c-0.204,0-0.408,0.008-0.611-0.002c-0.202-0.011-0.321,0.018-0.31,0.274c0.036,0.835,0.05,1.67,0.073,2.505
		c0.784,0.007,1.567,0.019,2.351,0.019c4.981,0.001,9.962,0,14.943,0.001c0.466,0,0.474-0.096,0.471,0.456
		c-0.006,1.048-0.005,2.097,0.001,3.146c0.001,0.187-0.061,0.257-0.248,0.247c-0.203-0.012-0.408-0.003-0.611-0.003
		C452.893,174.752,449.427,174.752,445.96,174.752z"/>
	<path class="st7" d="M387.983,174.752c-3.554,0-7.107,0-10.661-0.001c-0.513,0-0.518-0.004-0.518-0.492
		c-0.001-5.185-0.002-10.37,0-15.555c0-0.706,0.026-0.732,0.73-0.732c3.437-0.002,6.875-0.001,10.312-0.001
		c3.496,0,6.991,0,10.486,0c0.204,0,0.408,0.009,0.611-0.002c0.194-0.011,0.24,0.075,0.239,0.255
		c-0.006,1.107-0.011,2.214,0.003,3.321c0.002,0.253-0.106,0.287-0.31,0.275c-0.204-0.011-0.408-0.002-0.612-0.002
		c-5.272,0-10.544,0-15.817,0c-0.233,0-0.466,0.008-0.699-0.002c-0.204-0.01-0.23,0.094-0.229,0.266
		c0.007,0.699,0.007,1.398,0,2.097c-0.002,0.172,0.027,0.275,0.229,0.264c0.204-0.011,0.408-0.002,0.611-0.002
		c5.127,0,10.254,0,15.38,0c0.175,0,0.35-0.005,0.524,0.001c0.435,0.015,0.556,0.125,0.562,0.55
		c0.009,0.641,0.005,1.282,0.002,1.922c-0.002,0.376-0.011,0.752-0.018,1.128c-0.398,0.023-0.796,0.066-1.194,0.066
		c-5.068,0.005-10.137,0.003-15.205,0.003c-0.233,0-0.468-0.017-0.698,0.009c-0.07,0.008-0.138,0.125-0.186,0.205
		c-0.026,0.042-0.005,0.114-0.005,0.172c0.009,0.783,0.017,1.566,0.026,2.349c0.778,0.021,1.556,0.059,2.334,0.059
		c4.922,0.005,9.845,0.002,14.768,0.003c0.522,0,0.526,0.003,0.527,0.483c0.003,0.961,0.003,1.923,0,2.884
		c-0.001,0.472-0.005,0.477-0.446,0.477c-1.282,0.002-2.563,0.001-3.845,0.001C392.585,174.752,390.284,174.752,387.983,174.752z"/>
	<path class="st7" d="M388.257,196.906c-3.466,0-6.933,0-10.399,0c-0.204,0-0.41,0.017-0.611-0.009
		c-0.077-0.01-0.191-0.111-0.201-0.184c-0.028-0.2-0.01-0.406-0.01-0.61c0-5.01,0-10.021,0-15.031c0-0.175-0.009-0.35,0.002-0.524
		c0.017-0.261,0.161-0.411,0.426-0.423c0.146-0.008,0.291-0.001,0.437-0.001c6.961,0,13.923,0,20.885,0
		c0.146,0,0.297-0.023,0.435,0.01c0.075,0.018,0.182,0.131,0.183,0.203c0.011,1.135,0.004,2.272,0.011,3.407
		c0.001,0.203-0.093,0.238-0.266,0.229c-0.204-0.012-0.408-0.003-0.612-0.003c-5.302,0-10.603,0-15.904,0
		c-0.204,0-0.408,0.008-0.611-0.002c-0.168-0.008-0.271,0.02-0.269,0.225c0.008,0.729,0.007,1.457,0,2.185
		c-0.002,0.212,0.116,0.223,0.276,0.217c0.204-0.007,0.408-0.002,0.611-0.002c5.126,0,10.253,0,15.38,0
		c0.204,0,0.408-0.005,0.611,0.002c0.269,0.008,0.424,0.163,0.426,0.421c0.01,1.02,0.008,2.039-0.004,3.059
		c-0.001,0.064-0.127,0.173-0.204,0.181c-0.23,0.024-0.464,0.009-0.698,0.009c-5.185,0-10.37,0-15.555,0
		c-0.204,0-0.409,0.008-0.612-0.002c-0.198-0.011-0.235,0.084-0.233,0.26c0.007,0.757,0.015,1.515-0.003,2.272
		c-0.006,0.264,0.121,0.271,0.315,0.269c0.524-0.006,1.049-0.002,1.573-0.002c4.981,0,9.962,0,14.943,0
		c0.204,0,0.41-0.017,0.611,0.008c0.079,0.01,0.15,0.11,0.218,0.175c0.015,0.014,0.002,0.056,0.002,0.085
		c-0.022,1.185-0.044,2.37-0.066,3.555c-1.104,0.007-2.208,0.019-3.312,0.021C393.442,196.908,390.849,196.906,388.257,196.906z"/>
	<path class="st7" d="M446.068,179.949c0.741,0,1.239,0.037,1.73-0.007c1.211-0.11,2.394,0.201,3.599,0.205
		c0.34,0.001,0.691,0.188,1.063,0.155c0.396-0.035,0.734,0.243,1.153,0.188c0.349-0.046,0.705,0.125,1.056,0.189
		c0.765,0.137,1.503,0.432,2.248,0.676c0.076,0.025,0.173,0.14,0.174,0.215c0.01,1.194,0.01,2.388,0.004,3.583
		c0,0.255-0.127,0.269-0.33,0.15c-0.735-0.432-1.567-0.593-2.377-0.794c-0.396-0.098-0.797-0.181-1.179-0.324
		c-0.368-0.137-0.75-0.014-1.149-0.18c-0.497-0.206-1.115-0.097-1.657-0.223c-0.819-0.19-1.668-0.026-2.458-0.195
		c-0.92-0.198-1.823-0.103-2.731-0.129c-0.469-0.013-0.941,0.127-1.414,0.156c-0.494,0.029-0.999-0.05-1.483,0.021
		c-0.56,0.083-1.118,0.239-1.651,0.436c-0.596,0.22-0.746,0.49-0.7,0.997c0.043,0.479,0.367,0.895,0.846,0.991
		c0.464,0.094,0.938,0.147,1.412,0.178c0.908,0.06,1.803,0.244,2.724,0.191c0.9-0.052,1.83-0.14,2.703,0.021
		c1.093,0.202,2.172,0.069,3.254,0.147c0.356,0.026,0.708,0.115,1.063,0.168s0.75-0.13,1.063,0.176
		c0.463-0.1,0.885,0.108,1.326,0.177c0.898,0.14,2.055,0.5,2.821,1.208c0.764,0.705,0.868,0.978,1.166,2.042
		c0.168,0.601,0.177,1.186,0.131,1.768c-0.046,0.593-0.147,1.223-0.408,1.744c-0.243,0.484-0.477,1.063-1.073,1.291
		c-0.505,0.701-1.353,0.815-2.058,1.152c-0.504,0.241-1.103,0.299-1.666,0.403c-1.569,0.287-3.151,0.414-4.748,0.363
		c-0.294-0.01-0.59,0.128-0.89,0.159c-0.288,0.029-0.583,0.024-0.873,0.002c-0.617-0.046-1.232-0.135-1.85-0.165
		c-0.611-0.029-1.244,0.09-1.83-0.033c-0.594-0.125-1.202-0.035-1.762-0.173c-0.828-0.204-1.706-0.112-2.504-0.485
		c-0.26-0.122-0.629,0.089-0.882-0.189c-0.516,0.042-0.97-0.265-1.433-0.306c-0.499-0.044-0.836-0.455-1.338-0.414
		c-0.077,0.006-0.25-0.252-0.253-0.392c-0.021-1.136-0.012-2.271-0.011-3.408c0-0.297,0.25-0.233,0.37-0.189
		c0.303,0.11,0.608,0.239,0.896,0.366c0.731,0.325,1.515,0.417,2.263,0.653c0.778,0.244,1.602,0.386,2.404,0.501
		c0.575,0.083,1.159,0.229,1.757,0.227c0.354-0.001,0.708,0.129,1.063,0.158c0.376,0.029,0.792-0.091,1.129,0.026
		c0.82,0.284,1.647,0.112,2.468,0.147c0.814,0.035,1.646,0.103,2.442-0.02c0.739-0.114,1.472-0.089,2.203-0.163
		c0.56-0.057,1.121-0.237,1.614-0.518c0.583-0.331,0.588-1.386,0.01-1.716c-0.32-0.185-0.702-0.324-1.068-0.359
		c-1.195-0.114-2.391-0.277-3.597-0.186c-0.802,0.061-1.564-0.261-2.376-0.192c-0.78,0.067-1.589,0.116-2.353-0.017
		c-0.625-0.108-1.234-0.138-1.856-0.139c-0.368,0-0.683-0.293-1.062-0.178c-0.387,0.117-0.703-0.151-1.063-0.183
		c-0.357-0.031-0.735-0.048-1.059-0.182c-0.772-0.319-1.617-0.458-2.271-1.087c-0.294-0.281-0.674-0.487-0.823-0.881
		c-0.142-0.377-0.348-0.715-0.416-1.145c-0.217-1.372-0.232-2.206,0.209-3.365c0.143-0.375,0.352-0.769,0.639-1.037
		c0.54-0.504,1.093-0.972,1.837-1.247c0.829-0.305,1.668-0.481,2.514-0.69c0.479-0.119,0.96-0.059,1.415-0.166
		C443.559,179.787,444.942,180.054,446.068,179.949z"/>
	<path class="st7" d="M359.5,157.796c0.826,0,1.412,0.042,1.99-0.009c1.124-0.099,2.235,0.104,3.331,0.229
		c1.129,0.129,2.312,0.165,3.385,0.654c0.683-0.027,1.266,0.294,1.888,0.499c0.282,0.093,0.434,0.083,0.425,0.439
		c-0.026,1.106-0.007,2.213-0.011,3.32c-0.001,0.312-0.063,0.352-0.339,0.205c-0.75-0.398-1.578-0.557-2.381-0.79
		c-0.761-0.22-1.555-0.284-2.321-0.506c-0.558-0.162-1.17-0.13-1.756-0.197c-0.414-0.047-0.824-0.137-1.239-0.167
		c-0.405-0.029-0.848,0.095-1.216-0.026c-0.995-0.328-1.999-0.059-2.992-0.155c-0.774,0.293-1.59,0.076-2.371,0.196
		c-0.563,0.086-1.148,0.103-1.696,0.322c-0.484,0.193-0.805,0.521-0.817,0.943c-0.02,0.644,0.298,1.016,0.943,1.167
		c0.525,0.123,1.065,0.106,1.586,0.189c1.722,0.273,3.46,0,5.168,0.194c1.003,0.113,1.995,0.072,2.989,0.142
		c0.415,0.029,0.825,0.116,1.239,0.169c0.385,0.049,0.78-0.088,1.162,0.158c0.165,0.106,0.458-0.004,0.687,0.025
		c0.185,0.023,0.356,0.131,0.541,0.164c1.209,0.222,2.347,0.589,3.209,1.534c0.521,0.57,0.765,1.254,0.834,2.014
		c0.022,0.245-0.109,0.522,0.148,0.729c0.033,0.026,0.018,0.181-0.026,0.224c-0.257,0.248-0.115,0.553-0.118,0.824
		c-0.01,0.936-0.361,1.702-0.98,2.397c-0.754,0.846-1.731,1.247-2.773,1.542c-0.581,0.165-1.169,0.289-1.771,0.385
		c-0.708,0.114-1.421,0.235-2.133,0.303c-0.722,0.069-1.458-0.028-2.182,0.029c-0.587,0.046-1.163,0.221-1.763,0.162
		c-0.645-0.063-1.291-0.14-1.938-0.169c-0.639-0.029-1.298,0.083-1.916-0.035c-0.477-0.09-0.943-0.113-1.418-0.154
		c-0.472-0.04-0.955-0.104-1.407-0.199c-0.747-0.157-1.507-0.259-2.252-0.439c-0.741-0.18-1.475-0.39-2.21-0.586
		c-0.609-0.163-0.687-0.313-0.688-0.959c-0.002-0.99,0.003-1.98-0.003-2.971c-0.001-0.239,0.077-0.31,0.305-0.218
		c1.137,0.454,2.316,0.753,3.507,1.036c0.446,0.106,0.909,0.146,1.354,0.303c0.437,0.154,0.964,0.057,1.398,0.216
		c0.531,0.195,1.104,0.002,1.576,0.2c0.551,0.232,1.086,0.009,1.605,0.134c1.395,0.336,2.807,0.104,4.21,0.165
		c0.969,0.042,1.92-0.299,2.897-0.17c0.483-0.268,1.08-0.095,1.56-0.466c0.415-0.321,0.697-0.634,0.644-1.038
		c-0.064-0.491-0.394-0.797-0.818-0.928c-0.42-0.129-0.883-0.11-1.32-0.194c-1.222-0.235-2.473-0.036-3.679-0.211
		c-0.949-0.138-1.881-0.129-2.816-0.118c-1.12,0.014-2.213-0.322-3.335-0.191c-0.626-0.254-1.309-0.178-1.955-0.339
		c-0.632-0.158-1.271-0.292-1.875-0.538c-0.841-0.343-1.671-0.698-2.135-1.574c-0.208-0.393-0.592-1.374-0.595-1.764
		c-0.002-0.32,0.021-0.643-0.005-0.961c-0.057-0.686,0.143-1.329,0.369-1.947c0.246-0.673,0.761-1.19,1.331-1.609
		c0.804-0.591,1.717-0.851,2.789-1.073c0.794-0.165,1.604-0.218,2.385-0.371C357.058,157.67,358.402,157.928,359.5,157.796z"/>
	<path class="st7" d="M359.95,179.949c0.466,0,0.936,0.035,1.397-0.007c1.239-0.112,2.47,0.077,3.68,0.225
		c1.13,0.138,2.315,0.153,3.386,0.656c0.776-0.08,1.414,0.406,2.141,0.533c0.073,0.013,0.181,0.133,0.182,0.204
		c0.011,1.223,0.011,2.446-0.003,3.669c0,0.047-0.216,0.153-0.243,0.13c-0.432-0.376-1.007-0.39-1.501-0.603
		c-0.473-0.203-1.005-0.192-1.49-0.413c-0.277-0.126-0.65-0.132-0.969-0.17c-0.915-0.108-1.81-0.327-2.731-0.413
		c-0.735-0.068-1.493-0.013-2.195-0.171c-0.803-0.181-1.589-0.129-2.381-0.133c-1.083-0.004-2.156,0.269-3.248,0.165
		c-0.495,0.295-1.092,0.088-1.607,0.34c-0.382,0.186-0.741,0.555-0.755,0.918c-0.026,0.655,0.271,1.056,0.918,1.185
		c0.522,0.104,1.062,0.124,1.583,0.202c1.723,0.259,3.462-0.01,5.168,0.189c1.062,0.124,2.113,0.059,3.164,0.145
		c0.384,0.031,0.745,0.212,1.152,0.175c0.388-0.035,0.775,0.089,1.153,0.132c0.857,0.097,1.685,0.268,2.486,0.562
		c1.52,0.56,2.114,1.048,2.679,2.66c0.045,0.129,0.032,0.277,0.051,0.416c0.048,0.352,0.236,0.762,0.115,1.038
		c-0.167,0.382-0.098,0.731-0.106,1.089c-0.017,0.658-0.252,1.271-0.623,1.747c-0.654,0.84-1.475,1.529-2.565,1.786
		c-0.798,0.188-1.55,0.588-2.404,0.524c-0.353,0.26-0.785,0.083-1.144,0.196c-0.36,0.113-0.706,0.155-1.07,0.154
		c-0.408-0.001-0.817-0.018-1.223,0.004c-0.85,0.045-1.699,0.151-2.549,0.158c-0.645,0.005-1.29-0.126-1.937-0.156
		c-0.639-0.029-1.298,0.083-1.917-0.034c-0.505-0.095-1.008-0.085-1.503-0.163c-0.472-0.074-0.958-0.091-1.408-0.193
		c-0.391-0.089-0.867,0.013-1.134-0.175c-0.349-0.247-0.711-0.023-1.05-0.248c-0.295-0.196-0.748-0.14-1.114-0.249
		c-0.49-0.146-0.962-0.348-1.446-0.515c-0.248-0.085-0.355-0.235-0.352-0.506c0.01-1.106,0.004-2.213,0.004-3.32
		c0-0.213,0.136-0.242,0.281-0.173c1.232,0.591,2.6,0.74,3.872,1.199c0.819-0.037,1.569,0.397,2.389,0.35
		c0.516,0.315,1.124,0.042,1.646,0.245c0.537,0.208,1.091-0.007,1.614,0.113c1.513,0.349,3.041,0.092,4.561,0.154
		c0.41,0.017,0.823-0.129,1.238-0.157c0.435-0.029,0.914,0.105,1.3-0.034c0.509-0.184,1.134-0.017,1.541-0.496
		c0.344,0.021,0.347-0.29,0.496-0.474c0.154-0.192,0.147-0.392,0.106-0.565c-0.106-0.452-0.412-0.807-0.865-0.867
		c-0.47-0.062-0.944-0.151-1.405-0.227c-1.174-0.191-2.365,0.019-3.509-0.176c-1.21-0.206-2.406-0.046-3.602-0.146
		c-0.878-0.073-1.749-0.244-2.637-0.169c-0.325-0.236-0.701-0.182-1.063-0.171c-0.342,0.01-0.648-0.146-0.971-0.208
		c-1.144-0.218-2.274-0.552-3.219-1.275c-0.464-0.356-0.755-0.854-0.957-1.434c-0.177-0.51-0.354-1.001-0.285-1.537
		c0.068-0.528-0.211-1.095,0.168-1.588c-0.017-0.776,0.369-1.369,0.869-1.912c0.692-0.753,1.559-1.205,2.527-1.495
		c0.293-0.088,0.569-0.199,0.891-0.18c0.271,0.017,0.526-0.132,0.796-0.187c0.908-0.183,1.828-0.25,2.744-0.313
		C358.024,179.897,358.989,179.949,359.95,179.949z"/>
	<path class="st7" d="M488.332,166.375c0,2.651,0,5.302-0.001,7.953c0,0.417-0.006,0.423-0.412,0.423
		c-2.04,0.002-4.079-0.006-6.118,0.009c-0.293,0.002-0.474-0.109-0.669-0.297c-1.144-1.099-2.25-2.243-3.462-3.261
		c-0.931-0.782-1.706-1.72-2.645-2.474c-0.927-0.744-1.668-1.676-2.584-2.412c-0.949-0.763-1.716-1.708-2.647-2.472
		c-0.736-0.604-1.394-1.279-2.083-1.926c-0.065-0.061-0.195-0.069-0.294-0.066c-0.022,0-0.06,0.146-0.06,0.225
		c-0.003,1.603-0.002,3.205-0.002,4.808c0,2.505-0.003,5.011,0.004,7.516c0.001,0.241-0.024,0.361-0.317,0.358
		c-1.311-0.017-2.622-0.01-3.933-0.004c-0.209,0.001-0.331-0.032-0.303-0.28c0.02-0.172,0.004-0.349,0.004-0.524
		c0-5.011,0-10.022,0-15.033c0-0.175-0.01-0.35,0.002-0.524c0.017-0.261,0.159-0.417,0.426-0.422
		c0.379-0.008,0.757-0.002,1.136-0.002c1.69,0,3.379,0.009,5.069-0.006c0.426-0.004,0.752,0.145,1.049,0.431
		c1.476,1.425,2.917,2.89,4.452,4.249c0.95,0.842,1.794,1.796,2.771,2.593c0.897,0.733,1.625,1.635,2.519,2.354
		c0.924,0.744,1.719,1.613,2.577,2.42c0.243,0.229,0.525,0.416,0.79,0.621c0.038,0.029,0.082,0.049,0.123,0.073
		c0.021-0.05,0.058-0.099,0.059-0.149c0.006-0.233,0.003-0.466,0.003-0.699c0-3.816,0-7.633,0.001-11.449
		c0-0.43,0.004-0.436,0.398-0.437c1.224-0.003,2.448-0.003,3.671,0c0.468,0.001,0.473,0.005,0.473,0.45
		c0.002,2.36,0.001,4.72,0.001,7.079C488.332,165.792,488.332,166.083,488.332,166.375z"/>
	<path class="st7" d="M417.562,180.124c0.902,0,1.805,0.018,2.707-0.01c0.333-0.011,0.554,0.115,0.727,0.358
		c0.561,0.785,1.112,1.577,1.669,2.364c0.575,0.811,1.151,1.62,1.729,2.428c0.884,1.235,1.764,2.473,2.655,3.702
		c1.071,1.477,2.094,2.988,3.202,4.439c0.735,0.963,1.407,1.976,2.103,2.969c0.06,0.086,0.068,0.209,0.13,0.293
		c0.083,0.112,0.243,0.233-0.049,0.234c-1.717,0.006-3.434,0-5.151,0.006c-0.182,0-0.183-0.112-0.265-0.232
		c-0.646-0.956-1.375-1.855-1.954-2.86c-0.068-0.119-0.271-0.169-0.422-0.228c-0.075-0.029-0.172-0.005-0.26-0.005
		c-4.599,0-9.197,0.003-13.796-0.007c-0.312-0.001-0.457,0.109-0.63,0.368c-0.632,0.939-1.33,1.835-1.962,2.774
		c-0.102,0.15-0.167,0.186-0.307,0.186c-1.572,0-3.144,0.002-4.715-0.002c-0.251,0-0.315-0.099-0.181-0.31
		c0.251-0.394,0.526-0.773,0.798-1.155c0.594-0.831,1.189-1.662,1.79-2.489c1.072-1.477,2.1-2.984,3.2-4.441
		c0.777-1.03,1.451-2.136,2.2-3.188c0.69-0.972,1.426-1.911,2.127-2.875c0.469-0.646,0.938-1.294,1.351-1.975
		c0.16-0.264,0.318-0.352,0.598-0.35C415.758,180.129,416.66,180.124,417.562,180.124z M417.509,190.088c0.146,0,0.291,0,0.436,0
		c1.367,0,2.733-0.002,4.1,0.001c0.24,0,0.335-0.029,0.116-0.25c-0.09-0.091-0.109-0.25-0.192-0.353
		c-0.683-0.837-1.215-1.779-1.888-2.628c-0.744-0.938-1.324-2.006-2-3c-0.15-0.221-0.403-0.372-0.609-0.555
		c-0.144,0.202-0.276,0.414-0.435,0.604c-0.149,0.178-0.37,0.306-0.483,0.5c-0.791,1.357-1.769,2.582-2.66,3.869
		c-0.33,0.477-0.691,0.933-1.017,1.412c-0.227,0.332-0.187,0.397,0.184,0.397C414.543,190.089,416.026,190.088,417.509,190.088z"/>
	<path class="st7" d="M416.781,174.752c-0.786,0-1.574-0.033-2.357,0.014c-0.407,0.024-0.679-0.133-0.875-0.423
		c-0.781-1.158-1.479-2.376-2.325-3.483c-0.907-1.187-1.69-2.452-2.546-3.67c-0.978-1.391-1.926-2.805-2.885-4.209
		c-0.962-1.41-1.954-2.804-2.928-4.209c-0.109-0.157-0.217-0.316-0.307-0.484c-0.123-0.228-0.076-0.314,0.175-0.315
		c1.659-0.004,3.318,0.01,4.977-0.012c0.318-0.004,0.503,0.156,0.635,0.362c0.861,1.344,1.851,2.602,2.706,3.945
		c0.955,1.5,1.969,2.961,2.924,4.46c0.869,1.363,1.791,2.693,2.678,4.045c0.109,0.167,0.197,0.182,0.329,0.068
		c0.11-0.094,0.228-0.19,0.307-0.309c0.668-1.002,1.323-2.015,1.993-3.016c0.978-1.459,1.966-2.912,2.948-4.368
		c0.999-1.479,2.019-2.943,2.981-4.445c0.325-0.508,0.666-0.762,1.289-0.746c1.454,0.039,2.911,0.011,4.366,0.017
		c0.101,0,0.201,0.062,0.302,0.095c-0.044,0.098-0.074,0.206-0.134,0.293c-0.834,1.226-1.662,2.457-2.513,3.668
		c-0.745,1.061-1.473,2.137-2.229,3.191c-0.975,1.359-1.82,2.816-2.836,4.143c-0.825,1.078-1.459,2.284-2.347,3.319
		c-0.441,0.514-0.787,1.119-1.116,1.717c-0.151,0.274-0.313,0.357-0.594,0.354C418.527,174.748,417.654,174.752,416.781,174.752z"/>
	<path class="st44" d="M417.509,190.088c-1.483,0-2.966,0.001-4.449-0.001c-0.371,0-0.41-0.066-0.184-0.397
		c0.326-0.479,0.687-0.936,1.017-1.412c0.891-1.287,1.869-2.512,2.66-3.869c0.113-0.194,0.334-0.323,0.483-0.5
		c0.159-0.189,0.291-0.401,0.435-0.604c0.206,0.183,0.458,0.334,0.609,0.555c0.677,0.994,1.257,2.062,2,3
		c0.673,0.849,1.205,1.792,1.888,2.628c0.083,0.102,0.102,0.261,0.192,0.353c0.22,0.22,0.124,0.25-0.116,0.25
		c-1.367-0.003-2.733-0.001-4.1-0.001C417.799,190.088,417.654,190.088,417.509,190.088z"/>
	<path class="st10" d="M385.853,1.086H1.375v658.62h627.818c0,0-204.562-56.814-87.603-273.018c0,0,76.457-143.297-44.774-205.467
		C496.816,181.222,365.185,126.392,385.853,1.086z"/>
</g>
<g id="Layer_1" class="st15">
	<g class="st6">
		<linearGradient id="SVGID_3_" gradientUnits="userSpaceOnUse" x1="398.979" y1="256.5356" x2="451.916" y2="256.5356">
			<stop  offset="0" style="stop-color:#10A4DE"/>
			<stop  offset="0.0827" style="stop-color:#1E94C6"/>
			<stop  offset="0.1826" style="stop-color:#2B86AF"/>
			<stop  offset="0.2777" style="stop-color:#327DA2"/>
			<stop  offset="0.3623" style="stop-color:#357A9D"/>
			<stop  offset="0.9952" style="stop-color:#CCEAF1"/>
		</linearGradient>
		<path class="st37" d="M425.493,276.223c-8.476,0-16.953-0.003-25.429,0.003c-1.245,0.002-1.078,0.045-1.078-1.095
			c0-12.235-0.003-24.471,0.003-36.706c0.002-1.417,0.176-1.58,1.648-1.58c16.541-0.005,33.081-0.003,49.623-0.003
			c0.136,0,0.274-0.005,0.411,0c0.887,0.039,1.218,0.32,1.225,1.177c0.021,2.391-0.008,4.785,0.02,7.178
			c0.006,0.542-0.167,0.721-0.695,0.677c-0.474-0.038-0.956-0.007-1.434-0.007c-12.577,0-25.154,0-37.731,0
			c-0.479,0-0.958,0.019-1.435-0.005c-0.449-0.025-0.573,0.166-0.566,0.593c0.019,1.639,0.035,3.28-0.007,4.921
			c-0.014,0.585,0.234,0.679,0.72,0.652c0.477-0.03,0.958-0.008,1.437-0.008c12.167,0,24.333,0,36.5,0
			c0.479,0,0.957,0.021,1.435-0.005c0.472-0.026,0.543,0.211,0.541,0.618c-0.013,2.461-0.013,4.922,0,7.384
			c0.001,0.396-0.051,0.646-0.531,0.625c-0.546-0.025-1.095-0.007-1.641-0.007c-12.099,0-24.197,0-36.296,0
			c-0.479,0-0.959,0.02-1.433-0.005c-0.474-0.026-0.755,0.041-0.729,0.643c0.085,1.958,0.118,3.921,0.171,5.88
			c1.838,0.015,3.679,0.044,5.517,0.044c11.688,0.003,23.377,0.003,35.064,0.003c1.094,0,1.112-0.224,1.104,1.071
			c-0.013,2.46-0.012,4.922,0.002,7.381c0.005,0.438-0.142,0.602-0.58,0.579c-0.476-0.027-0.957-0.006-1.436-0.006
			C441.759,276.223,433.625,276.223,425.493,276.223z"/>
		<linearGradient id="SVGID_4_" gradientUnits="userSpaceOnUse" x1="176.4658" y1="290.4556" x2="318.5249" y2="290.4556">
			<stop  offset="0" style="stop-color:#10A4DE"/>
			<stop  offset="0.0827" style="stop-color:#1E94C6"/>
			<stop  offset="0.1826" style="stop-color:#2B86AF"/>
			<stop  offset="0.2777" style="stop-color:#327DA2"/>
			<stop  offset="0.3623" style="stop-color:#357A9D"/>
			<stop  offset="0.9952" style="stop-color:#CCEAF1"/>
		</linearGradient>
		<path class="st38" d="M247.427,343.722c-22.556,0-45.11,0.003-67.667-0.002c-3.254-0.002-3.288-0.028-3.288-3.129
			c-0.008-32.907-0.01-65.819,0.002-98.726c0-4.484,0.166-4.647,4.63-4.652c21.815-0.015,43.633-0.005,65.449-0.005
			c22.185,0,44.369,0,66.556,0c1.296,0,2.592,0.055,3.882-0.018c1.229-0.063,1.522,0.479,1.516,1.622
			c-0.041,7.026-0.073,14.049,0.018,21.074c0.02,1.609-0.669,1.822-1.964,1.747c-1.288-0.071-2.586-0.015-3.88-0.015
			c-33.462,0-66.926,0-100.391,0c-1.479,0-2.961,0.053-4.436-0.016c-1.291-0.061-1.462,0.598-1.449,1.685
			c0.046,4.436,0.046,8.877-0.001,13.311c-0.012,1.097,0.17,1.748,1.458,1.679c1.291-0.07,2.588-0.016,3.881-0.016
			c32.538,0,65.079,0,97.617,0c1.11,0,2.219-0.032,3.327,0.008c2.764,0.092,3.529,0.792,3.566,3.487
			c0.057,4.068,0.027,8.139,0.009,12.206c-0.01,2.387-0.072,4.773-0.109,7.161c-2.528,0.146-5.056,0.42-7.582,0.423
			c-32.171,0.027-64.339,0.018-96.508,0.018c-1.478,0-2.97-0.104-4.431,0.06c-0.443,0.051-0.877,0.791-1.178,1.299
			c-0.162,0.276-0.033,0.722-0.029,1.09c0.054,4.972,0.106,9.94,0.164,14.912c4.936,0.127,9.875,0.367,14.812,0.372
			c31.244,0.035,62.49,0.016,93.735,0.023c3.311,0,3.335,0.023,3.346,3.068c0.02,6.103,0.02,12.204,0,18.307
			c-0.01,2.993-0.035,3.022-2.834,3.025c-8.133,0.015-16.269,0.004-24.402,0.004C276.637,343.722,262.032,343.722,247.427,343.722z"
			/>
		<linearGradient id="SVGID_5_" gradientUnits="userSpaceOnUse" x1="442.5815" y1="313.1094" x2="529.9629" y2="313.1094">
			<stop  offset="0" style="stop-color:#10A4DE"/>
			<stop  offset="0.0827" style="stop-color:#1E94C6"/>
			<stop  offset="0.1826" style="stop-color:#2B86AF"/>
			<stop  offset="0.2777" style="stop-color:#327DA2"/>
			<stop  offset="0.3623" style="stop-color:#357A9D"/>
			<stop  offset="0.9952" style="stop-color:#CCEAF1"/>
		</linearGradient>
		<path class="st39" d="M483.937,281.11c2.742,0,4.589,0.136,6.406-0.028c4.481-0.404,8.863,0.744,13.321,0.757
			c1.258,0.005,2.559,0.695,3.937,0.574c1.465-0.127,2.714,0.899,4.268,0.695c1.294-0.169,2.611,0.467,3.913,0.701
			c2.833,0.508,5.563,1.599,8.318,2.503c0.281,0.09,0.642,0.521,0.645,0.794c0.038,4.42,0.038,8.841,0.02,13.262
			c-0.004,0.944-0.474,0.996-1.223,0.557c-2.72-1.596-5.799-2.195-8.799-2.938c-1.466-0.363-2.95-0.669-4.366-1.197
			c-1.363-0.508-2.776-0.052-4.252-0.666c-1.841-0.761-4.129-0.359-6.136-0.825c-3.032-0.704-6.176-0.098-9.096-0.722
			c-3.41-0.733-6.751-0.381-10.112-0.476c-1.738-0.05-3.481,0.472-5.233,0.574c-1.825,0.109-3.695-0.185-5.489,0.079
			c-2.074,0.307-4.139,0.886-6.111,1.615c-2.205,0.814-2.758,1.813-2.589,3.691c0.158,1.774,1.356,3.313,3.132,3.669
			c1.718,0.345,3.475,0.545,5.226,0.657c3.362,0.225,6.674,0.907,10.083,0.708c3.333-0.189,6.773-0.517,10.005,0.079
			c4.046,0.746,8.043,0.254,12.048,0.545c1.319,0.097,2.622,0.428,3.938,0.625c1.316,0.198,2.773-0.481,3.938,0.651
			c1.713-0.368,3.275,0.402,4.905,0.655c3.325,0.517,7.608,1.854,10.443,4.471c2.827,2.612,3.211,3.619,4.313,7.56
			c0.623,2.225,0.656,4.392,0.489,6.548c-0.17,2.195-0.545,4.524-1.514,6.454c-0.899,1.792-1.763,3.94-3.972,4.778
			c-1.87,2.594-5.008,3.017-7.618,4.266c-1.87,0.893-4.084,1.11-6.168,1.492c-5.807,1.062-11.664,1.53-17.576,1.341
			c-1.09-0.032-2.185,0.479-3.291,0.589c-1.07,0.109-2.16,0.09-3.232,0.01c-2.288-0.168-4.561-0.5-6.852-0.609
			c-2.257-0.109-4.602,0.334-6.77-0.124c-2.203-0.463-4.449-0.126-6.524-0.639c-3.065-0.758-6.313-0.417-9.272-1.795
			c-0.959-0.45-2.327,0.33-3.263-0.7c-1.906,0.152-3.59-0.981-5.302-1.134c-1.848-0.161-3.099-1.682-4.956-1.529
			c-0.283,0.021-0.925-0.936-0.936-1.451c-0.076-4.205-0.044-8.409-0.043-12.614c0-1.098,0.926-0.864,1.371-0.7
			c1.121,0.406,2.252,0.883,3.314,1.355c2.707,1.203,5.608,1.545,8.378,2.414c2.881,0.904,5.93,1.429,8.9,1.857
			c2.131,0.307,4.292,0.846,6.502,0.84c1.313-0.002,2.619,0.479,3.94,0.585c1.394,0.105,2.929-0.341,4.176,0.095
			c3.041,1.05,6.101,0.415,9.141,0.546c3.013,0.129,6.09,0.383,9.04-0.074c2.735-0.422,5.449-0.331,8.154-0.606
			c2.073-0.208,4.146-0.876,5.975-1.916c2.156-1.226,2.177-5.129,0.038-6.353c-1.188-0.683-2.6-1.2-3.955-1.33
			c-4.425-0.419-8.85-1.027-13.315-0.688c-2.966,0.227-5.789-0.965-8.792-0.707c-2.889,0.249-5.883,0.426-8.709-0.06
			c-2.313-0.402-4.571-0.515-6.87-0.517c-1.362,0-2.53-1.083-3.936-0.657c-1.431,0.433-2.6-0.559-3.937-0.675
			c-1.323-0.115-2.722-0.18-3.92-0.675c-2.858-1.181-5.984-1.696-8.406-4.022c-1.086-1.041-2.497-1.803-3.046-3.261
			c-0.525-1.397-1.289-2.648-1.541-4.237c-0.802-5.081-0.859-8.163,0.774-12.456c0.528-1.392,1.302-2.846,2.366-3.84
			c1.998-1.867,4.045-3.598,6.802-4.612c3.065-1.133,6.174-1.784,9.302-2.555c1.777-0.439,3.557-0.219,5.239-0.613
			C474.648,280.507,479.767,281.497,483.937,281.11z"/>
		<linearGradient id="SVGID_6_" gradientUnits="userSpaceOnUse" x1="18.6333" y1="290.9497" x2="168.4038" y2="290.9497">
			<stop  offset="0" style="stop-color:#10A4DE"/>
			<stop  offset="0.0827" style="stop-color:#1E94C6"/>
			<stop  offset="0.1826" style="stop-color:#2B86AF"/>
			<stop  offset="0.2777" style="stop-color:#327DA2"/>
			<stop  offset="0.3623" style="stop-color:#357A9D"/>
			<stop  offset="0.9952" style="stop-color:#CCEAF1"/>
		</linearGradient>
		<path class="st40" d="M89.683,236.096c5.244,0,8.961,0.271,12.632-0.054c7.134-0.629,14.188,0.662,21.139,1.456
			c7.166,0.818,14.669,1.045,21.484,4.148c4.333-0.169,8.035,1.864,11.983,3.168c1.79,0.589,2.754,0.527,2.701,2.784
			c-0.168,7.02-0.045,14.048-0.072,21.07c-0.008,1.988-0.406,2.236-2.157,1.305c-4.756-2.528-10.012-3.538-15.113-5.012
			c-4.831-1.396-9.872-1.802-14.735-3.215c-3.538-1.03-7.426-0.827-11.147-1.251c-2.628-0.302-5.229-0.869-7.864-1.06
			c-2.574-0.183-5.385,0.608-7.717-0.162c-6.315-2.081-12.689-0.372-18.991-0.986c-4.911,1.86-10.096,0.482-15.048,1.245
			c-3.578,0.551-7.285,0.649-10.764,2.039c-3.07,1.231-5.105,3.307-5.188,5.988c-0.126,4.084,1.895,6.443,5.984,7.401
			c3.334,0.782,6.761,0.677,10.067,1.2c10.931,1.733,21.963,0.002,32.803,1.229c6.367,0.722,12.662,0.458,18.974,0.901
			c2.634,0.188,5.237,0.737,7.862,1.074c2.444,0.312,4.947-0.558,7.375,1.005c1.046,0.671,2.902-0.031,4.359,0.155
			c1.168,0.151,2.263,0.828,3.431,1.044c7.676,1.406,14.898,3.737,20.372,9.729c3.302,3.621,4.855,7.963,5.292,12.784
			c0.14,1.555-0.689,3.32,0.946,4.626c0.209,0.167,0.114,1.153-0.166,1.422c-1.631,1.576-0.73,3.511-0.749,5.234
			c-0.062,5.939-2.292,10.8-6.224,15.213c-4.786,5.375-10.985,7.917-17.603,9.789c-3.689,1.045-7.423,1.832-11.242,2.445
			c-4.498,0.722-9.02,1.493-13.538,1.927c-4.58,0.435-9.255-0.18-13.849,0.18c-3.728,0.291-7.384,1.406-11.192,1.032
			c-4.096-0.402-8.19-0.892-12.296-1.079c-4.058-0.181-8.24,0.526-12.163-0.22c-3.025-0.579-5.987-0.722-8.999-0.976
			c-2.994-0.258-6.062-0.661-8.929-1.263c-4.739-0.995-9.563-1.642-14.294-2.79c-4.704-1.142-9.359-2.474-14.028-3.722
			c-3.869-1.03-4.359-1.989-4.365-6.088c-0.013-6.283,0.02-12.57-0.021-18.853c-0.008-1.514,0.491-1.966,1.937-1.389
			c7.217,2.888,14.704,4.781,22.259,6.575c2.83,0.671,5.769,0.923,8.592,1.924c2.774,0.98,6.001,0.78,8.874,1.375
			c3.47,0.714,6.838,0.528,10.001,1.272c3.604,0.842,6.891,0.054,10.191,0.852c8.85,2.131,17.817,0.659,26.721,1.046
			c6.002-0.23,12.348-0.726,18.393-1.085c3.064-1.698,6.854-0.6,9.897-2.957c2.636-2.039,4.424-4.026,4.085-6.591
			c-0.411-3.113-2.497-5.057-5.191-5.888c-2.666-0.818-5.605-0.7-8.376-1.232c-7.753-1.491-15.697-0.226-23.353-1.34
			c-6.021-0.874-11.938-0.824-17.876-0.746c-7.109,0.089-14.05-2.046-21.168-1.215c-3.973-1.614-8.307-1.13-12.406-2.153
			c-4.016-1.001-8.069-1.85-11.907-3.415c-5.337-2.179-10.604-4.428-13.549-9.992c-1.316-2.491-3.756-8.72-3.773-11.195
			c-0.016-2.035,0.137-4.079-0.033-6.097c-0.363-4.351,0.909-8.436,2.343-12.358c1.561-4.273,4.832-7.556,8.447-10.214
			c5.101-3.752,10.901-5.403,17.703-6.811c5.04-1.044,10.177-1.382,15.137-2.349C74.185,235.298,82.716,236.936,89.683,236.096z"/>
		<linearGradient id="SVGID_7_" gradientUnits="userSpaceOnUse" x1="465.0122" y1="256.5352" x2="524.9233" y2="256.5352">
			<stop  offset="0" style="stop-color:#10A4DE"/>
			<stop  offset="0.0827" style="stop-color:#1E94C6"/>
			<stop  offset="0.1826" style="stop-color:#2B86AF"/>
			<stop  offset="0.2777" style="stop-color:#327DA2"/>
			<stop  offset="0.3623" style="stop-color:#357A9D"/>
			<stop  offset="0.9952" style="stop-color:#CCEAF1"/>
		</linearGradient>
		<path class="st41" d="M524.923,256.564c0,6.22,0,12.441-0.006,18.664c0,0.976-0.013,0.991-0.965,0.991
			c-4.786,0.006-9.573-0.016-14.358,0.023c-0.687,0.004-1.11-0.257-1.571-0.698c-2.681-2.578-5.279-5.263-8.122-7.652
			c-2.185-1.833-4.003-4.037-6.207-5.805c-2.173-1.745-3.915-3.933-6.065-5.657c-2.224-1.79-4.027-4.007-6.209-5.8
			c-1.729-1.415-3.269-3.001-4.887-4.522c-0.156-0.141-0.458-0.161-0.69-0.154c-0.054,0-0.139,0.342-0.139,0.524
			c-0.009,3.763-0.008,7.523-0.008,11.283c0,5.88-0.004,11.76,0.01,17.639c0.003,0.565-0.057,0.846-0.744,0.839
			c-3.076-0.038-6.152-0.026-9.229-0.011c-0.491,0.002-0.776-0.074-0.711-0.655c0.045-0.406,0.008-0.819,0.008-1.231
			c0-11.757,0-23.514,0-35.274c0-0.409-0.022-0.822,0.007-1.231c0.04-0.61,0.373-0.976,1-0.988c0.889-0.021,1.776-0.006,2.666-0.006
			c3.967,0,7.93,0.022,11.896-0.015c0.999-0.009,1.764,0.34,2.459,1.013c3.464,3.342,6.848,6.783,10.448,9.972
			c2.23,1.971,4.21,4.213,6.502,6.084c2.107,1.719,3.817,3.836,5.911,5.524c2.169,1.746,4.034,3.786,6.049,5.679
			c0.57,0.536,1.231,0.976,1.852,1.457c0.089,0.067,0.192,0.113,0.289,0.17c0.049-0.116,0.136-0.231,0.139-0.351
			c0.015-0.545,0.009-1.092,0.009-1.64c0-8.956,0-17.911,0.002-26.867c0-1.008,0.009-1.021,0.934-1.024
			c2.872-0.008,5.743-0.008,8.614,0c1.101,0,1.11,0.014,1.11,1.055c0.006,5.538,0.006,11.074,0.006,16.611
			C524.923,255.197,524.923,255.879,524.923,256.564z"/>
		<linearGradient id="SVGID_8_" gradientUnits="userSpaceOnUse" x1="323.4819" y1="312.8052" x2="434.0869" y2="312.8052">
			<stop  offset="0" style="stop-color:#10A4DE"/>
			<stop  offset="0.0827" style="stop-color:#1E94C6"/>
			<stop  offset="0.1826" style="stop-color:#2B86AF"/>
			<stop  offset="0.2777" style="stop-color:#327DA2"/>
			<stop  offset="0.3623" style="stop-color:#357A9D"/>
			<stop  offset="0.9952" style="stop-color:#CCEAF1"/>
		</linearGradient>
		<path class="st42" d="M378.416,281.756c3.338,0,6.68,0.069,10.017-0.036c1.235-0.038,2.051,0.427,2.694,1.327
			c2.077,2.905,4.115,5.837,6.179,8.75c2.125,3.001,4.256,5.997,6.397,8.988c3.27,4.572,6.528,9.151,9.827,13.704
			c3.966,5.467,7.75,11.061,11.852,16.434c2.723,3.566,5.209,7.313,7.786,10.993c0.223,0.319,0.25,0.772,0.481,1.084
			c0.304,0.415,0.897,0.859-0.185,0.869c-6.356,0.023-12.714,0.002-19.071,0.023c-0.673,0-0.676-0.417-0.976-0.858
			c-2.392-3.541-5.091-6.869-7.233-10.588c-0.253-0.439-1.006-0.627-1.562-0.843c-0.279-0.11-0.639-0.02-0.963-0.02
			c-17.022,0-34.044,0.01-51.068-0.025c-1.154-0.002-1.69,0.404-2.332,1.363c-2.34,3.476-4.926,6.791-7.265,10.271
			c-0.375,0.555-0.614,0.685-1.137,0.685c-5.817,0-11.637,0.008-17.454-0.006c-0.928-0.002-1.166-0.367-0.667-1.146
			c0.929-1.462,1.949-2.866,2.956-4.278c2.201-3.076,4.405-6.149,6.625-9.21c3.969-5.468,7.774-11.047,11.846-16.441
			c2.876-3.813,5.373-7.907,8.144-11.802c2.557-3.595,5.28-7.074,7.875-10.643c1.734-2.392,3.472-4.79,5.001-7.309
			c0.591-0.977,1.179-1.306,2.214-1.296C371.736,281.775,375.075,281.756,378.416,281.756z M378.22,318.641c0.538,0,1.073,0,1.614,0
			c5.059,0,10.117-0.005,15.177,0.007c0.889,0,1.241-0.107,0.428-0.923c-0.334-0.34-0.405-0.928-0.712-1.308
			c-2.526-3.098-4.5-6.583-6.99-9.729c-2.755-3.475-4.901-7.426-7.405-11.103c-0.557-0.817-1.491-1.378-2.254-2.058
			c-0.533,0.751-1.021,1.535-1.61,2.237c-0.55,0.658-1.37,1.134-1.788,1.852c-2.925,5.024-6.545,9.559-9.845,14.321
			c-1.221,1.765-2.558,3.453-3.765,5.228c-0.836,1.228-0.69,1.471,0.68,1.475C367.239,318.646,372.729,318.641,378.22,318.641z"/>
		<linearGradient id="SVGID_9_" gradientUnits="userSpaceOnUse" x1="323.4927" y1="256.5342" x2="390.7827" y2="256.5342">
			<stop  offset="0" style="stop-color:#10A4DE"/>
			<stop  offset="0.0827" style="stop-color:#1E94C6"/>
			<stop  offset="0.1826" style="stop-color:#2B86AF"/>
			<stop  offset="0.2777" style="stop-color:#327DA2"/>
			<stop  offset="0.3623" style="stop-color:#357A9D"/>
			<stop  offset="0.9952" style="stop-color:#CCEAF1"/>
		</linearGradient>
		<path class="st43" d="M357.021,276.223c-1.844,0-3.696-0.077-5.532,0.029c-0.954,0.059-1.592-0.311-2.054-0.991
			c-1.832-2.716-3.471-5.577-5.454-8.173c-2.129-2.785-3.967-5.754-5.975-8.613c-2.294-3.266-4.521-6.583-6.77-9.877
			c-2.258-3.309-4.585-6.579-6.872-9.875c-0.255-0.369-0.507-0.744-0.72-1.14c-0.287-0.533-0.178-0.735,0.413-0.735
			c3.892-0.012,7.787,0.022,11.678-0.03c0.748-0.01,1.183,0.366,1.491,0.848c2.021,3.155,4.343,6.105,6.351,9.259
			c2.241,3.521,4.621,6.948,6.862,10.465c2.038,3.201,4.202,6.323,6.283,9.496c0.257,0.391,0.464,0.425,0.772,0.159
			c0.259-0.222,0.535-0.445,0.72-0.726c1.568-2.353,3.103-4.73,4.676-7.078c2.294-3.422,4.613-6.832,6.919-10.248
			c2.343-3.472,4.737-6.907,6.994-10.433c0.763-1.192,1.561-1.787,3.025-1.751c3.412,0.093,6.83,0.026,10.244,0.042
			c0.236,0,0.473,0.144,0.708,0.221c-0.104,0.229-0.173,0.485-0.314,0.69c-1.958,2.875-3.9,5.764-5.897,8.607
			c-1.747,2.488-3.453,5.014-5.229,7.487c-2.288,3.191-4.27,6.608-6.655,9.722c-1.937,2.529-3.424,5.36-5.506,7.788
			c-1.036,1.207-1.848,2.628-2.62,4.031c-0.355,0.644-0.736,0.835-1.395,0.831C361.119,276.212,359.069,276.223,357.021,276.223z"/>
	</g>
</g>
<g id="Layer_2" class="st15">
	<g class="st6">
		<g>
			<linearGradient id="SVGID_10_" gradientUnits="userSpaceOnUse" x1="195.0361" y1="327.0771" x2="267.293" y2="327.0771">
				<stop  offset="0" style="stop-color:#10A4DE"/>
				<stop  offset="0.0827" style="stop-color:#1E94C6"/>
				<stop  offset="0.1826" style="stop-color:#2B86AF"/>
				<stop  offset="0.2777" style="stop-color:#327DA2"/>
				<stop  offset="0.3623" style="stop-color:#357A9D"/>
				<stop  offset="0.9952" style="stop-color:#CCEAF1"/>
			</linearGradient>
			<path class="st16" d="M231.271,354.165c-11.186,0-22.375,0-33.565,0c-0.657,0-1.322,0.056-1.971-0.029
				c-0.247-0.031-0.618-0.358-0.648-0.592c-0.091-0.646-0.03-1.311-0.03-1.969c0-16.172,0-32.343,0-48.512
				c0-0.565-0.03-1.131,0.004-1.693c0.056-0.844,0.519-1.324,1.375-1.366c0.471-0.024,0.942-0.004,1.414-0.004
				c22.47,0,44.941,0,67.411,0c0.467,0,0.956-0.077,1.4,0.029c0.242,0.059,0.588,0.425,0.588,0.656
				c0.039,3.665,0.018,7.332,0.039,10.998c0.004,0.655-0.303,0.771-0.856,0.737c-0.657-0.036-1.318-0.008-1.975-0.008
				c-17.111,0-34.222,0-51.333,0c-0.661,0-1.318,0.026-1.975-0.008c-0.544-0.028-0.873,0.062-0.869,0.726
				c0.026,2.35,0.026,4.702,0.004,7.051c-0.009,0.684,0.376,0.72,0.89,0.7c0.657-0.023,1.314-0.006,1.971-0.006
				c16.549,0,33.094,0,49.644,0c0.657,0,1.314-0.017,1.971,0.005c0.869,0.027,1.37,0.527,1.378,1.359
				c0.03,3.292,0.022,6.581-0.017,9.872c-0.004,0.207-0.411,0.56-0.657,0.585c-0.743,0.078-1.5,0.029-2.251,0.029
				c-16.735,0-33.47,0-50.206,0c-0.661,0-1.318,0.026-1.975-0.009c-0.64-0.033-0.756,0.274-0.752,0.841
				c0.026,2.446,0.047,4.891-0.009,7.333c-0.021,0.852,0.389,0.878,1.016,0.87c1.694-0.022,3.384-0.009,5.079-0.009
				c16.078,0,32.152,0,48.23,0c0.657,0,1.323-0.053,1.971,0.026c0.255,0.033,0.484,0.356,0.704,0.567
				c0.048,0.044,0.009,0.182,0.009,0.274c-0.073,3.826-0.143,7.651-0.216,11.476c-3.562,0.023-7.127,0.062-10.688,0.066
				C248.006,354.172,239.638,354.165,231.271,354.165z"/>
			<linearGradient id="SVGID_11_" gradientUnits="userSpaceOnUse" x1="381.8081" y1="327.3364" x2="457.9976" y2="327.3364">
				<stop  offset="0" style="stop-color:#10A4DE"/>
				<stop  offset="0.0827" style="stop-color:#1E94C6"/>
				<stop  offset="0.1826" style="stop-color:#2B86AF"/>
				<stop  offset="0.2777" style="stop-color:#327DA2"/>
				<stop  offset="0.3623" style="stop-color:#357A9D"/>
				<stop  offset="0.9952" style="stop-color:#CCEAF1"/>
			</linearGradient>
			<path class="st17" d="M417.868,299.435c2.39,0,3.998,0.12,5.584-0.024c3.907-0.354,7.728,0.649,11.618,0.66
				c1.094,0.003,2.23,0.605,3.432,0.5c1.275-0.112,2.368,0.785,3.721,0.606c1.128-0.147,2.278,0.405,3.41,0.608
				c2.472,0.444,4.849,1.396,7.257,2.184c0.242,0.08,0.553,0.455,0.558,0.695c0.034,3.855,0.034,7.709,0.017,11.564
				c-0.004,0.824-0.415,0.868-1.063,0.483c-2.373-1.393-5.062-1.913-7.676-2.561c-1.279-0.317-2.572-0.586-3.803-1.047
				c-1.189-0.442-2.425-0.046-3.713-0.578c-1.604-0.665-3.596-0.314-5.351-0.719c-2.641-0.617-5.381-0.085-7.927-0.631
				c-2.974-0.638-5.887-0.333-8.817-0.416c-1.517-0.044-3.038,0.411-4.564,0.501c-1.59,0.095-3.22-0.163-4.789,0.069
				c-1.807,0.268-3.605,0.773-5.325,1.407c-1.923,0.712-2.407,1.584-2.26,3.219c0.138,1.547,1.184,2.891,2.731,3.201
				c1.5,0.302,3.03,0.473,4.56,0.573c2.93,0.193,5.817,0.787,8.791,0.615c2.904-0.166,5.904-0.449,8.726,0.069
				c3.527,0.65,7.011,0.223,10.499,0.477c1.154,0.082,2.291,0.371,3.436,0.544c1.149,0.172,2.42-0.42,3.436,0.568
				c1.491-0.322,2.853,0.35,4.274,0.57c2.9,0.45,6.635,1.616,9.107,3.899c2.463,2.275,2.801,3.156,3.764,6.593
				c0.541,1.939,0.566,3.827,0.419,5.707c-0.143,1.911-0.471,3.946-1.314,5.63c-0.787,1.561-1.539,3.432-3.462,4.166
				c-1.634,2.261-4.37,2.629-6.647,3.718c-1.625,0.779-3.557,0.968-5.376,1.3c-5.065,0.928-10.17,1.336-15.326,1.173
				c-0.951-0.03-1.902,0.415-2.87,0.511c-0.929,0.097-1.88,0.08-2.813,0.009c-1.997-0.147-3.98-0.436-5.978-0.53
				c-1.966-0.094-4.015,0.29-5.904-0.108c-1.919-0.403-3.881-0.111-5.688-0.557c-2.671-0.66-5.502-0.362-8.083-1.568
				c-0.838-0.391-2.031,0.288-2.848-0.607c-1.66,0.133-3.129-0.856-4.62-0.987c-1.612-0.143-2.701-1.469-4.322-1.336
				c-0.246,0.021-0.808-0.815-0.817-1.264c-0.065-3.666-0.039-7.333-0.039-10.999c0-0.958,0.808-0.753,1.197-0.611
				c0.977,0.356,1.962,0.771,2.892,1.181c2.36,1.049,4.888,1.349,7.305,2.104c2.511,0.791,5.169,1.248,7.758,1.622
				c1.858,0.27,3.743,0.738,5.671,0.732c1.145-0.003,2.282,0.419,3.436,0.51c1.214,0.093,2.554-0.296,3.643,0.082
				c2.65,0.917,5.316,0.362,7.966,0.478c2.628,0.112,5.312,0.33,7.883-0.066c2.386-0.366,4.75-0.287,7.11-0.526
				c1.807-0.183,3.618-0.765,5.212-1.671c1.876-1.07,1.897-4.473,0.03-5.541c-1.033-0.595-2.265-1.043-3.449-1.156
				c-3.855-0.368-7.715-0.897-11.609-0.601c-2.589,0.198-5.048-0.844-7.667-0.617c-2.52,0.218-5.13,0.373-7.594-0.056
				c-2.014-0.349-3.985-0.446-5.99-0.447c-1.188-0.002-2.205-0.946-3.432-0.573c-1.245,0.378-2.265-0.487-3.432-0.59
				c-1.149-0.1-2.373-0.152-3.418-0.585c-2.494-1.029-5.217-1.478-7.331-3.509c-0.946-0.909-2.178-1.571-2.653-2.844
				c-0.458-1.218-1.124-2.307-1.344-3.695c-0.7-4.426-0.748-7.116,0.674-10.861c0.462-1.211,1.137-2.479,2.066-3.346
				c1.742-1.627,3.527-3.137,5.93-4.023c2.671-0.987,5.381-1.555,8.108-2.229c1.551-0.381,3.103-0.19,4.573-0.534
				C409.769,298.909,414.233,299.772,417.868,299.435z"/>
			<linearGradient id="SVGID_12_" gradientUnits="userSpaceOnUse" x1="103.0732" y1="327.2778" x2="179.1943" y2="327.2778">
				<stop  offset="0" style="stop-color:#10A4DE"/>
				<stop  offset="0.0827" style="stop-color:#1E94C6"/>
				<stop  offset="0.1826" style="stop-color:#2B86AF"/>
				<stop  offset="0.2777" style="stop-color:#327DA2"/>
				<stop  offset="0.3623" style="stop-color:#357A9D"/>
				<stop  offset="0.9952" style="stop-color:#CCEAF1"/>
			</linearGradient>
			<path class="st18" d="M139.906,299.435c1.504,0,3.017,0.114,4.508-0.022c4.002-0.363,7.974,0.248,11.881,0.725
				c3.644,0.445,7.469,0.495,10.926,2.118c2.507-0.259,4.56,1.311,6.907,1.717c0.238,0.042,0.583,0.43,0.588,0.659
				c0.034,3.949,0.034,7.896-0.009,11.845c-0.004,0.151-0.696,0.495-0.782,0.421c-1.396-1.216-3.25-1.261-4.85-1.946
				c-1.525-0.659-3.242-0.623-4.806-1.336c-0.895-0.407-2.101-0.425-3.129-0.548c-2.952-0.35-5.839-1.055-8.817-1.333
				c-2.369-0.221-4.815-0.041-7.084-0.553c-2.593-0.583-5.13-0.419-7.685-0.429c-3.497-0.014-6.963,0.867-10.481,0.532
				c-1.599,0.953-3.527,0.289-5.187,1.098c-1.236,0.602-2.395,1.79-2.438,2.966c-0.086,2.112,0.873,3.405,2.96,3.822
				c1.69,0.339,3.427,0.401,5.109,0.654c5.567,0.834,11.177-0.031,16.683,0.611c3.432,0.4,6.82,0.191,10.213,0.465
				c1.241,0.102,2.408,0.687,3.722,0.568c1.249-0.112,2.502,0.288,3.721,0.427c2.766,0.313,5.437,0.862,8.026,1.816
				c4.906,1.805,6.82,3.382,8.645,8.584c0.147,0.416,0.104,0.896,0.164,1.344c0.156,1.133,0.765,2.462,0.372,3.352
				c-0.536,1.231-0.315,2.358-0.341,3.514c-0.052,2.127-0.817,4.105-2.01,5.639c-2.113,2.711-4.763,4.936-8.281,5.766
				c-2.576,0.607-5.005,1.897-7.758,1.692c-1.141,0.839-2.533,0.268-3.691,0.632c-1.163,0.365-2.278,0.5-3.453,0.497
				c-1.318-0.004-2.637-0.061-3.951,0.011c-2.744,0.146-5.484,0.489-8.225,0.512c-2.083,0.017-4.167-0.408-6.254-0.503
				c-2.066-0.094-4.188,0.267-6.185-0.109c-1.634-0.309-3.255-0.275-4.85-0.527c-1.525-0.24-3.095-0.292-4.547-0.622
				c-1.262-0.286-2.798,0.041-3.659-0.568c-1.126-0.794-2.292-0.073-3.388-0.798c-0.953-0.634-2.412-0.453-3.596-0.806
				c-1.58-0.467-3.105-1.119-4.666-1.662c-0.8-0.277-1.146-0.76-1.137-1.633c0.03-3.571,0.013-7.144,0.013-10.717
				c0-0.685,0.439-0.779,0.906-0.556c3.979,1.909,8.391,2.39,12.497,3.871c2.641-0.12,5.062,1.28,7.711,1.129
				c1.664,1.019,3.626,0.138,5.312,0.791c1.733,0.672,3.522-0.022,5.212,0.365c4.884,1.125,9.815,0.297,14.717,0.499
				c1.323,0.056,2.658-0.416,3.998-0.507c1.405-0.093,2.948,0.341,4.197-0.108c1.643-0.595,3.661-0.058,4.97-1.602
				c1.111,0.071,1.124-0.933,1.604-1.53c0.497-0.617,0.476-1.261,0.341-1.821c-0.346-1.462-1.331-2.604-2.792-2.799
				c-1.517-0.2-3.047-0.488-4.534-0.732c-3.791-0.615-7.637,0.062-11.328-0.566c-3.907-0.664-7.767-0.148-11.626-0.469
				c-2.835-0.235-5.649-0.786-8.51-0.547c-1.05-0.764-2.26-0.588-3.432-0.552c-1.102,0.033-2.092-0.472-3.134-0.669
				c-3.691-0.706-7.341-1.782-10.39-4.119c-1.496-1.147-2.438-2.752-3.086-4.625c-0.57-1.646-1.141-3.231-0.92-4.962
				c0.22-1.706-0.681-3.533,0.544-5.127c-0.056-2.506,1.193-4.419,2.805-6.17c2.234-2.43,5.031-3.889,8.156-4.823
				c0.946-0.284,1.837-0.644,2.874-0.579c0.877,0.053,1.699-0.428,2.572-0.605c2.93-0.589,5.899-0.804,8.852-1.012
				C133.691,299.266,136.803,299.435,139.906,299.435z"/>
			<linearGradient id="SVGID_13_" gradientUnits="userSpaceOnUse" x1="277.9624" y1="327.0708" x2="374.4023" y2="327.0708">
				<stop  offset="0" style="stop-color:#10A4DE"/>
				<stop  offset="0.0827" style="stop-color:#1E94C6"/>
				<stop  offset="0.1826" style="stop-color:#2B86AF"/>
				<stop  offset="0.2777" style="stop-color:#327DA2"/>
				<stop  offset="0.3623" style="stop-color:#357A9D"/>
				<stop  offset="0.9952" style="stop-color:#CCEAF1"/>
			</linearGradient>
			<path class="st19" d="M325.859,300c2.913,0,5.826,0.058,8.735-0.032c1.076-0.033,1.79,0.371,2.347,1.155
				c1.815,2.533,3.587,5.09,5.39,7.629c1.854,2.617,3.712,5.228,5.575,7.836c2.853,3.987,5.692,7.982,8.571,11.949
				c3.458,4.77,6.76,9.647,10.334,14.33c2.377,3.11,4.542,6.378,6.79,9.585c0.195,0.277,0.216,0.674,0.419,0.947
				c0.264,0.362,0.782,0.751-0.16,0.754c-5.545,0.021-11.086,0.004-16.627,0.021c-0.592,0.001-0.592-0.36-0.855-0.748
				c-2.083-3.085-4.435-5.988-6.306-9.231c-0.22-0.384-0.877-0.547-1.361-0.735c-0.242-0.096-0.558-0.017-0.838-0.017
				c-14.842,0-29.688,0.011-44.526-0.022c-1.007-0.001-1.478,0.354-2.036,1.188c-2.044,3.033-4.292,5.922-6.336,8.955
				c-0.328,0.485-0.536,0.6-0.99,0.6c-5.074,0-10.148,0.006-15.218-0.006c-0.808-0.003-1.016-0.321-0.583-1.001
				c0.812-1.273,1.699-2.498,2.576-3.728c1.919-2.685,3.843-5.365,5.779-8.035c3.458-4.764,6.777-9.631,10.326-14.333
				c2.511-3.324,4.685-6.895,7.101-10.291c2.23-3.135,4.603-6.167,6.868-9.283c1.513-2.082,3.025-4.173,4.361-6.372
				c0.515-0.848,1.029-1.135,1.928-1.127C320.033,300.015,322.946,300,325.859,300z M325.687,332.16c0.471,0,0.938,0,1.409,0
				c4.409,0,8.821-0.005,13.234,0.006c0.773,0.001,1.08-0.097,0.372-0.805c-0.29-0.294-0.35-0.809-0.623-1.14
				c-2.2-2.702-3.92-5.741-6.094-8.482c-2.398-3.03-4.27-6.474-6.457-9.683c-0.484-0.716-1.296-1.203-1.962-1.793
				c-0.467,0.653-0.89,1.335-1.404,1.948c-0.48,0.573-1.193,0.987-1.561,1.615c-2.55,4.38-5.709,8.335-8.583,12.487
				c-1.063,1.54-2.23,3.012-3.281,4.558c-0.73,1.07-0.605,1.283,0.588,1.285C316.113,332.164,320.902,332.16,325.687,332.16z"/>
		</g>
		<g>
			<linearGradient id="SVGID_14_" gradientUnits="userSpaceOnUse" x1="358.751" y1="257.6689" x2="288.6167" y2="257.6689">
				<stop  offset="0" style="stop-color:#10A4DE"/>
				<stop  offset="0.0827" style="stop-color:#1E94C6"/>
				<stop  offset="0.1826" style="stop-color:#2B86AF"/>
				<stop  offset="0.2777" style="stop-color:#327DA2"/>
				<stop  offset="0.3623" style="stop-color:#357A9D"/>
				<stop  offset="0.9952" style="stop-color:#CCEAF1"/>
			</linearGradient>
			<path class="st20" d="M323.746,283.75c-11.233,0-22.46-0.004-33.693,0.004c-1.649,0.001-1.426,0.062-1.426-1.452
				c0-16.21-0.004-32.419,0.002-48.63c0.002-1.878,0.233-2.092,2.181-2.092c21.915-0.004,43.833-0.002,65.746-0.002
				c0.184,0,0.363-0.008,0.544,0.001c1.173,0.049,1.616,0.422,1.625,1.56c0.026,3.169-0.011,6.338,0.026,9.507
				c0.009,0.719-0.225,0.956-0.92,0.899c-0.627-0.052-1.269-0.012-1.902-0.012c-16.659,0-33.323,0-49.985,0
				c-0.638,0-1.269,0.028-1.904-0.007c-0.592-0.034-0.756,0.22-0.75,0.786c0.028,2.173,0.045,4.348-0.006,6.52
				c-0.022,0.777,0.307,0.902,0.955,0.862c0.629-0.038,1.264-0.008,1.897-0.008c16.124,0,32.241,0,48.362,0
				c0.631,0,1.264,0.028,1.897-0.008c0.629-0.035,0.722,0.28,0.717,0.819c-0.017,3.26-0.017,6.521,0,9.78
				c0.004,0.529-0.069,0.859-0.704,0.83c-0.722-0.034-1.448-0.006-2.174-0.006c-16.026,0-32.059,0-48.085,0
				c-0.635,0-1.271,0.025-1.901-0.009c-0.627-0.032-0.999,0.055-0.964,0.851c0.114,2.596,0.16,5.195,0.227,7.791
				c2.438,0.021,4.875,0.057,7.311,0.059c15.484,0.004,30.97,0.002,46.456,0.004c1.45,0,1.474-0.298,1.461,1.418
				c-0.018,3.26-0.015,6.521,0.004,9.78c0.004,0.58-0.19,0.799-0.768,0.766c-0.633-0.038-1.269-0.009-1.904-0.009
				C345.296,283.75,334.519,283.75,323.746,283.75z"/>
			<linearGradient id="SVGID_15_" gradientUnits="userSpaceOnUse" x1="178.3228" y1="257.6592" x2="108.7388" y2="257.6592">
				<stop  offset="0" style="stop-color:#10A4DE"/>
				<stop  offset="0.0827" style="stop-color:#1E94C6"/>
				<stop  offset="0.1826" style="stop-color:#2B86AF"/>
				<stop  offset="0.2777" style="stop-color:#327DA2"/>
				<stop  offset="0.3623" style="stop-color:#357A9D"/>
				<stop  offset="0.9952" style="stop-color:#CCEAF1"/>
			</linearGradient>
			<path class="st21" d="M143.499,283.75c-11.048,0-22.098,0-33.146-0.002c-1.595,0-1.609-0.013-1.611-1.533
				c-0.004-16.118-0.004-32.238,0.002-48.356c0-2.196,0.081-2.275,2.269-2.278c10.684-0.007,21.371-0.002,32.057-0.002
				c10.866,0,21.733,0,32.599,0c0.635,0,1.271,0.026,1.904-0.009c0.599-0.035,0.746,0.233,0.742,0.792
				c-0.022,3.442-0.035,6.883,0.008,10.323c0.009,0.788-0.328,0.892-0.964,0.857c-0.631-0.036-1.264-0.009-1.901-0.009
				c-16.39,0-32.779,0-49.169,0c-0.724,0-1.452,0.026-2.173-0.007c-0.632-0.031-0.715,0.293-0.711,0.826
				c0.025,2.173,0.025,4.346,0,6.52c-0.004,0.537,0.083,0.856,0.713,0.822c0.633-0.035,1.268-0.008,1.901-0.008
				c15.938,0,31.876,0,47.814,0c0.545,0,1.089-0.015,1.629,0.004c1.353,0.045,1.729,0.387,1.75,1.708
				c0.026,1.993,0.011,3.984,0.004,5.978c-0.004,1.169-0.039,2.338-0.056,3.508c-1.236,0.072-2.477,0.206-3.712,0.207
				c-15.757,0.013-31.517,0.01-47.272,0.01c-0.724,0-1.457-0.052-2.168,0.029c-0.218,0.025-0.434,0.387-0.578,0.637
				c-0.08,0.133-0.018,0.354-0.015,0.535c0.027,2.435,0.052,4.869,0.079,7.301c2.422,0.063,4.838,0.183,7.255,0.184
				c15.306,0.018,30.61,0.009,45.914,0.011c1.623,0,1.636,0.011,1.64,1.503c0.009,2.989,0.009,5.979,0,8.967
				c-0.004,1.466-0.017,1.479-1.387,1.482c-3.985,0.007-7.97,0.002-11.955,0.002C157.807,283.75,150.651,283.75,143.499,283.75z"/>
			<linearGradient id="SVGID_16_" gradientUnits="userSpaceOnUse" x1="93.5068" y1="257.8999" x2="20.1484" y2="257.8999">
				<stop  offset="0" style="stop-color:#10A4DE"/>
				<stop  offset="0.0827" style="stop-color:#1E94C6"/>
				<stop  offset="0.1826" style="stop-color:#2B86AF"/>
				<stop  offset="0.2777" style="stop-color:#327DA2"/>
				<stop  offset="0.3623" style="stop-color:#357A9D"/>
				<stop  offset="0.9952" style="stop-color:#CCEAF1"/>
			</linearGradient>
			<path class="st22" d="M54.949,231.034c2.567,0,4.39,0.13,6.188-0.029c3.493-0.307,6.949,0.324,10.351,0.714
				c3.512,0.401,7.188,0.511,10.524,2.033c2.123-0.085,3.937,0.912,5.871,1.552c0.876,0.288,1.348,0.258,1.321,1.365
				c-0.079,3.438-0.021,6.88-0.033,10.321c-0.004,0.972-0.2,1.093-1.058,0.637c-2.331-1.237-4.903-1.732-7.401-2.454
				c-2.367-0.683-4.835-0.883-7.218-1.574c-1.732-0.503-3.637-0.406-5.458-0.614c-1.291-0.147-2.565-0.425-3.853-0.517
				c-1.26-0.089-2.638,0.295-3.782-0.08c-3.094-1.02-6.216-0.185-9.301-0.483c-2.405,0.91-4.946,0.234-7.37,0.607
				c-1.755,0.27-3.568,0.319-5.272,1.001c-1.505,0.601-2.502,1.618-2.542,2.931c-0.062,2.001,0.927,3.157,2.932,3.627
				c1.633,0.382,3.312,0.33,4.93,0.586c5.354,0.85,10.76,0.001,16.067,0.603c3.121,0.352,6.201,0.224,9.293,0.442
				c1.292,0.092,2.565,0.36,3.851,0.525c1.197,0.151,2.424-0.274,3.614,0.491c0.511,0.331,1.419-0.014,2.133,0.079
				c0.573,0.071,1.11,0.404,1.683,0.51c3.759,0.688,7.298,1.832,9.979,4.767c1.618,1.771,2.379,3.898,2.591,6.261
				c0.069,0.762-0.337,1.624,0.462,2.265c0.104,0.083,0.054,0.565-0.079,0.698c-0.799,0.771-0.358,1.718-0.367,2.563
				c-0.03,2.908-1.124,5.29-3.049,7.451c-2.344,2.631-5.38,3.879-8.622,4.796c-1.809,0.511-3.636,0.896-5.509,1.197
				c-2.202,0.354-4.417,0.729-6.629,0.942c-2.242,0.215-4.532-0.088-6.785,0.088c-1.823,0.143-3.616,0.687-5.479,0.504
				c-2.006-0.195-4.013-0.434-6.024-0.526c-1.989-0.091-4.038,0.257-5.959-0.108c-1.48-0.283-2.93-0.354-4.406-0.479
				c-1.467-0.125-2.971-0.323-4.376-0.617c-2.32-0.489-4.683-0.805-7.002-1.368c-2.302-0.559-4.583-1.211-6.869-1.823
				c-1.896-0.503-2.135-0.975-2.139-2.982c-0.006-3.078,0.012-6.156-0.009-9.234c-0.006-0.743,0.238-0.964,0.948-0.682
				c3.533,1.414,7.204,2.344,10.9,3.222c1.388,0.33,2.827,0.453,4.213,0.942c1.357,0.479,2.997,0.177,4.341,0.672
				c1.658,0.608,3.435,0.007,4.902,0.624c1.714,0.722,3.375,0.027,4.992,0.418c4.333,1.046,8.727,0.323,13.086,0.512
				c3.016,0.131,5.975-0.928,9.008-0.53c1.503-0.831,3.359-0.295,4.851-1.449c1.29-0.998,2.167-1.971,2.002-3.229
				c-0.205-1.524-1.227-2.478-2.543-2.882c-1.306-0.4-2.746-0.343-4.105-0.606c-3.797-0.729-7.687-0.111-11.437-0.655
				c-2.951-0.429-5.851-0.405-8.759-0.367c-3.48,0.046-6.88-1-10.368-0.593c-1.946-0.791-4.067-0.552-6.076-1.056
				c-1.967-0.489-3.951-0.906-5.833-1.672c-2.615-1.068-5.195-2.169-6.635-4.896c-0.646-1.219-1.84-4.271-1.849-5.484
				c-0.008-0.994,0.067-1.997-0.016-2.985c-0.179-2.132,0.445-4.133,1.148-6.053c0.762-2.093,2.364-3.702,4.139-5.004
				c2.495-1.837,5.336-2.644,8.667-3.334c2.471-0.513,4.987-0.677,7.415-1.152C47.356,230.643,51.536,231.444,54.949,231.034z"/>
			<linearGradient id="SVGID_17_" gradientUnits="userSpaceOnUse" x1="455.4712" y1="257.6675" x2="376.1006" y2="257.6675">
				<stop  offset="0" style="stop-color:#10A4DE"/>
				<stop  offset="0.0827" style="stop-color:#1E94C6"/>
				<stop  offset="0.1826" style="stop-color:#2B86AF"/>
				<stop  offset="0.2777" style="stop-color:#327DA2"/>
				<stop  offset="0.3623" style="stop-color:#357A9D"/>
				<stop  offset="0.9952" style="stop-color:#CCEAF1"/>
			</linearGradient>
			<path class="st23" d="M455.47,257.706c0,8.241,0.004,16.483-0.004,24.726c0,1.295-0.017,1.313-1.281,1.317
				c-6.336,0.007-12.677-0.021-19.021,0.028c-0.906,0.007-1.47-0.34-2.077-0.924c-3.555-3.416-6.993-6.974-10.762-10.136
				c-2.896-2.43-5.305-5.35-8.225-7.691c-2.883-2.312-5.187-5.211-8.035-7.499c-2.948-2.37-5.335-5.307-8.229-7.682
				c-2.287-1.877-4.331-3.977-6.475-5.99c-0.199-0.19-0.605-0.214-0.912-0.207c-0.071,0.003-0.186,0.454-0.186,0.698
				c-0.009,4.983-0.004,9.966-0.004,14.948c0,7.787-0.013,15.579,0.011,23.367c0,0.751-0.076,1.123-0.988,1.11
				c-4.076-0.05-8.151-0.031-12.227-0.011c-0.648,0.004-1.026-0.1-0.942-0.87c0.061-0.536,0.011-1.087,0.011-1.628
				c0-15.58,0-31.157,0-46.736c0-0.544-0.028-1.09,0.011-1.629c0.052-0.81,0.493-1.296,1.327-1.313
				c1.176-0.025,2.351-0.005,3.529-0.005c5.254,0,10.509,0.027,15.761-0.02c1.325-0.013,2.336,0.449,3.261,1.34
				c4.588,4.43,9.07,8.983,13.837,13.21c2.956,2.615,5.58,5.582,8.618,8.061c2.788,2.279,5.053,5.084,7.832,7.32
				c2.87,2.313,5.344,5.016,8.009,7.523c0.756,0.711,1.634,1.294,2.459,1.93c0.117,0.091,0.255,0.153,0.385,0.228
				c0.061-0.154,0.177-0.307,0.181-0.464c0.018-0.722,0.009-1.448,0.009-2.172c0-11.865-0.004-23.731,0-35.596
				c0-1.334,0.018-1.355,1.241-1.358c3.808-0.01,7.611-0.01,11.415,0c1.452,0.003,1.469,0.018,1.469,1.398
				c0.009,7.336,0.004,14.671,0.004,22.008C455.47,255.894,455.47,256.8,455.47,257.706z"/>
			<linearGradient id="SVGID_18_" gradientUnits="userSpaceOnUse" x1="277.7612" y1="257.668" x2="188.6079" y2="257.668">
				<stop  offset="0" style="stop-color:#10A4DE"/>
				<stop  offset="0.0827" style="stop-color:#1E94C6"/>
				<stop  offset="0.1826" style="stop-color:#2B86AF"/>
				<stop  offset="0.2777" style="stop-color:#327DA2"/>
				<stop  offset="0.3623" style="stop-color:#357A9D"/>
				<stop  offset="0.9952" style="stop-color:#CCEAF1"/>
			</linearGradient>
			<path class="st24" d="M233.027,283.75c-2.442,0-4.89-0.103-7.328,0.042c-1.264,0.076-2.109-0.415-2.721-1.317
				c-2.427-3.601-4.599-7.389-7.227-10.829c-2.818-3.688-5.255-7.624-7.914-11.409c-3.039-4.326-5.99-8.72-8.968-13.085
				c-2.991-4.383-6.075-8.719-9.103-13.085c-0.341-0.488-0.674-0.981-0.959-1.504c-0.378-0.707-0.233-0.978,0.549-0.979
				c5.161-0.013,10.317,0.03,15.473-0.038c0.99-0.012,1.565,0.485,1.975,1.125c2.676,4.177,5.753,8.088,8.411,12.264
				c2.971,4.666,6.122,9.207,9.089,13.868c2.704,4.238,5.571,8.374,8.329,12.577c0.341,0.518,0.614,0.564,1.024,0.212
				c0.339-0.295,0.705-0.592,0.951-0.959c2.079-3.118,4.115-6.266,6.2-9.376c3.036-4.537,6.109-9.054,9.163-13.579
				c3.105-4.597,6.278-9.15,9.267-13.82c1.011-1.579,2.068-2.37,4.009-2.319c4.521,0.122,9.046,0.032,13.571,0.051
				c0.315,0.002,0.627,0.193,0.942,0.296c-0.138,0.305-0.233,0.64-0.417,0.913c-2.596,3.808-5.167,7.638-7.814,11.402
				c-2.314,3.299-4.575,6.643-6.926,9.922c-3.032,4.226-5.662,8.754-8.817,12.876c-2.567,3.354-4.538,7.101-7.3,10.318
				c-1.37,1.599-2.446,3.48-3.466,5.34c-0.471,0.853-0.977,1.109-1.85,1.103C238.46,283.735,235.742,283.75,233.027,283.75z"/>
		</g>
	</g>
</g>
<g id="Layer_4" class="st15">
	<linearGradient id="SVGID_19_" gradientUnits="userSpaceOnUse" x1="147.1909" y1="211.8989" x2="147.1909" y2="211.8989">
		<stop  offset="0.0141" style="stop-color:#E92700"/>
		<stop  offset="0.057" style="stop-color:#EA3508"/>
		<stop  offset="0.1977" style="stop-color:#EE5C20"/>
		<stop  offset="0.3267" style="stop-color:#F17931"/>
		<stop  offset="0.4388" style="stop-color:#F28A3B"/>
		<stop  offset="0.5213" style="stop-color:#F3903F"/>
		<stop  offset="0.5837" style="stop-color:#F49245"/>
		<stop  offset="0.6679" style="stop-color:#F69856"/>
		<stop  offset="0.7646" style="stop-color:#F9A273"/>
		<stop  offset="0.8698" style="stop-color:#FEAF9A"/>
		<stop  offset="0.8876" style="stop-color:#FFB2A1"/>
	</linearGradient>
	<path class="st3" d="M147.191,211.899"/>
	<g class="st6">
		<linearGradient id="SVGID_20_" gradientUnits="userSpaceOnUse" x1="869.5698" y1="298.3379" x2="899.311" y2="298.3379">
			<stop  offset="0.0141" style="stop-color:#E92700"/>
			<stop  offset="0.057" style="stop-color:#EA3508"/>
			<stop  offset="0.1977" style="stop-color:#EE5C20"/>
			<stop  offset="0.3267" style="stop-color:#F17931"/>
			<stop  offset="0.4388" style="stop-color:#F28A3B"/>
			<stop  offset="0.5213" style="stop-color:#F3903F"/>
			<stop  offset="0.5837" style="stop-color:#F49245"/>
			<stop  offset="0.6679" style="stop-color:#F69856"/>
			<stop  offset="0.7646" style="stop-color:#F9A273"/>
			<stop  offset="0.8698" style="stop-color:#FEAF9A"/>
			<stop  offset="0.8876" style="stop-color:#FFB2A1"/>
		</linearGradient>
		<path class="st25" d="M884.438,310.124c-4.706,0-9.409,0-14.115-0.003c-0.738,0-0.745-0.002-0.745-0.671
			c-0.006-7.408-0.006-14.81-0.006-22.215c0-0.124,0.013-0.247,0-0.368c-0.023-0.288,0.143-0.327,0.377-0.315
			c0.245,0.015,0.493,0.006,0.734,0.006c9.081,0,18.167,0,27.248,0c0.243,0,0.492,0,0.736-0.003
			c0.392-0.002,0.554,0.236,0.612,0.583c0.01,0.039,0,0.08,0.004,0.122c0.076,1.261,0.076,1.261-1.146,1.261
			c-8.47,0-16.936,0-25.406,0c-0.288,0-0.571,0.012-0.857-0.006c-0.269-0.015-0.339,0.1-0.336,0.359
			c0.003,2.696,0.009,5.398-0.009,8.098c0,0.348,0.142,0.41,0.433,0.389c0.286-0.018,0.571-0.002,0.861-0.002
			c8.221,0,16.441,0,24.662,0c0.333,0,0.657,0.012,0.985-0.006c0.286-0.012,0.353,0.127,0.324,0.375
			c-0.015,0.077-0.006,0.162-0.006,0.241c0.018,1.108,0.018,1.108-1.046,1.108c-8.31,0.003-16.611,0-24.917,0
			c-0.286,0-0.572,0.015-0.86-0.003c-0.281-0.015-0.437,0.023-0.437,0.386c0.018,2.781,0.012,5.563,0.009,8.345
			c-0.003,0.25,0.057,0.374,0.33,0.359c0.283-0.012,0.571-0.003,0.857-0.003c8.348,0,16.692,0,25.037,0c0.245,0,0.49-0.006,0.736,0
			c0.605,0.023,0.762,0.179,0.781,0.783c0.01,0.286-0.011,0.572,0.006,0.858c0.015,0.277-0.12,0.327-0.367,0.327
			c-1.76-0.009-3.519-0.003-5.275-0.003C890.57,310.124,887.502,310.124,884.438,310.124z"/>
		<linearGradient id="SVGID_21_" gradientUnits="userSpaceOnUse" x1="828.5767" y1="298.4604" x2="860.2739" y2="298.4604">
			<stop  offset="0.0141" style="stop-color:#E92700"/>
			<stop  offset="0.057" style="stop-color:#EA3508"/>
			<stop  offset="0.1977" style="stop-color:#EE5C20"/>
			<stop  offset="0.3267" style="stop-color:#F17931"/>
			<stop  offset="0.4388" style="stop-color:#F28A3B"/>
			<stop  offset="0.5213" style="stop-color:#F3903F"/>
			<stop  offset="0.5837" style="stop-color:#F49245"/>
			<stop  offset="0.6679" style="stop-color:#F69856"/>
			<stop  offset="0.7646" style="stop-color:#F9A273"/>
			<stop  offset="0.8698" style="stop-color:#FEAF9A"/>
			<stop  offset="0.8876" style="stop-color:#FFB2A1"/>
		</linearGradient>
		<path class="st26" d="M843.22,286.309c1.641,0,2.911-0.035,4.175,0.009c1.152,0.036,2.337,0.012,3.45,0.271
			c1.378,0.321,2.842,0.3,4.141,0.948c0.905-0.197,1.633,0.451,2.499,0.51c0.685,0.047,0.828,0.28,0.783,0.993
			c-0.023,0.398,0.267,0.972-0.227,1.155c-0.265,0.098-0.681-0.28-1.043-0.371c-1.152-0.289-2.277-0.657-3.465-0.836
			c-0.54-0.083-1.114-0.106-1.606-0.266c-0.557-0.183-1.12-0.064-1.62-0.232c-0.708-0.236-1.436-0.083-2.11-0.242
			c-1.807-0.424-3.622-0.127-5.428-0.215c-0.695-0.035-1.388-0.018-2.089-0.003c-0.704,0.021-1.399-0.018-2.116,0.207
			c-0.616,0.191-1.32,0.15-1.979,0.233c-1.18,0.144-2.251,0.474-3.269,1.034c-1.148,0.64-1.88,1.556-1.788,2.941
			c0.032,0.51-0.041,1.005,0.139,1.539c0.351,1.031,1.12,1.535,2.021,1.888c0.602,0.233,1.248,0.375,1.884,0.495
			c0.653,0.125,1.316,0.168,1.98,0.254c0.58,0.08,1.158,0.194,1.741,0.235c0.568,0.042,1.199-0.142,1.706,0.042
			c0.954,0.345,1.903,0.168,2.855,0.206c1.641,0.068,3.272,0.401,4.93,0.254c0.798,0.356,1.662,0.126,2.473,0.265
			c1.788,0.31,3.636,0.304,5.368,0.961c1.116,0.427,2.16,0.919,2.847,2.007c0.262,0.412,0.441,0.857,0.495,1.264
			c0.126,0.984,0.598,1.98,0.044,2.988c-0.145,0.262-0.05,0.595-0.145,0.917c-0.398,1.405-1.367,2.242-2.575,2.89
			c-0.501,0.266-1.022,0.493-1.532,0.737c-0.486,0.238-1.025,0.242-1.535,0.451c-0.477,0.201-1.055,0.112-1.605,0.242
			c-0.99,0.242-2.057,0.31-3.083,0.263c-1.056-0.044-2.045,0.324-3.087,0.283c-1.021-0.039-2.046,0.021-3.068-0.018
			c-0.701-0.026-1.403-0.186-2.109-0.227c-0.693-0.042-1.424,0.126-2.074-0.047c-0.593-0.16-1.165-0.16-1.748-0.218
			c-0.543-0.056-1.087-0.166-1.608-0.271c-1.312-0.263-2.629-0.486-3.926-0.87c-0.91-0.265-1.812-0.586-2.737-0.804
			c-0.424-0.097-0.621-0.301-0.598-0.728c0.021-0.478,0.047-0.96,0.07-1.441c0.419,0.147,0.828,0.31,1.249,0.439
			c1.31,0.403,2.608,0.831,3.926,1.184c0.636,0.174,1.316,0.192,1.971,0.295c0.416,0.065,0.831,0.168,1.244,0.239
			c0.421,0.073,0.901-0.186,1.255,0.247c0.018,0.018,0.076,0,0.121,0.003c1.066,0.079,2.139,0.167,3.209,0.244
			c1.237,0.085,2.469,0.201,3.706,0.236c1.727,0.056,3.448-0.206,5.169-0.294c1.509-0.083,3.047-0.375,4.514-0.905
			c0.857-0.309,1.553-0.854,2.24-1.385c0.403-0.315,0.687-0.964,0.748-1.494c0.109-0.94,0.233-1.971-0.242-2.823
			c-0.353-0.622-0.854-1.238-1.667-1.453c-0.551-0.141-1.034-0.436-1.632-0.527c-0.543-0.083-1.114-0.068-1.615-0.224
			c-0.628-0.194-1.246-0.18-1.871-0.221c-0.584-0.045-1.161-0.195-1.741-0.233c-0.652-0.039-1.342,0.121-1.957-0.032
			c-1.521-0.375-3.064-0.032-4.564-0.256c-1.161-0.171-2.328-0.059-3.457-0.248c-1.199-0.203-2.431-0.159-3.6-0.466
			c-1.359-0.359-2.756-0.507-4.058-1.179c-1.579-0.818-2.134-2.124-2.275-3.721c-0.085-1.025,0.018-2.021,0.46-2.997
			c0.333-0.743,0.748-1.409,1.37-1.877c0.975-0.736,2.133-1.202,3.303-1.47c1.056-0.239,2.154-0.383,3.219-0.578
			C839.655,286.138,841.624,286.477,843.22,286.309z"/>
		<linearGradient id="SVGID_22_" gradientUnits="userSpaceOnUse" x1="742.3647" y1="298.3364" x2="779.022" y2="298.3364">
			<stop  offset="0.0141" style="stop-color:#E92700"/>
			<stop  offset="0.057" style="stop-color:#EA3508"/>
			<stop  offset="0.1977" style="stop-color:#EE5C20"/>
			<stop  offset="0.3267" style="stop-color:#F17931"/>
			<stop  offset="0.4388" style="stop-color:#F28A3B"/>
			<stop  offset="0.5213" style="stop-color:#F3903F"/>
			<stop  offset="0.5837" style="stop-color:#F49245"/>
			<stop  offset="0.6679" style="stop-color:#F69856"/>
			<stop  offset="0.7646" style="stop-color:#F9A273"/>
			<stop  offset="0.8698" style="stop-color:#FEAF9A"/>
			<stop  offset="0.8876" style="stop-color:#FFB2A1"/>
		</linearGradient>
		<path class="st27" d="M760.935,310.613c-1.215,0-2.122-0.06-3.015,0.018c-1.253,0.103-2.484-0.133-3.695-0.3
			c-1.845-0.262-3.666-0.708-5.413-1.424c-1.341-0.548-2.492-1.382-3.585-2.278c-0.648-0.53-1.19-1.279-1.547-2.042
			c-0.328-0.705-0.555-1.491-0.819-2.236c-0.696-1.963-0.478-3.966-0.41-5.944c0.044-1.435,0.519-2.841,1.229-4.137
			c0.621-1.137,1.446-2.119,2.451-2.896c1.55-1.208,3.333-1.965,5.279-2.339c0.717-0.139,1.391-0.421,2.131-0.501
			c0.742-0.085,1.521-0.097,2.219-0.266c1.488-0.359,2.968-0.138,4.453-0.191c1.508-0.056,3.029-0.109,4.534,0.018
			c1.241,0.1,2.502,0.259,3.716,0.5c1.144,0.227,2.331,0.472,3.393,0.967c1.062,0.498,2.139,0.975,3.119,1.677
			c1.097,0.783,1.91,1.759,2.546,2.878c0.425,0.749,0.74,1.586,0.955,2.422c0.393,1.532,0.664,3.109,0.495,4.697
			c-0.159,1.526-0.431,3.035-1.043,4.473c-0.565,1.326-1.335,2.511-2.458,3.38c-0.954,0.743-1.978,1.385-3.146,1.871
			c-1.173,0.483-2.398,0.707-3.578,1.125c-0.756,0.271-1.658,0.109-2.456,0.301C764.406,310.84,762.505,310.469,760.935,310.613z
			 M760.49,308.898c0.784,0,1.556,0.003,2.333-0.005c0.791-0.006,1.574-0.088,2.357-0.192c0.781-0.094,1.56-0.25,2.35-0.306
			c0.298-0.021,0.58-0.18,0.878-0.23c0.306-0.047,0.604-0.129,0.893-0.206c0.708-0.186,1.347-0.551,2.027-0.742
			c1.096-0.31,1.886-1.037,2.749-1.662c0.935-0.678,1.444-1.727,1.957-2.734c0.427-0.829,0.604-1.753,0.707-2.643
			c0.142-1.211,0.145-2.463-0.016-3.672c-0.07-0.533-0.162-1.123-0.356-1.676c-0.58-1.639-1.408-3.044-2.86-4.087
			c-1.044-0.74-2.147-1.302-3.338-1.729c-0.768-0.28-1.536-0.537-2.37-0.504c-0.348-0.545-0.954-0.1-1.44-0.389
			c-0.431-0.25-1.114-0.032-1.674-0.103c-0.498-0.064-0.957-0.283-1.494-0.245c-2.172,0.15-4.354-0.221-6.529,0.236
			c-0.685,0.144-1.399,0.121-2.11,0.224c-1.385,0.197-2.688,0.589-4.008,1.008c-2.277,0.728-3.922,2.172-5.091,4.21
			c-0.688,1.196-1.176,4.57-1.064,5.563c0.038,0.374,0.236,0.713,0.245,1.125c0.015,0.97,0.317,1.877,0.706,2.77
			c1.209,2.767,3.587,4.054,6.232,4.997c0.508,0.177,1.12,0.109,1.568,0.356c0.512,0.28,1.146-0.121,1.562,0.389
			c1.07,0.08,2.14,0.189,3.212,0.236C758.773,308.928,759.632,308.898,760.49,308.898z"/>
		<linearGradient id="SVGID_23_" gradientUnits="userSpaceOnUse" x1="700.6616" y1="298.3467" x2="733.0845" y2="298.3467">
			<stop  offset="0.0141" style="stop-color:#E92700"/>
			<stop  offset="0.057" style="stop-color:#EA3508"/>
			<stop  offset="0.1977" style="stop-color:#EE5C20"/>
			<stop  offset="0.3267" style="stop-color:#F17931"/>
			<stop  offset="0.4388" style="stop-color:#F28A3B"/>
			<stop  offset="0.5213" style="stop-color:#F3903F"/>
			<stop  offset="0.5837" style="stop-color:#F49245"/>
			<stop  offset="0.6679" style="stop-color:#F69856"/>
			<stop  offset="0.7646" style="stop-color:#F9A273"/>
			<stop  offset="0.8698" style="stop-color:#FEAF9A"/>
			<stop  offset="0.8876" style="stop-color:#FFB2A1"/>
		</linearGradient>
		<path class="st28" d="M716.862,297.356c4.256,0,8.504,0,12.759,0c0.247,0,0.495,0.008,0.737-0.003
			c0.533-0.018,0.728-0.191,0.756-0.684c0.01-0.244,0-0.492,0-0.737c0-2.947,0.007-5.887-0.011-8.834
			c0-0.398,0.032-0.627,0.522-0.554c0.47,0.07,0.947,0.073,1.428,0.109c0.009,0.445,0.021,0.893,0.021,1.337
			c0,6.955,0,13.906,0,20.86c0,0.327,0.025,0.66-0.007,0.984c-0.015,0.104-0.164,0.207-0.271,0.28
			c-0.054,0.038-0.156,0.009-0.239,0.009c-0.448-0.006-0.893-0.015-1.344-0.021c-0.028-0.478-0.094-0.952-0.094-1.429
			c-0.009-2.741-0.007-5.48-0.007-8.221c0-0.245,0.016-0.492-0.002-0.737c-0.026-0.424-0.23-0.613-0.679-0.639
			c-0.199-0.012-0.408-0.003-0.612-0.003c-8.631,0-17.259,0-25.889,0c-0.203,0-0.41,0.023-0.61-0.003
			c-0.418-0.056-0.448,0.159-0.448,0.498c0.013,3.067,0.013,6.135,0.004,9.199c0,0.442,0.108,1.055-0.125,1.268
			c-0.25,0.23-0.845,0.073-1.289,0.088c-0.122,0.003-0.248-0.012-0.366,0c-0.291,0.029-0.472-0.036-0.43-0.386
			c0.025-0.245,0.005-0.492,0.005-0.736c0-7.034,0-14.071,0-21.104c0-0.245-0.003-0.492,0-0.737c0.013-0.38,0.23-0.562,0.59-0.604
			c0.12-0.015,0.248-0.006,0.368,0c0.398,0.018,0.951-0.104,1.158,0.109c0.206,0.215,0.094,0.76,0.094,1.164
			c0,2.986,0,5.971,0,8.958c0,0.56,0.013,0.566,0.604,0.566C707.943,297.356,712.404,297.356,716.862,297.356z"/>
		<linearGradient id="SVGID_24_" gradientUnits="userSpaceOnUse" x1="787.3237" y1="298.585" x2="819.7407" y2="298.585">
			<stop  offset="0.0141" style="stop-color:#E92700"/>
			<stop  offset="0.057" style="stop-color:#EA3508"/>
			<stop  offset="0.1977" style="stop-color:#EE5C20"/>
			<stop  offset="0.3267" style="stop-color:#F17931"/>
			<stop  offset="0.4388" style="stop-color:#F28A3B"/>
			<stop  offset="0.5213" style="stop-color:#F3903F"/>
			<stop  offset="0.5837" style="stop-color:#F49245"/>
			<stop  offset="0.6679" style="stop-color:#F69856"/>
			<stop  offset="0.7646" style="stop-color:#F9A273"/>
			<stop  offset="0.8698" style="stop-color:#FEAF9A"/>
			<stop  offset="0.8876" style="stop-color:#FFB2A1"/>
		</linearGradient>
		<path class="st29" d="M819.738,294.395c0,2.248,0.004,4.497-0.002,6.745c-0.003,0.468-0.003,0.916-0.21,1.388
			c-0.155,0.359-0.136,0.816-0.251,1.241c-0.247,0.884-0.724,1.621-1.272,2.295c-1.455,1.797-2.632,2.555-5.073,3.371
			c-0.979,0.33-1.96,0.692-3.027,0.699c-0.503,0-0.949,0.33-1.496,0.253c-0.498-0.071-1.028-0.097-1.495,0.218
			c-0.085,0.06-0.241,0.009-0.362,0.009c-0.164,0-0.326,0-0.495,0c-1.308,0-2.613,0.035-3.922-0.009
			c-1.233-0.038-2.48-0.064-3.697-0.253c-2.116-0.328-4.22-0.699-6.168-1.692c-2.195-1.123-3.681-2.826-4.434-5.153
			c-0.29-0.884-0.466-1.824-0.48-2.738c-0.047-4.541-0.021-9.078-0.019-13.619c0-0.583,0.01-0.592,0.58-0.592
			c1.666-0.015,1.639-0.166,1.634,1.653c-0.015,4.21-0.06,8.424,0.018,12.635c0.034,2.007,0.821,3.808,2.368,5.133
			c1.105,0.946,2.449,1.526,3.855,1.936c0.409,0.118,0.798,0.262,1.248,0.271c0.407,0.006,0.832,0.156,1.241,0.25
			c1.069,0.245,2.175,0.033,3.205,0.263c1.047,0.232,2.093,0.286,3.092,0.153c1.158-0.15,2.328-0.062,3.454-0.233
			c1.438-0.215,2.893-0.442,4.261-0.958c1.909-0.719,3.533-1.842,4.484-3.704c0.434-0.843,0.651-1.771,0.787-2.747
			c0.342-2.339,0.167-4.679,0.206-7.019c0.038-2.369,0.023-4.741-0.006-7.113c-0.006-0.451,0.111-0.577,0.542-0.533
			c0.444,0.047,0.893,0.026,1.341,0.035c0.032,0.478,0.085,0.958,0.089,1.435C819.747,290.143,819.738,292.267,819.738,294.395z"/>
	</g>
	<g class="st6">
		<linearGradient id="SVGID_25_" gradientUnits="userSpaceOnUse" x1="751.0542" y1="264.1909" x2="782.8345" y2="264.1909">
			<stop  offset="0.0141" style="stop-color:#E92700"/>
			<stop  offset="0.057" style="stop-color:#EA3508"/>
			<stop  offset="0.1977" style="stop-color:#EE5C20"/>
			<stop  offset="0.3267" style="stop-color:#F17931"/>
			<stop  offset="0.4388" style="stop-color:#F28A3B"/>
			<stop  offset="0.5213" style="stop-color:#F3903F"/>
			<stop  offset="0.5837" style="stop-color:#F49245"/>
			<stop  offset="0.6679" style="stop-color:#F69856"/>
			<stop  offset="0.7646" style="stop-color:#F9A273"/>
			<stop  offset="0.8698" style="stop-color:#FEAF9A"/>
			<stop  offset="0.8876" style="stop-color:#FFB2A1"/>
		</linearGradient>
		<path class="st30" d="M773.856,263.95c2.794,0,5.59-0.003,8.387,0c0.565,0,0.567,0.005,0.574,0.604
			c0,0.599,0.047,1.196-0.012,1.789c-0.118,1.223-0.321,2.442-0.752,3.599c-0.241,0.659-1.236,1.997-2.077,2.608
			c-1.063,0.776-2.195,1.341-3.409,1.775c-0.492,0.174-1.02,0.245-1.532,0.355c-0.343,0.078-0.681,0.158-1.025,0.223
			c-0.31,0.06-0.672-0.139-0.92,0.216c-0.025,0.037-0.141,0.007-0.215,0.01c-1.35,0.074-2.695,0.18-4.042,0.215
			c-1.38,0.038-2.771,0.112-4.135-0.032c-0.755-0.083-1.521-0.068-2.255-0.204c-1.54-0.287-3.094-0.475-4.585-1.064
			c-1.148-0.452-2.213-0.966-3.226-1.677c-1.279-0.894-2.16-2.038-2.735-3.449c-0.453-1.144-0.886-2.296-0.839-3.565
			c0.029-0.856,0-1.713,0.006-2.571c0-1.549,0.91-3.749,1.829-5.061c1.383-1.972,3.371-2.9,5.54-3.619
			c1.002-0.334,2.045-0.474,3.07-0.69c0.873-0.185,1.759-0.041,2.591-0.229c1.538-0.35,3.076-0.121,4.604-0.179
			c0.528-0.021,1.059,0.162,1.589,0.201c0.519,0.037,1.091-0.127,1.553,0.044c0.507,0.188,0.984,0.182,1.482,0.181
			c0.51-0.003,0.948,0.255,1.474,0.264c0.722,0.013,1.443,0.243,2.159,0.42c0.808,0.199,1.612,0.431,2.404,0.669
			c0.466,0.139,0.926,0.296,1.361,0.493c0.143,0.06,0.216,0.271,0.301,0.426c0.029,0.056,0.004,0.145,0.006,0.22
			c0.064,1.541,0.077,1.515-1.361,0.878c-0.919-0.403-1.886-0.669-2.86-0.93c-1.133-0.302-2.285-0.417-3.413-0.661
			c-2.902-0.63-5.843-0.33-8.761-0.45c-0.967-0.039-1.885,0.16-2.814,0.274c-1.44,0.181-2.887,0.504-4.207,1.15
			c-2.101,1.029-3.324,2.44-4.246,4.662c-0.135,0.329-0.068,0.669-0.239,1.022c-0.17,0.359-0.2,0.886-0.252,1.337
			c-0.08,0.698-0.106,1.426-0.004,2.119c0.162,1.098,0.416,2.2,0.896,3.2c0.436,0.909,1.093,1.698,1.877,2.351
			c1.231,1.019,2.646,1.627,4.184,2.048c1.026,0.281,2.096,0.273,3.088,0.64c0.032,0.011,0.074,0,0.109,0
			c2.172,0.044,4.328,0.356,6.507,0.229c0.533-0.032,1.02-0.311,1.585-0.241c0.491,0.057,0.976-0.027,1.477-0.178
			c0.533-0.157,1.125-0.089,1.694-0.235c2.057-0.511,3.703-0.987,5.03-2.442c0.612-0.67,1.093-1.631,1.272-2.604
			c0.029-0.167,0.197-0.31,0.202-0.472c0.021-0.59,0.007-1.188-0.002-1.783c-0.504-0.032-1.011-0.094-1.518-0.094
			c-4.585-0.007-9.174-0.005-13.752-0.003c-0.651,0-0.602,0.062-0.592-0.592c0.002-0.368,0.014-0.739,0.02-1.11
			c0.398-0.027,0.796-0.083,1.194-0.083C768.711,263.944,771.287,263.95,773.856,263.95z"/>
		<linearGradient id="SVGID_26_" gradientUnits="userSpaceOnUse" x1="700.7339" y1="264.1782" x2="730.7261" y2="264.1782">
			<stop  offset="0.0141" style="stop-color:#E92700"/>
			<stop  offset="0.057" style="stop-color:#EA3508"/>
			<stop  offset="0.1977" style="stop-color:#EE5C20"/>
			<stop  offset="0.3267" style="stop-color:#F17931"/>
			<stop  offset="0.4388" style="stop-color:#F28A3B"/>
			<stop  offset="0.5213" style="stop-color:#F3903F"/>
			<stop  offset="0.5837" style="stop-color:#F49245"/>
			<stop  offset="0.6679" style="stop-color:#F69856"/>
			<stop  offset="0.7646" style="stop-color:#F9A273"/>
			<stop  offset="0.8698" style="stop-color:#FEAF9A"/>
			<stop  offset="0.8876" style="stop-color:#FFB2A1"/>
		</linearGradient>
		<path class="st31" d="M700.747,264.268c0-3.204,0-6.406,0-9.608c0-0.224-0.003-0.448,0.003-0.671
			c0.006-0.346,0.206-0.516,0.533-0.549c0.183-0.016,0.374-0.001,0.557-0.001c4.506,0,9.014-0.01,13.517,0.01
			c0.678,0.002,1.353,0.167,2.033,0.205c0.669,0.038,1.364-0.102,2.004,0.033c1.004,0.213,2.032,0.244,3.023,0.516
			c0.937,0.256,1.938,0.391,2.774,0.834c1.324,0.701,2.653,1.411,3.563,2.757c0.637,0.941,1.205,1.864,1.55,2.941
			c0.203,0.644,0.368,1.292,0.397,1.957c0.039,0.891-0.017,1.786,0.021,2.681c0.038,1.124-0.31,2.157-0.704,3.176
			c-0.546,1.402-1.462,2.562-2.614,3.484c-1.028,0.818-2.23,1.39-3.512,1.753c-1.082,0.312-2.19,0.495-3.292,0.712
			c-0.872,0.171-1.751,0.034-2.588,0.208c-1.832,0.38-3.665,0.138-5.5,0.188c-1.896,0.05-3.796,0.014-5.696,0.014
			c-1.863,0-3.728-0.014-5.588,0.008c-0.38,0.004-0.497-0.066-0.495-0.483C700.755,271.042,700.747,267.657,700.747,264.268z
			 M702.758,264.194c0,2.834,0.007,5.664-0.006,8.495c-0.002,0.336,0.083,0.438,0.428,0.435c2.087-0.015,4.172-0.007,6.259-0.007
			c1.715,0,3.427,0.032,5.142-0.008c1.686-0.042,3.368,0.137,5.057-0.184c0.689-0.129,1.403-0.224,2.102-0.354
			c0.71-0.131,1.432-0.31,2.101-0.586c1.818-0.753,3.271-1.938,4.199-3.733c0.63-1.227,0.73-2.567,0.852-3.884
			c0.088-0.977-0.174-1.969-0.403-2.944c-0.339-1.438-1.474-3.172-2.696-3.96c-0.999-0.643-1.992-1.303-3.241-1.345
			c-0.437-0.345-1.003-0.287-1.497-0.431c-0.472-0.138-0.976-0.166-1.468-0.238c-0.53-0.078-1.059-0.213-1.582-0.213
			c-4.924-0.019-9.842-0.005-14.758-0.02c-0.386,0-0.503,0.066-0.497,0.483C702.767,258.532,702.758,261.364,702.758,264.194z"/>
		<linearGradient id="SVGID_27_" gradientUnits="userSpaceOnUse" x1="833.395" y1="264.1538" x2="867.7896" y2="264.1538">
			<stop  offset="0.0141" style="stop-color:#E92700"/>
			<stop  offset="0.057" style="stop-color:#EA3508"/>
			<stop  offset="0.1977" style="stop-color:#EE5C20"/>
			<stop  offset="0.3267" style="stop-color:#F17931"/>
			<stop  offset="0.4388" style="stop-color:#F28A3B"/>
			<stop  offset="0.5213" style="stop-color:#F3903F"/>
			<stop  offset="0.5837" style="stop-color:#F49245"/>
			<stop  offset="0.6679" style="stop-color:#F69856"/>
			<stop  offset="0.7646" style="stop-color:#F9A273"/>
			<stop  offset="0.8698" style="stop-color:#FEAF9A"/>
			<stop  offset="0.8876" style="stop-color:#FFB2A1"/>
		</linearGradient>
		<path class="st32" d="M850.672,253.438c0.83-0.188,1.453,0.189,2.057,1.087c1.312,1.945,2.838,3.745,4.229,5.637
			c1.487,2.03,2.938,4.092,4.493,6.078c1.309,1.675,2.517,3.435,3.787,5.139c0.807,1.077,1.649,2.129,2.396,3.252
			c0.041,0.059,0.105,0.105,0.156,0.159c-0.092,0.036-0.18,0.106-0.277,0.109c-0.333,0.015-0.668,0.008-1.005,0.008
			c-1.135,0-1.16,0.015-1.832-1.081c-0.634-1.031-1.436-1.933-2.11-2.927c-0.336-0.496-0.79-0.903-1.041-1.464
			c-0.099-0.217-0.316-0.403-0.632-0.35c-0.22,0.033-0.446,0.004-0.67,0.004c-6.411,0-12.82,0.033-19.232-0.031
			c-0.967-0.012-1.565,0.386-2.021,1.051c-0.477,0.694-0.961,1.388-1.449,2.076c-0.476,0.669-0.997,1.3-1.494,1.954
			c-0.083,0.109-0.151,0.236-0.207,0.359c-0.136,0.301-0.348,0.432-0.687,0.416c-0.521-0.03-1.043,0-1.564-0.012
			c-0.229-0.003-0.2-0.085-0.08-0.248c1.088-1.447,2.178-2.894,3.242-4.357c0.91-1.256,1.773-2.547,2.693-3.798
			c0.766-1.036,1.603-2.014,2.359-3.054c0.708-0.968,1.474-1.892,2.104-2.923c0.456-0.756,1.078-1.417,1.618-2.128
			c1.163-1.527,2.345-3.042,3.45-4.613c0.173-0.247,0.259-0.355,0.53-0.346C849.821,253.447,850.157,253.438,850.672,253.438z
			 M850.449,267.527c1.414,0,2.825,0,4.243,0c1.635,0,3.273-0.012,4.911,0.007c0.56,0.004,0.239-0.217,0.147-0.399
			c-0.053-0.091-0.067-0.205-0.126-0.285c-1.129-1.507-2.255-3.013-3.395-4.512c-0.964-1.278-2.001-2.508-2.903-3.827
			c-0.834-1.222-1.806-2.343-2.552-3.626c-0.034-0.064-0.306-0.09-0.358-0.034c-0.286,0.315-0.537,0.665-0.802,1.002
			c-0.79,1.012-1.656,1.976-2.35,3.052c-0.922,1.436-2.033,2.722-3.002,4.117c-0.501,0.725-1.088,1.378-1.538,2.145
			c-0.427,0.732-1.035,1.364-1.559,2.041c-0.059,0.078-0.118,0.158-0.177,0.236c0.103,0.028,0.2,0.08,0.301,0.08
			C844.342,267.528,847.395,267.527,850.449,267.527z"/>
		<linearGradient id="SVGID_28_" gradientUnits="userSpaceOnUse" x1="801.6011" y1="264.1743" x2="833.3882" y2="264.1743">
			<stop  offset="0.0141" style="stop-color:#E92700"/>
			<stop  offset="0.057" style="stop-color:#EA3508"/>
			<stop  offset="0.1977" style="stop-color:#EE5C20"/>
			<stop  offset="0.3267" style="stop-color:#F17931"/>
			<stop  offset="0.4388" style="stop-color:#F28A3B"/>
			<stop  offset="0.5213" style="stop-color:#F3903F"/>
			<stop  offset="0.5837" style="stop-color:#F49245"/>
			<stop  offset="0.6679" style="stop-color:#F69856"/>
			<stop  offset="0.7646" style="stop-color:#F9A273"/>
			<stop  offset="0.8698" style="stop-color:#FEAF9A"/>
			<stop  offset="0.8876" style="stop-color:#FFB2A1"/>
		</linearGradient>
		<path class="st33" d="M817.589,253.438c5.069,0,10.141-0.002,15.208,0c0.546,0,0.557,0.006,0.555,0.511
			c0,0.404,0.124,0.952-0.086,1.17c-0.2,0.21-0.757,0.103-1.158,0.103c-4.396,0.007-8.795,0.002-13.194,0.003
			c-0.53,0-0.539,0.009-0.539,0.532c0,6.037,0,12.074,0,18.113c0,1.043,0,1.043-1.044,1.036c-0.15-0.002-0.3-0.011-0.45,0.003
			c-0.247,0.021-0.315-0.102-0.301-0.332c0.012-0.259,0.005-0.521,0.005-0.781c0-5.853,0-11.705,0-17.555
			c0-1.017-0.002-1.017-1.061-1.017c-4.175,0-8.351,0-12.522,0c-0.15,0-0.301,0-0.451,0c-0.925-0.009-0.954-0.039-0.948-0.922
			c0.003-0.771,0.092-0.866,0.893-0.866C807.528,253.436,812.56,253.438,817.589,253.438z"/>
		<linearGradient id="SVGID_29_" gradientUnits="userSpaceOnUse" x1="874.7007" y1="264.1782" x2="900.6899" y2="264.1782">
			<stop  offset="0.0141" style="stop-color:#E92700"/>
			<stop  offset="0.057" style="stop-color:#EA3508"/>
			<stop  offset="0.1977" style="stop-color:#EE5C20"/>
			<stop  offset="0.3267" style="stop-color:#F17931"/>
			<stop  offset="0.4388" style="stop-color:#F28A3B"/>
			<stop  offset="0.5213" style="stop-color:#F3903F"/>
			<stop  offset="0.5837" style="stop-color:#F49245"/>
			<stop  offset="0.6679" style="stop-color:#F69856"/>
			<stop  offset="0.7646" style="stop-color:#F9A273"/>
			<stop  offset="0.8698" style="stop-color:#FEAF9A"/>
			<stop  offset="0.8876" style="stop-color:#FFB2A1"/>
		</linearGradient>
		<path class="st34" d="M887.632,274.907c-3.913,0-7.82,0-11.73,0c-0.222,0-0.448-0.016-0.672,0.003
			c-0.346,0.028-0.606,0.004-0.508-0.461c0.033-0.141,0.01-0.296,0.01-0.445c0-6.48,0-12.958,0-19.436c0-0.186-0.015-0.374,0-0.558
			c0.035-0.485,0.218-0.58,1.072-0.572c0.755,0.005,0.904,0.097,0.934,0.6c0.018,0.261,0.003,0.523,0.003,0.784
			c0,5.731,0,11.467,0,17.201c0,0.259,0.015,0.522-0.003,0.781c-0.015,0.239,0.074,0.33,0.316,0.315
			c0.256-0.015,0.521-0.003,0.78-0.003c7.225,0,14.447,0,21.669,0c0.222,0,0.448,0.02,0.672-0.004
			c0.366-0.041,0.569,0.028,0.502,0.466c-0.062,0.433-0.068,0.871-0.097,1.304c-0.41,0.008-0.814,0.02-1.221,0.022
			C895.45,274.907,891.542,274.907,887.632,274.907z"/>
		<linearGradient id="SVGID_30_" gradientUnits="userSpaceOnUse" x1="739.6382" y1="264.1587" x2="741.6938" y2="264.1587">
			<stop  offset="0.0141" style="stop-color:#E92700"/>
			<stop  offset="0.057" style="stop-color:#EA3508"/>
			<stop  offset="0.1977" style="stop-color:#EE5C20"/>
			<stop  offset="0.3267" style="stop-color:#F17931"/>
			<stop  offset="0.4388" style="stop-color:#F28A3B"/>
			<stop  offset="0.5213" style="stop-color:#F3903F"/>
			<stop  offset="0.5837" style="stop-color:#F49245"/>
			<stop  offset="0.6679" style="stop-color:#F69856"/>
			<stop  offset="0.7646" style="stop-color:#F9A273"/>
			<stop  offset="0.8698" style="stop-color:#FEAF9A"/>
			<stop  offset="0.8876" style="stop-color:#FFB2A1"/>
		</linearGradient>
		<path class="st35" d="M741.67,264.169c0,3.388,0.002,6.773,0,10.159c0,0.568-0.01,0.571-0.602,0.577
			c-0.263,0.005-0.524,0.01-0.783-0.002c-0.452-0.023-0.61-0.201-0.629-0.681c-0.009-0.261,0-0.521,0-0.784
			c0-6.25,0-12.501,0-18.751c0-0.262-0.05-0.537,0.015-0.778c0.047-0.178,0.236-0.333,0.393-0.461
			c0.067-0.055,0.215-0.013,0.326-0.009c0.404,0.012,0.949-0.122,1.171,0.085c0.212,0.201,0.105,0.758,0.105,1.157
			C741.672,257.845,741.67,261.007,741.67,264.169z"/>
		<linearGradient id="SVGID_31_" gradientUnits="userSpaceOnUse" x1="792.2095" y1="264.1587" x2="794.0132" y2="264.1587">
			<stop  offset="0.0141" style="stop-color:#E92700"/>
			<stop  offset="0.057" style="stop-color:#EA3508"/>
			<stop  offset="0.1977" style="stop-color:#EE5C20"/>
			<stop  offset="0.3267" style="stop-color:#F17931"/>
			<stop  offset="0.4388" style="stop-color:#F28A3B"/>
			<stop  offset="0.5213" style="stop-color:#F3903F"/>
			<stop  offset="0.5837" style="stop-color:#F49245"/>
			<stop  offset="0.6679" style="stop-color:#F69856"/>
			<stop  offset="0.7646" style="stop-color:#F9A273"/>
			<stop  offset="0.8698" style="stop-color:#FEAF9A"/>
			<stop  offset="0.8876" style="stop-color:#FFB2A1"/>
		</linearGradient>
		<path class="st36" d="M792.21,264.177c0-3.354-0.003-6.706,0-10.058c0-0.672,0.006-0.681,0.61-0.679
			c0.368,0,0.86-0.114,1.066,0.076c0.194,0.178,0.106,0.683,0.106,1.046c0.005,6.404,0.005,12.81,0.005,19.217
			c0,0.258-0.023,0.523,0.004,0.78c0.035,0.327-0.136,0.364-0.393,0.352c-0.444-0.025-0.884-0.031-1.325-0.042
			c-0.027-0.436-0.07-0.875-0.07-1.31C792.208,270.431,792.21,267.302,792.21,264.177z"/>
	</g>
	<rect x="574.881" y="168.392" class="st11" width="84.666" height="16"/>
	<text transform="matrix(1 0 0 1 574.8813 177.1924)" class="st5 st2 st12 st9">work</text>
	<rect x="653.214" y="168.392" class="st11" width="108.667" height="16"/>
	<text transform="matrix(1 0 0 1 653.2144 177.1924)" class="st5 st2 st12 st9">work with us</text>
	<rect x="796.214" y="168.392" class="st11" width="84.667" height="16"/>
	<text transform="matrix(1 0 0 1 796.2144 177.1924)" class="st5 st2 st12 st9">about</text>
	<rect x="401.547" y="199.059" class="st45" width="293.333" height="153.333"/>
</g>
<g id="Layer_5" class="st15">
	<rect x="519.881" y="149.392" class="st8" width="95" height="79"/>
	<circle class="st4" cx="265.882" cy="222.725" r="58.667"/>
	<g class="st6">
		<g>
			<linearGradient id="SVGID_32_" gradientUnits="userSpaceOnUse" x1="241.2129" y1="197.9351" x2="274.8335" y2="197.9351">
				<stop  offset="0" style="stop-color:#10A4DE"/>
				<stop  offset="0.0827" style="stop-color:#1E94C6"/>
				<stop  offset="0.1826" style="stop-color:#2B86AF"/>
				<stop  offset="0.2777" style="stop-color:#327DA2"/>
				<stop  offset="0.3623" style="stop-color:#357A9D"/>
				<stop  offset="0.9952" style="stop-color:#CCEAF1"/>
			</linearGradient>
			<polygon class="st13" points="241.213,211.307 241.213,184.563 274.833,184.563 			"/>
			<linearGradient id="SVGID_33_" gradientUnits="userSpaceOnUse" x1="240.2344" y1="232.5806" x2="295.0703" y2="232.5806">
				<stop  offset="0" style="stop-color:#10A4DE"/>
				<stop  offset="0.0827" style="stop-color:#1E94C6"/>
				<stop  offset="0.1826" style="stop-color:#2B86AF"/>
				<stop  offset="0.2777" style="stop-color:#327DA2"/>
				<stop  offset="0.3623" style="stop-color:#357A9D"/>
				<stop  offset="0.9952" style="stop-color:#CCEAF1"/>
			</linearGradient>
			<path class="st14" d="M264.549,248.979c0.375,1.799,1.207,3.5,1.207,5.455c0,0.734-0.061,1.451-0.184,2.141
				c-0.015,0.09-0.031,0.183-0.044,0.273c-1.133,5.9-6.312,10.348-12.531,10.348c-7.043,0-12.762-5.701-12.762-12.762
				c0-3.133,1.115-5.99,2.994-8.207c0.062-0.06,0.123-0.136,0.184-0.197c10.18-15.695,50.693-47.33,51.658-48.064
				C294.214,198.944,262.275,228.451,264.549,248.979z"/>
		</g>
		<g>
			<polygon class="st5" points="243.892,216.129 243.892,189.385 277.513,189.385 			"/>
			<path class="st5" d="M267.228,253.799c0.375,1.801,1.208,3.502,1.208,5.457c0,0.734-0.062,1.451-0.184,2.141
				c-0.016,0.09-0.031,0.184-0.045,0.273c-1.131,5.9-6.314,10.346-12.533,10.346c-7.043,0-12.76-5.699-12.76-12.76
				c0-3.133,1.116-5.992,2.994-8.207c0.063-0.06,0.123-0.137,0.184-0.199c10.178-15.693,50.693-47.328,51.656-48.062
				C296.892,203.766,264.955,233.273,267.228,253.799z"/>
		</g>
	</g>
</g>
</svg>
